<mxfile host="app.diagrams.net" modified="2023-09-23T12:54:27.666Z" agent="Mozilla/5.0 (Windows NT 10.0; Win64; x64) AppleWebKit/537.36 (KHTML, like Gecko) Chrome/116.0.0.0 Safari/537.36" etag="SHd82vuyVwSsyNwBGyCf" version="21.7.5" type="device">
  <diagram name="Page-1" id="UrXmZ9MOWyx501Jb4tIn">
    <mxGraphModel dx="1434" dy="758" grid="1" gridSize="10" guides="1" tooltips="1" connect="1" arrows="1" fold="1" page="1" pageScale="1" pageWidth="850" pageHeight="1100" math="0" shadow="0">
      <root>
        <mxCell id="0" />
        <mxCell id="1" parent="0" />
        <mxCell id="lMKxhEZFdJY4erHnloHR-1" value="" style="rounded=1;whiteSpace=wrap;html=1;" vertex="1" parent="1">
          <mxGeometry x="420" y="230" width="320" height="210" as="geometry" />
        </mxCell>
        <mxCell id="lMKxhEZFdJY4erHnloHR-2" value="" style="shape=image;verticalLabelPosition=bottom;labelBackgroundColor=default;verticalAlign=top;aspect=fixed;imageAspect=0;image=data:image/png,iVBORw0KGgoAAAANSUhEUgAAAg4AAAIACAMAAADdbxR7AAAABGdBTUEAALGPC/xhBQAAAAFzUkdCAK7OHOkAAAMAUExURUdwTP////z8/P////////z8/P////39/fz8/Pz8/Pz8/P////z8/P////39/fz8/P7+/v////////z8/P////39/f////////////z8/P////////7+/v7+/v////z8/P////z8/P////////////////////////z8/P39/f////7+/vz8/P39/fz8/Pz8/Pz8/P////////////////////z8/Pz8/P39/f////////39/f////39/fz8/P39/fz8/P////39/f////////////////39/f39/f////////////z8/P39/f////39/f////////////39/f////////39/f39/f39/f39/f////////////////39/fz8/P39/fz8/Pz8/Pz8/P////////z8/P39/fz8/P////z8/P///////zJt5v///8PU+P7+/+7z/TNu5v3+/z125zhx5zpz50l+6fn6/tnk+jRu5jRv5lGD6ujv/OLq+/f5/j936PD0/d3n+6fB9Dx05/P2/vz9/zZw5vX4/kR66Pv8//39/3ae7nqh77/S95Ky8qnC9ebu/GCO7E2A6YKm8LvP9zVv5rnN9o6u8ePr/Pr8/sza+Yaq8Ed86eTs/E+C6jhy59He+WSQ7LHH9Zu384Sn8Pn7/out8UV76NPg+jdw5/L2/bfM9pa18qC784Cl8NDd+Y+w8WmV7e3y/WiT7X6j71WG6rTK9sHT90t/6cTV+GuW7XKa7liI62+Z7VOE6oqs8Ymr8c7c+WWR7L7R922X7cjY+K/G9V2M66O99EN56F+N65Sz8unw/K7F9XKb7vT3/qS+9FyL65+686vD9djj+lqK60F46FmJ62KP7Nzm++rw/ODp+9Th+qzE9crZ+Zy585Wz8nyi77bL9snZ+Hif76W/9Jm288XW+IWo8MLT+GaS7LPJ9pi28nSc7nmf71aH6p2581eH69Tg+kJ46MfX+E6B6d7o+3Wd7szb+VuK69rl+qa/9KG89NXh+nCZ7rMhvikAAABtdFJOUwAB+iQC7wSY/P75DPIKzv2JEQjnVLIOBnbpGRWBoT32SvVAfl8oNmLEuSGs38HUyuEvHGhqQ9rRkxMslnm87bbHMp4Jc1BIjadlNBbYvkaFHyp7nFtwpJu0qVhNAzmv247d5c1tVuOQ1n3L8B6LPMJIAAAgAElEQVR42uyde1QXxxXHfaBVY3y/aqJJxUeIGDWibQzBV6KxWpvYHmtzWmOO9TSm2ZWHPEQQOaAIioiKIioCJqJE4xuiSBCEghhEpL4Q6+uIRtETaxrMq2lPTpPwm53dnf3tzP7m7m++f/PbM/fuZXf2870z06yZu6tny5Fv+PTynd7L5/cjB3RpJuS26jHNs7t3R7mJ2np395z2mMiM26n5wCeHtpGxajN23nCRIHfS8E7DZE1N9XxNZMk91GXQO7K+Os6cJlJlf3X29JMJ1WGuh8iXrdW7U3vZgKb2by1yZlu99uJTskEN8xEfn/bUgD5tZCfUtZf48rSfxg3uKDspP8/OIn+2Ut8xshm17zRF5NA2mjhENqunfvWuyKMd1LzbHJmGWoxvKZIJXa37vy3TUsc/CngNWj1HeMs01bb7QJFUqHqsV1eZul7qJxILUZ2fJKLR/pGbblTfS0q6Vb9rbwBRQYx9WiQXmohodHRJ6sVYqYm2VMXUCTPDdnqWgEZXVmctkjDKvVopzAw7iYRG7zwaLqlp/c2zwsywi0ho9JWDkrbyiwnMjJeFmcG7+nrpTx4/Kpf0dfGIMDOga+IzurdwxYbPJDIVpAQJMwOuPAhodFrZVolcEdsSCMyM50Xq+RMJjY6KCZWMKTQmSpgZ8NTFR59GL31QIRlXxYOluldu8+pocQv4EQmNDvhkgeScFiQdEGYGHJHQ6MjsEMl5ZRQlCzMDhkho9MZ1OZI5xe2pE2YG/3r2xXa6d6k2cZFkXuErCVBlh27CzHCdyGh0oERJJKhSmBmu0rjBbc3TaGMiQZXCzHCFiGj0SYm2SFClMDOs1tMkNPpfEguRoEphZlgo+jTaKKoME2YGL2rdfyoDGm0QVdYsFWYGD+riM0yfRtdUSKxFgiqFmcEDjb62QLJCJKhSmBlMaXQrxjSaPqoUZgYrGj3JChrNAFUKMwMyjTao0r3CzOCRRj+kR6ONKeu2MDNsTqON6QIBqhRmBmgaTR9VegszwwoaHcSIRtNHlcLMMEmjO+imOIEhjaaPKoWZAZpGG0SVnwQIM8PeNNogqjwWKcwMFjT65/rL8S2i0fRRpTAzqNPoSgtpNH1UKcwMujT6/RyJYxGgSmFmkNHon3FKo+mjSmFm6On1GRzTaPqo8hlhZmjo17P0afSmgxIUkaBKYWaoqR8EGk0fVQozAzSNNqZ4AlTpPaKnuP9waTR9VCnMDIM0OowrGk0fVQoz4wca/Rd9Gn2aOxpNH1UKMwM0jTaKKhcKM0NPL4Cm0fRRZYvfubGZ0XvSL6DTaOqo0m3NDJvQaOqo0i3NjNH2odEGUWVDgjAz7E2j6aNKdzIzCGi0fOekZF/F15wWZoa9aTR9VOkGZobHXAIavW2rZH+FEKBKm5sZrQfZm0bTR5VdX35c0Gh3EQmq9JtnSzPDXWg0fVRpQzPDrWg0dVRpMzOj92w3o9HGdE4fVdrIzHBLGk0dVdrEzHBbGk0dVdrAzCCi0fslITJUCdvM6PcSAY1eIyrhB1R5LcDGZoag0cZRZXakPc0Mj7m/hESjY+OD4aBKcGZG60GjANHok9sqZdm/LiYXDKoEZWZMIKLR8ZwUw+Efjyzxb1gCBlWCMTN6+IKi0flNV0mlR8BBlSDMDGg0+ugyh6FdOgwIVbb/LedmBjganYueqXyZHzpa2LAMtJnR8g/gaHSmYoBFHI3usD6qbMermQGRRu9XDvFSHDBUyaWZMRAkjb6BGWUpOFTZdhZnZsafvWDSaNwBRjEQUaVXX36KYZwXAY0u4JAJL8EN9Uv+xhm3brG+uzWOj2KYMr4j1N7oCNxg63gcKQGqbNuHh8/OQa3g0GjFZyZuuOmcDlYfVbaa7HLQ4AWHRhOWQzK3w9VHlV69XVoN0/R4dPTuJZIkysEyVOnnynYIT52Py8pUvnujC7GgjO8h66DKtp7NXbWM5lXovdGhuGGncD7ow6u1UeVg1xyx1GMI+N7oONyj9yr3w9ZBlUN6uMK6nKM1pMsweqM3YoaeCGDcC65FayR/zguWV0PnDnbojd6AGfwFECPXRJUdrO6EeHysLXqj38fw0wwgY8/RQJVjrW2V8pgFi0araQcQKKmCKm+qosrulnZbd7LLTh3p/DtYzqHKSRZWQzf8ELavBrdTxxFFEDeBRXC8GH8z3rCu6wl/VtUNgNu2PFBEcQ5cDFXJ2EZKq7qk/jQU6/zclQCqSBFHBLwgQmL8MTdkqEVrc3xx1ZAXC7EapPuKQEDGkY/rmJpuzasC0x+7okiCqXI0kuUw4wjFHN3ZzpLXxRhMR0Mp0GqQtgD+znR8YczH2N1WrMvGnIueBbUapPAE/lvjyLQeQ1jZu93NlQuz0yBv14HOyjeAjWRRieLOPMccRs1V1uAhwNWgWHdTDzeU4GLr4YPy4VANuRqkFCSaJMCxnFcw1ucY98JMU1TDzjjQ5RCDhLMOcjBfpaF3Z6LFnxVhEaCrQUpC4qmyVTTyGKbV8LxiSUUS7GpQWNxZoKNZdBkJp+O7LMthOloNi6FvFbsSCQj41mVfBVmJJt+G7v8p8S4S0Frg8eShk0mG1TBA0R8LfrfY40hEO4DHs3YFEtAAC82rPdCrQbqIRLQEekAonOzFrhx+g66xCgZfDneRkMAfqLEGbbNnVg0T2oFuJMOq1G5PB6kR8TWZddGORN8VNjjc8JDN5g6SdAuJaCSzJZnoNko2OHZgN/xmKETnkIjmsSoHdPF+A/xqkL5EYloJPqLAaGu6HjzQjtnr8KvhJPr+uw0/plVIDy0jl3u4bDNkI0nxynUW8GscNS6GsykHH3TqAL8aapXdG2nf2Q2ljGBTDjOAbYSgr0zsSrJ84FEFb3cMaAabcvBG8pYNvhzwq+JP2azKvdnsCoam7Qz0tC3yx5ZDCfS4vkUCYrJ/GLowM2o9+KkDfnVjMfS4jiIBdWNRDn9F9/SAnrWM/fhyaIQeWAUS0GwW5fAOuD2UVBRbUJX6TclZ1Z2/EzJT6lMfXQBsZiGnqw1lsd9LG753difRkrvHThUfkAl1oPgfRcdBWlrbkCMOGLhY/ZBk+cNKVNzJfSnJshNKT0nKygBWDuuQGBiczTsd1G6cDsq5e+tKlGxCCQ9PfAzp3VHIvmFyDNCv8y+K7iyXKWhF5ntrwoHEjLpY9NvrPf4GcSnemZpGmaKi8x6FgKiHj5Ct7KkvxhqNpuYL7nNSXp8sU1fYqkQAG4KgLhb107JGoNNuzhOydnedzEhhKUd5X4iYxdrF6gOJ5AZfL/aXWSo65jO+CRuyWLMP7XJ4C0lIKr+52HoiWmavh3t4nkbsdBzsW6z9q3JeE7H/tr9sjT6o5rf/5wRbFwv1r8L4fHvGHVooW6igkouclkMVWxdrNgTXL7goUrZamd9x2U4ez9bFQncWraEx30nc1RgdXZuXSOclnJF9SXaFvl5JryCCc7PWbKFypcUsXawJLZAcfGyenH164Kfz08ybAus3u6YYvuf19+mw9OtXvt/HLrKewpykwXGILSbw7V/lOGzKVGd2tcv9OtmV+s9B8zdw5U9d3QlXTR8chW5jQvVQZl/qHSLIPgSRpnYGP5kpu1r/Ngkigh33LLtjdqqOuli+LP2rMrPVkKhAfc7vDRDf4C+7XkFlZo6PrUBAgbyasos1k+beoq0o+1dxmE8AJ8HW+tTTMh9amup092iu8hyj4yZTPJ+di6Xwr8yeaVOFS6dTjfpnvpb5Ua2TGKIQ06FlthUVdbFep1cOk2n7V6ew2TS+p2NI9QqZJ/mXOTPHjsD265k8LAZ1sSZz7F/txHeYGP18vZsu86YDjwwnIxTvw5tcLJqRwMzFehMZ6T6z5bARn8vlho5czPjGX+ZQKZ8by0VsLf4675nM8UPHy71JrRqmoCM1fVCmGiXYbmDz+4JamU8dOGpoKnxE5TJmN0uvRq43hVY5vIJ+FJreW/SKWiqXk/KHwH1pMrc6RY7dA8vULvLAZI4fIdd7hVY5TEIuvNc0hKpWzWRAIdEFlsyXeVYd6cnNORtUr2F2s3T0yFhqJ2uiByx/aLocDqpnspIE2Jcny3xrO9nhYJgjSX5UodkkI/PssZSqoQu6f+BR0+UQrvFJkK5v6RUlmL9hkZcZzygJOmzDb2g8YGj7AO260CmHvuhIPzc9UsU6IYdE6Gzml1NmcsVE4659B89L+9X/oqow/9jqTSZb7Bp1WV14g8bPzZ89+CkbF8uXet3+LxNaplOjJv2PN+FXBZ395+byEPxUq4n+v33cltJbR0zURLQOowzfpvHjdPOefy4bF2smctltNMz9w1orZxs1ng8FTnc8Lfy2tOnKuj0yySwuMHdzirMlsT1Rc96Qp1W3FBzzwA8cr9mdjn/lhwyVzr7kBVpJrlMltPnOrbCLStmDlli2+l8jblp4+a2zzjHraxqOdonWL/fRSDFCNPyouFiKUwsobcy6Q2MeJServHj3LHPirizPq8I8ener/+AehiRn73WGgZ5SMzlj/671s3tUMnwNuSqVswwGoa9EiZbuadzbAOzOU7eM35Bld25mGGQfKof/hSY5seBzPp5IbdHq+A7aRye/6G78g2iUw3jkoquolYN0QeMZHKX8nA2MMXw3NiapTks1vk9Uu3vKywxvDLDzPC7wSi3ITeuY2hDk3208jXIYhYyW5mFoi7KXqv+PJBmZiWNf3fP3azQ5p2gwA/VfLSgy2pXZqJwHJWoVVd55aulF0MooCtXwBDpcuitNKmLUvYcSh+aBuBRjtyFstfYk57b6TzU3pg4s3WRsIMnIYvccrYdcI80TrOuRiz9B379Ko33CTWiN6v9KcpPcxK0yNn38UK91UQNfZOoxcmNjueTAmwv/S92VB1dZXfGxblhxGx2pjq3rOLhWXEattdap0zodl9a1rjO1LrXT9wx5MRtLEpMQiJCEQAhbFkIwIRgCxCBbCBEim6DsyiYKKEsAi9AAVqy7yXnvO/ecc+93vsf9+91z73fe77vfued3FuQL2djqNLttsHsW60ymqiQ+CO8Xdc3iVTvSJnzDA7POhoHV5qikV5AgN/M1mQWIxu/wMK11bd83Vo9Gdu04C7gMLHCmPRx6ApGLQz6MfXjOTMGSPqUM7Y/OpgQ1I+6sfhQWbQwTD0ntBt959hLnegXUUE9rNPSA/JU/XYmTstGgx8ZZHPKIlsSE+LNySQLmMu6dy4a1LcN/Ma7ZB7UC187Pe9jC4Sm47UEhf8bao26YxDRiRHo64lWKEAOZkHsRHJMM/MZwXzJ/x4JlnrKFwy+AwP4hv0b6PAcV3gbWUNPZkjAx1PJPqGeVMdoP+KPT/WAd66aaT8ONh/wbKTts1bqgjL4YJocuZlq5PRj67/btFct1zGKd5zhkyxAGYXVAZHE6gk/HJDEikZKzLeO5X53sY1Fb8IL9zhINxzsP2TLcOS2CGQpYZk0xJopV6qjKKlKvw9eySvVuWawo/srvWid9tghfttQJvIVmY8J4rsGkN+VoyPa33rVjFutBIG5XyPfRlitR63rusbUdk8at39EkLHk9aY7PyoQs1oN2cLjHR/7Ka7QIrLN29ks2ARPHjvBpEeUAfeF/6Tlwfb/HCg23ngIeoEoBDqFB3LiC13byF5mKCeQnkyeX8NGwS6GcMaDLTrnVBg5PgAfI1+nsMJ0X89QoaQ1fjUmsFwgsjDDRUNJHQZWQxXrCJX81MaQzFrCO3BQHr40DYmYu75acpdIfximL1ZMUNeZ+1HDCz2RHLkooyZp1NC/jwOE/Oqoc6o7F6nGhpcUtZjjpWh0/wocDqFToVn2FAYdiHVW+3nXVC3scA/wVHIf8f8e2YVJnCYVmMrxoSr3EWt2xWHfBQFQlNIRqqa+ZPOYYTdEU56gnHyTDQanfWjNY9q5jg78Cr9kUUmysRSIjGgH7hVhs3QwiGrYq1bLuAwzcp93xVxPU4BCqpFwuSi0WQNtplsvlJtH6dC5Wq2wOzqvz3PFX0/XgEHqfwl2UytsZpqKXQLHYtaS4+wTF7jB7wNrHS+FwmTZ/1fl0oHkmh0rD/EegYgcIpaYX0ipPbFRsZw8LF1wmhcOjjuxtySikRgtUyzS7DhcrC2lOIYfTTtXTZA6IQn1UCodrwTN8pPcMmfQk+okiHmgYLrRW5BCmbzpjpp4uQV7HP4VoOAvyV7v1HmEzJz5SUiG7GZcpyFLPaef4JF/S0yVksc6SweEi+EHVaw23kkcHCSzKKlziSrbApUxa/l01ZUIX70UyONwPxGxSe4B0bhkvvkU5FxfIPQj77OEWniiv1NImDBK+XwaHa4CYT9TgMIEff8q1KIc4fXeHCUI869XUCfLNrhGh4STIXx3S2n5Ob0FkEdOiHItL45kjTZKWGhllWvoECY0XniSBw+VOrG3JqJZl3LD+QsNFluP9ziwV7VfP5Q9ZrMslcHjYneOWyV8J41BZFuUqXBTjTj1fWsou0qzl4HXBYl0FhLypBYfl4ih1hkVZhEsi11nOmxwRb3eHkkIhi3WVBA5ng82PVdp8i0UDG7pFaUiNWE0U0/eoTcqNliNnmz2LdSXc+2dKey+xUTDZoiww0M/EK1CG1WbHKam02p7FgvxVbrrS4RCx0jDVojxsiHmnyDhQELYcbccMi3VyQB86+xR5kkVpKCNLaTk/zb7N8+c6Ok0Cr9jJ9vyVktekwkHrO4pFaXAppxkFvOykE9c0Ha2CoqbXHjP81XgHOqZYlAby0Xirnu6mE9dbOlotsmWxAuKvUvKdaNlsURo6aRnCoRJrUt3sUym8fogtiwX5q6M6MMa9QxFnFmWlYfpo3FHGKVODb7pARa0zbVmse4GAbJVtV6Jn+EttGa4sykE2Ye9zOJzKK++jz5TQV0WxID/sXi5/dTHY9mCVXQ9H39iK0KLejizKCtNk7wSjZE5oTnhKZhRlIHN4OXXmXMxksf4Md61Dv6WZHMcV5W4syiOmuZ6NrNaySpQXfH3KjEBziDJUsrHm2bFYkL8aqoIGNESp8dvU3EFHnViUu00zPdq7UkOlvx/Lv83Zb0N/oxJjD+H/sB1/tVUFDqgL6nvOJJlVbdDLohwioxNSeMXqf2ijjc7qr5GuMCLDisV6Jgj+Kgm7vZX/UMt9BCtE1cOiXGWaNiTWrMGsJmmRH2vSLEJ/94aGbkGb67Pt+CsVan4nprSPvRkZgUVpdCLFaAfIC5UOp3YKsEMTN0uCYLGu5MDhIXjmatStCU1EdLa+M4O2k+XJjmFRfmCcNCmqiAgzVHpSFdVyHb1OQbewbuJDHDjcBiYfVOEy6Yf3HJ5TEFqU6RPNc0ChG26odL+u+axoxf15AbBYt3HgcDPY8J6gPZLl4Hgq5rU6BRYl6WvTpRodN1QaNsBCjyMVjy/4PN7MQMO5ZwRBvPWn/jffjL68o7uLRfkOaUZC/U/fpyZmrexxUc4EFE4tCtpd3XXJM86lw+E++PVVKICIpsk1RjfgqmU2vh36w7e8gtwqZVPbd4BYOou3VHhGtIt7L+VC6uf4GKz5RzocLgBT12gcDlsQfX0a4/c5B5l/0uGpbcWzRx7kmKG9F3yyopR5DoXDC2MY3umYFI0iSzBH+QI6HG4Pgr9CnL/5MVM88iwqg/s5Yr/rUwU+UKdjg5TFerI72O0+hd1i/SVeF9HhwYyIh8duHXYZWhXPLNadcLcpCrvF0qI8qcnWSLyh4TXP0pvYWdahoGBYuvVOKhyehXdojW/FYZGy9qbGFxpyvWu4z8fmKUQ9rARLPkuFw2PwkqaAhhyEKcS6JnyQFU9oWIYkoyRixqRCcSDIYj1GhcPzYK+tCnCY462qAWiucMvQ+EFDB/pV3YPMHKOgYsCrPkNEw7+DsHtXIzFx+MyytHhBwzg8kgWLwMpP8l/F8Cb/FxocHg+CvxpF4jJju+M/jA807DIFm2OROwq1gdpkLNYtYNo2BTTUIoSf8cWp2xoPaDCXzp8abMhkZoKIxTo9ABfqYOSlM89OXBw8GrbwHYOdx8Z4ZbFO7RYAf/U/b0WRUnBrAnZAREjmNmbllPmv5OUSFusm+KQKVg7yWY3Q2lMPfi1Q5xOtblY1NxrP7WgCS95HgcOlYFKaAhqSvWNLqO23qiYF6HyaT9sjFjO52X8t/1fCYl0BJhUpwAGJqK8nkx79gkLDhv3ELaYjWUPrFdQMeivcLuGvFE6xqKyQTuMIWUjK+mDQsJFeXxq5Aml8k0GPkO5PmuHQC+5To5i2dxp/FqPoTNKYINAwkRH52oDIUaiYMJLPYt0I3fAa/JV3ZBMrw/nlEn00zOJUOpgZljEzjsYiPot1N5iikQWQ530t4KWsJa6IP+dTl4HQWAqKzktls1jXgV3WKMDhMxemw/fnYYIqGrh9G9uDjZB7q+uSzxvRcD3c5UqFXXr7JDPYfMm+0fHmfOo8kOLrCQrxyTB87HoTHJ6D/4dG1ybvSHdBQ8vduWrOJ37RCywEcJE+i/U4l7/SIOKRi4WkacL+DTpoeE9wF0hHEjYa9FmsW0xw+EcA/BX8pNk6PVitsOXOp2a3jxr+UkHTQDOnG9BwGuSvZmvAwbsTqSw/KXON/2jYKPPHIFefGQqaBixWt1PjkL9K9o51EFouKb4TGI1CBrIJCa1TUDVc/iYcDi8G4ElHosbEy48k/qtvF4FRTpy4XbixtYhlmqiv6kt5/JVKXbMq966ZHFrA/bg6OLGFlpxbLv3rkhMCDXmA3+UrUDSc0J0Zp+iz2+FTscyD0hP/EAkOi8UbQ44fjQq0LBYrir8apgGHeXaRUFyT7afw5Zg5Ml9S4NDkB063K+gaxmv2wuBwA7xMaaABSbWcL5ZZT/hPY1dd6bONMPUr8caQDAKNkoLFYM0bMTg8EgB/hXmh5OQ64R33au51gJDII09iLvTjC0QfdcCouhuDw9UB4BVpdzRAnuExw/iPpnmWnT5itkP3iDe2j49Pp2NK1zWvQ9BwfgBudOxzKv9W1RkdD1mIWdRghMMU8c6QKlEqDYUm01msc8BPU/NU4OBZx00etWusKhtB3a2bTdMTxOWckGQLlZJhX4FFn/OGwwvgp4dV0BDypBjelkqsHGX6P9/BDxdjpcFd0q0lI84MDWWvA46PF7zh8GvL4A7h8AyBFlfCXmj6NxcY3EhljSYJ4rR2b8MkS0XbHVQWK4q/Uurr51miQRjTn2gsErTRGGpSZaoqGtkpfNplniIHqGgbvCrdTvOCwyXwA5mpAwdPs09WMmmp0XEwkPDlrzGak6WyGkkI+16noe0GKov1QBD81dfDkyb4iC0q6dB4QvALKWj5c6OYAQUNtQ4N53BYgz4O9QWLvugFhzvAD5crwcGzwxUzbLdl6hha85Eiu0O98wG6Zksx0zmCJIMMUlF3bxqLddyJzhzzjoyrCYy7RNtqKjcdDn9BEFhGlpZV2rSE8bRICdsUFXUXABbrhNhw+A3cXYUSHPJtoweHtc5iVZCjBPW8yxGYsKl6ETVdbIG3GBXCMMpN3ovGXzWGgj4dKMdT3hsrOtixTIQr02SuzKytQ0jpeUimmM77B/2iN8SGwy/h3VwLDlliONQOXzAwLBgEh4ok3zMysf5IYtzD4WWQ8/ZIbDj8PRD+KhRVLZkYfJNevCVNmnJlbn2dPlAourF9cKYUDjofC9hM4Woaf7VUCw7lfNth3ZCtNvVFU403/OkW0l+dUtgssh1m6ugbkv/nk/irOi04eDpmPKp9v18/zrYUlDEOrcFygQ3jDyWxbxa1OvqGJV3PiQWHP7EPVFfjKCM8KGfvQhdJVsaiv5vt18g/XDg9hmSkCqaSF3hJmMBi/d6Jh1gytlG9hy0jP8wPOxnGshGOEnf6LZ+TQ/dKViopHLQO+VcMNPzhZ2Bvc9XgUEK5AFS2kXMgKLdCwwWgcoCzpUZvG9mFIvEuWfSqlsLHm1msXwXEX4WQaNIfszxmjn3JcaeCFt7d3HKUF839sUiMd0WzXC2FDwcLXxINh9+Cn3SoocG73OK3kbt5uxf7kII7HN/SSOcLpu6oqcAZGqW+96HojqUPRMPhb+AnC/XgUOMdDVXbUPJe2I/Rjm+p1JdF+2fPrqxEgnm1FJ4ILul3mPmrBj04eAY29l7jW2mfUUJXiPUhgXg7P1TTOIgzP/E4CIe/wr311YNDVTiAMRwJC/4/e9ceVNVxxteqMz6iNrE2OtU209akiROTcWo7edQ2JmlrzeTRTtpknMbWdtLMtPcCFwQCwoXyFvEiIFq8wEUeIkh5CYoKBIQoPlARJBI0KhqxGLVGEKvBBhG97Nm7u2d37/lwhu/P+9jd8+3vnPPt9/seyYUQKzKkqxCZxXoeh8Mi/MY0Dg3U8nrukzU1Ls51jhqgBjphhmmcyWLN0nswVyjJsTDqL7URHIfhtlIzkNgM07gDq6c2C4fDUr1uO5UCVk06/xRWD781C7DVWplxGsd8YX/G0LBYt1NfpRTBbYH1llMIUuoRqxlQuozTeAOdxXoV+zpnuXFLC0gAbW6WsudumEFiI2hPDLO5xzidH6KzWN/Evi4yDAu7MkvNwBK77orJVN4RC72Oy76GwSEGm/pPdP7q30atq9A8HMTzP3Wew2AZ/juyWw3Se/DQmZ8ZgoZHJmAL22XQqkIOmkcEwhWFFcf+xss0/sp8zZhF5e0YAQAmW43RfDaNxZqOfdluzJr8ake2X0N+GpN7g7NYLzrDYRr2ZaYBCwqvarSO7D6BTTEkRpXGYo1aoI/+lZXA6rgjmyNHdt6FdNsNCKn2cM1izcYXVO2mNbReqa9pqGvLGdlyFqHSUXPcvf0tcBbrrftweAL7KlRpOdyYpvrerItr64rS/Ef2Wc/pd013c3FvU26AW+CA08iL7sNhIfaVqtrpiauO1rXBGAheG9Z2uoUKyek8X3gmqy7YuC7PkUFfro63rzpUn+AXqA4OjpUuWazX3FMVHLkAABjgSURBVEGt+dprV0IAIb/oZE3XgHlemal606xfDIaQOirjjm5PM9h5tbLdI6xMEX+AsVhL76HhOXzW4yrcjV6GAyH6y8z1JalDVrFf7RPiOh4U5NtU9tUOg8MjctpsKsKa8TLNiwfhsAQndeTj/R3GdrT0b9lmq6ogWTypaSrPgC58AuF7C490G+lfjT4tX+LxEjbmq674qwzpqaK6DXt8tq0rOJROsbauqDvGxB6jO9wTssPOGsXHtUifRXOxEX81CIcfYV/I10YOM0Ahse11Wauq2XfJf5XNyOWca91oj79hQAyNV6XsJmHPzV/cRcOjOH91SDoUz70Wlmfa9qNxlbwW1T5lBq2OFq8xXTUni9wLCi/Z58O2oeNNeGQADn/EJ5L2mruvNXpQZ0NZk86wAFUvLv3RxKklm/ZsPuy294Wk/XABG++7ZP4qWBYNPe64+NKzYdkJQpX2GhStQDSl3W9n8cUT7vC+SPoDysks1nvYxxdl4VCj9qq9a5vtuyXCQlQl2Ek55yyJVY3KPSxybmwLVt71nQE4zMBmyZaFg+rrTh8e6JRtOHxe+eNBcqewYJMFd1is0cr5qzreywm90diQySwuL1spXdXRQrYTFEfJCGtYfVNXdvxmzrbyksXcTmPDzXYPf8WV75q258xd07hqABCu/QMH5Vz1Z1XdjHLOWnqu2faifHNsx6BL1dF1qo/jdCZp5XVhwz3RD4c/YB96SHsdmLejd1Gxs7fXd73t0lVfSkcSqcjNVGUR0nI5lDba0BF5Xy906Esx90I3KySkRZJVwsZf2A+Hucr5q610r0GtnXiSpXRCleoKlKXOAypVyusmbWhyG6yQ7A1UDs4uuVEnhg73QX8TiynYHBul4RBAMQfaiv30mxyeEsZk1KfqTLcCCaV8Qh3ZZRnc1GLXxYOCZWv7fT50vCmTEHocZ9cV1Kty1Ta3paFSB6fiJGHq1yLkBJMwYk5SbWpa6/nK9WTKNEU6cRLvKPy41pJUUoKE2BlzQwn9T8tdd7ezijO6N1Se7C4JL8OHWsWW0VEhqpCQtugdJ71NeFX+HyL0BvbRFhVwSO7AFx+5rlLmBjotupJylWiQSIqh+8KamP+v78ZOGhG3FewTxr/O1BZ2yFITa2OPGGIxHEjl+M9eCl8g+gqLV+v4EfXJRFFDZP7JdVA94HT29N6ipPcFRi7NQuhJbGkX1MDBFGK7awOVNmbzFhZybTXpbXxz77gSrRYOokZMGXVU3mLw4RuTzuaYzYeLzitK9sZe6k8iNBlbWq9JmcR0xRXGHUtW4k4uFXs82BW7hQ+L0QTJVNdrip5mOSaHwloLp4YuZLK2bcFOE5z4WOXvIO7njfNBdk1fO2cWkNhRP9uN7i0ZwSyapQgtw9ZWAggHGvkVKkJuc9Wka0vqT1D2jbvJ9WMh9x/d97ERTN/Yw3OZls+EfDqYrlKUdso97EnOR4OBloFZPEFcIntXoB5hboHDDISmqo6MkxJKdX//VN2jxbDj4g4781KXOd4Ya/VflB899iUJTt1Yvd+pCD2LLa4QFA5Vuv364nflHRnqy4lzC3FBTzLwcsCpG1PQs1oGqwAUDhZKNXLPvToHC2Tn3JywUL34SoiLevp45wHVjXll5iL0NLa6TFA4UA/ofTqTVw/ptwR82NHPnybrW0U4PUnLug9Q21hW/9MIvYstLwMWDlT3nc5T3sfMrV2tx/Uh6JmJd49jS4lg7pA52hZY1kBYPNAcRxG6rMkVzINCpNZdGtWuOGZyN30VKX6Aug7H1vY3hH6ML7ASFg7Lg1QFB95ibmy82BtGD3HhCKaPdRJS13ic0tsIzVfj/jPm8WA+p8P3k888ZBJf27VCKHIljCQP0IeD6Si2ml8i9B18hd3AcMhLo8WJ8GeIJTG39QDxf3uZ75hofuIiwXsYWw4mPIpiHkLoffxgHQKMByr7x5/7woxjD3KIujK5TVpfRtaANRdS0elmjVNSe7SQT7uRlIA2FakmCcxNddUvoIJZAoDbrbyHMdApUEXjQcV30rA0tuQJYDiYdlJvKE5DbhtrTz8MEHzffy27+dZwjjFMaTikmjVBxdOJWVjG9WJ3JZ3UW5PLqbuPeYu7pm5DmL4oPuKih5W8fQFUyxqP/EvERjeGNj4iSjWVSuLym9pYO0rL3djEdFjwOEAcrDYdN0FdPJp38tRRxFpAZs//QeOBTh1wmA8BaYytiC2nPUaDWXjgIRoyWYN0gepYY7G/MJDB/RtJv5sbxIdaYimF/TarYm0FvWtsrwLigunu7hhmKp7voqyk2XwZGg90prmU+axmNUawMkbIYO3lKtYKSlixExGgh0wtlfL+mLtweEWr72vQeKCnXbcw6gElslxJrPQB5jH1Bsv8YfpE7aD63arR0MzBynEPf8887KzJHnr96tUBMq5hjhMesy5mOfXvMSzbxZxhgVRvjCZ6c9y8e2VnX1AVuKxQiiV4A0eo9Amvh1Vxo5n27/A+FhpSqiGVG6UlZt69X5P6qXFay3srMBwCT9D1eVrUzd2f9cRxwmPFRdGIi+XsCiOnQZVLiMF4CbkuWd9PFiUC46HaX/jdy0CSuYpjeqYvqsY1ktnVkFqSIVVLYPemOTc/enMCwUniC4wHRsU3T5c9ipuUxK+wCs65TKwM6GBH85dDKna/1mM75XlqW1XBEHK1bjNGtdLYc2L+H89jXNPnsaxBF16kgIvsAJpiSL3mEpKAfje0rerEZYRF24Dx4JcvhIcQxluGN0CfRUCRb5fAbWw0bIA8VeQRfCpjF2M92b9FWLX3TmA8sJyDsWUCT3l/7gCkzQLERRRH54bQVEilkkj3RQiXOYRf5acD46GZoVhPgj1pYRAO/P2kj+v3Zfl2cuT17YJUKSn28GcaNKDnppLMpXBYODiYIU0Fmv/sZNyaOlJ/GSeEUk2N8NYMDjR8DqnR44Q8xQXztHBAr48nhS5bYPHQE8FS7knch7Cd/vuPdMyezsjxxG2XxHYONGyOAtSnH4EbHL8EkWSmkhQ0xXKbGcjqMfQJVkEPVg3WtRmMNi1YDfsEnvZfoZCx0w6St/QNIhrQmHdIb+fbwHj4gqngmxXOvz+qMoWqlfFwuuL84zM8bZZiQYMcSGfgn48hwwF9+zVSMkI1LBwsbBefl1OmZR69GVWRztlt3EkzgXxtM0C5IFKU108eRq5k9kOE37f7wOLB90OmjlfeLyTGSMnXGwbqoOfbRt/TzT6+QugXITXZRQjBeOgt5FqWkMxJjwBYPPhxlBFeN2hAZCgIeXWWOD7iIoGvX2dtHqAeKwgszPhXEU1+MPyyAUymYxydg4I/ufPTSjqrrL/+noVOVV8f+JGNr9BY8LXh9pSdSUUDGvUeyZzsBcZDPYe2U4r7z8SN1N/cEph7N33a/jiA3I+5wGAOBfXqbSGsaNooOhzQxLmkV2Q5MB4KebS9oYJaidBszhdKN1xNnbTOZOrlbJBoBc1fIYUTfTARsWT0WML//gWdt2nj0Xe0fZMbeMQV1EdT7NUOPjCYI6sgFVhCaPLy99GILY9NIVxLN3AREJY7YXBzaF+mCZZrjRef0vmNewZSfYmEJ9iUxxCPvEi6mq+A4aCgj3Oc4Mz7lDRGBQ2c9iVlQf8W8QmJ3ARPvbA0Su5HnzD9ckABGmBDkUms+xxONKBJPyUZQpUPOB52C8/sCJJGA2wkEQnPcyfxwgE9tYDw/zXQqTiWZpkNkemRW/Zgo6GewOqNHY34Zf44wjV9lgyMB9MR8Q2JlKFeLC0P8ptiBYGHG/c60iOvqPLiqJUC4R1plvP2y4DBG7acTvh1wpqmI33ye9KFlYHjwe4ttiXRMXLzeoijYSWsEW4hudF+rRMN6OW/kKJOm8Dx0JsjtCcFktNWC7fqjS6BVRipEfzkSXrhgP4xgzBOUAw4Ho6HCuzJQemq8KLHmtJjsOraRYgmW/Am0i/fJ5mTtVHgeEgP1r8p8l0ZYsR6rLVVwCqrmrDscfORiPxVvUmmREI+07spCuITHetE0NAJHDrkQ7p13kZispB0hUnweEjW7bD27MvaL8G6VNdst4qg4Qgw0xNAKoIzSxAN6NFnSHEFCfB4MJX569+b/LqaKwJ+ar+kDsGm7v5noNX0//bOPCyrKo/jP4SBEjfQRM1I0yRNxaVSRK20MlxbdNwdnUWbfN4bIouKiYwkQiLiggoKopJLA4PiChgqOSqmmVoSLvmYjZpaTj0mU2ozjJnh/bK9dznnvud8/q3He+/vfHnvuWf5HDTv96anvXGgTmgrzsl1HOShKMWuForMycg9UfVvtNS4T4rt/sBMKWJdJHQafeNOZD+ja6J9Ixs4yEPwYrvbKWH72biiSraXrbi8fH6WppnM7ayXiNiugRdcDW/SQmf0pPtsPJAeoaW1lOy0JbfWfnt5Z1jwryuDw2fu+Cz3XPyseT9p+6dLX6nMZUq2megH9CnShht3c/f3xuJPK/qQdCQyOzvySJKiG6c+Y16d8OvgvoZqTAN5PYHGXVdxkYfEjFiFS86Esi8O2gX0nJfWOFATJALJDuMiD7ZrtzkMw8m9HFQG7Q+p34S00wp1J2+v5CMP4RsjeEvD6mAO6lIEvsRrjiY98EEPvc3GCQtzuApDymYeilKI9hL6kD50Rc+9lpc82EoOcROGpLNc/GomIsmav05pINd2aHnRZW7yEJXMSRq+mM5HQdAgfjtXveJAD49HI3w7eInDymxO4pDBRz3Q0s7x/Ug/nn8UXGFqKCdxWM7Lu+JQIg/l2A9WCD3al/RkMHr6JZx8XSzjpu9QwkE5YlBXqiXpy1j+1otXNFPDiGT21YjOAvc1Qec00KgeaI1wLg9x2MRPHBazr8YZcFsDXPWOA/m1Rd3JH3jIw1Ru4vAP5rVIB3fV1o/0p2NztBYwioM4xHMTB9aWXtsCMA/XvCMZwV9QAVh7SEvJ5SUNsxlbtGwr0Cf3CDKGepx+a2/mZlCScSFCkFS9nkFpIJdnUXfyA+ZxWATb5m0GeWA80YsO8mjtYlQcyOMP4HrvMB+Z/Rq1zPqgg8cjjWr2lMyjcLEm292Y6CDXcR5kHK8iD+kNxjO6P8B9m6U6h+gPth3RPwszMkv3Jn6L/lMayzoUIItoNzKSF5GHdDvb7iR0N+XcfZ3u3afnjMa7afG/mAGwcHInuzKEAUH6gw3IWKDWfg3LNMSgPReTv7v3PwTtv7D+XV1eEfvm/mZ5dEEkV8tA4NEfgwxOAzk9BK4a+DHDOKBFgVn3nzQRnHdz6mQtUVh2Zcv9J0kWbvle/anJ7LhJdATXMBej44C19gw9pOvUPw57sHcgOPdqziQ7khD7/c0SvNUoSD0AxspBjg4A69+QjAdq7Wcw22SiFkbNr2gwKCwvY0lxlR0RkVnHLx2tSEe5RvWWYtN72AzehrUeJzOAWvuLjAbk8lXd6f9UfifhC3OX31qcllBuLOacSt62Zsuqym0W4ar5kvMsqgBl9CPJHP6KKpjJJg6qhbNJ1RkGCU7dnzt30a74q//OPJB5bE3Gxt1bvrlcFFaNBY/qAXIG/Sgoo29hUhrICXpI57JIw17VbXxi8h2olhckmL9IDLknxjiZFQestY/4jsEgvWoh1JwTJt9CLvvfSTSj296dzANq7VNOmB4H9blpx0y/B9UP9WyT/y5ytVpEtTMQae3Pmy07SVX1Bd8z32WmXrd82tRudSqS0b9E5tIIdR/Mfm8n8/DZH6IeyzBzN38UEpJ0J7MZjvJwjvHfpcJCfKlW7kSYNzYJz5UcbnoasNZ+yo9mTlaofyWnsvi6WahWN35h2sWRlrlLbfPjgLX2ZnpIQSV2Mxn7AEdomnXsFTqTumcbYgHU2u8xbSMSWCUay+aMBeBSMOnwsHywnMNOi6h2hqDuw3yT2qAQ6P22M0mDbeX76lv52owLB58CDfACseIRdnsNgpDWgZUbHm112WhCDdCqwN8zSwN51gH3895+M1oAHQs5h5VcYQFaN2W88GANuGwdT3ZxoE5Ia2+Gh3Qrmoz80saKGeBusgsNvug3oBupySKqHe8aaAGp4R7ScOgQZLfEH57C86HBfxFIRu9NbHkKFeIwi1eFEsnucIUdgeiGDDXIzUQagz8Ta15HhTDYQ7oVGspZynDReVPKDQP7MtMuggv2Yp4G8noOLS/83NDip8ElTCydbbfgHV017oKZ4HK+XuzjQE2Q1j57hYG1L4C1n8Ty8IijeKmlYcNiX4Gr1e9EPAC19qdDjKs9FsUdtrEE7tFTPjLoajuBXFUni6h2AlAljJtqDoP9NoWtieYmvKcbxlzsBApfZ+IFqLXfZVTl8RHIc0KYxqEcI5EhM3rh6DAwN27SQK5Ia2+Yh/RfCoOv/ErnLbAbu8CsAjzhxU8cqB/S2hvlIcVn1sWxjYPtQ3hXRqyyPweu88cmxBNQa/+pMd/d8NijCNaSqhIYh5/1v9CPSEbfiviipWLaJMJhlvPq5ZIIvy30XwYT87YJFlHtQK29IbO8u9CgA/tDJD5GBdB9FUz0HnCVrtylgVwHoFleI84j36rwsiquLFlmfGgit0k7V/7iQH4dUHfSiDXFarFFCg/HSBwNNF6rh6xoHR4mHoFa+2IDdizmqb5p+TiqTfWXG6n3u+IgktE/T3wy2CxN82KuhG33xh7SDJbirEPHPw8mXulj0rh9aJnXdOwiGycEl+nnBeo9zb8BzeT24TYNNKo1snYZsApk5ZV7//6pgzZuiM68Zx+JzNP7X98HqttjFL9xII9xZnlIV128s2+5+FK0jSfy991ZsxZxRvcVo+hQn7YexDPdkNb+hiEjhjElG+PjUm3cEbLqUvzaTfr3oD+PNU1Grx8NUPdhXpBNopEwZEttQLwzCOXhgmxOrb2l2ywsotqBWvvAPNmg2rgCqvqsC/9xoIbPoMUp+bJFtbAW1PQZD7IC2EMaLNvUfi4jGf2rZA2g1j5nmmxVe4EW0RfJKkCt/THZrPZ2I5GMvqll0kBOY7jxkDoCX4JiPuRknTiQ+xto/do12bL2gDakvuFOVsJ5IvKQzpRtW302ARn9RGeyFs2Qh/R6uGzd6rIQWUSbkdV4DXUfDsjmrSahyCL6GlmPJ3ncDWE50C6CJy2YhnI8pEWyhavDR7xYRLXTBmntEwplG1edvUhG34asyUDkIU1OlK1cVaa/A/RPA8mqQK39LNnMVSQKKYYakXV5GeVhi2zoKhE0DxTvZQungXqz85BanwvIItrbynGgV5DW/lCMbOvKyUMy+lfI2jyGupNZ0bK1KyMfWUQfI6sDtfZnZHNXQjDyGg8h6wO19umywStkGhLyP+IAaSBPX/BkSQtkk1fEMWQR9XSEOGCtvaEeUsszV+FORq8fUGu/PkS2enlcAxq6Gt7kKHRG3YfVstnLYSbfFlHtDFU4FfjwSPh1UKyhDpQGrLWfXSCbHnEA1Oo5L0eKA9baTwqTba8mjn+LqHZGm+ghtTRFVrCIascHdR+2yea/j8IEUCYfcjz8UR6WygCUIRGd1eHvgGkg13bIQ7pZRuC3zLKKRVQ7/cab5SG1LOiojvH9yDHpizykP4XKFNxlP7KI9iVHpaVZHlJrEnPIEjJ6/ZiA8hAvg/B/ooHjXJngwGnAWvvJuTIKpZwBtRng6shxIL+24JnfT5VZsNnSkUXUjxybjshD+rcomYYFSRa0iGpnBDzmTngP6QpkER1Bjk89lIcMwdMQsh4UpZ4AaSAXpLUP/FnsOKwGNWntIkIcsNb+iNAe0t2gIuM8SAy6IQ/pKYE9pAXIItqNRKEB8pC+JayHNGwSsIg2IHGAWvuzgqYBWkQHCZQGchmGupMlYsZhG6jFMBeR4kAN+yOt/VYR07AUVKJ/QxILqLVfJqCHdDOwiNZ6nERj5IPSQ2orR0Y/ksSjhfSQ2myhU0ERWgiYhnK09ouESkP4dlCCMU4ixoHc26O1tCJ9XkxDJ1y1dycxcUYe0tlfCZOGRPSJ+TtnEhWotZ8syt6LKGR4qfsSiUt31H1QrgixVy8fueiV7iQyUGuvFAsgMk+PQE8+XOg0YK39/zoQmQ6++2L6P+FzW1RGrx9tesK6KCfTHdg9uW5WLHzonm1IdJ5+AOdBSVjqoEPW+cen4Cd+4GmSvKCUx5S/5zncO2PF8rRyn3eIDAOV4yG9m4jzGXvDHGSZ9YatcbOKK3jWXjIKpXgNUCpmyrL119+yNjnJn56cXPFT9nCVUbiz+KGOInnTXQbhF/y6CJ+GLh4yBr/i4St4GnxlGsrMbrYWOg2ta8sIlMHVTeA0+MtepIqAmoKGoWaAbHxAx/5CpqF/R9n0kN5j6woXhrpje8uGL49Woo1A/KmVbPQKGBVQX6Aw1A9wkU1eMbUbNRYkDI0byfdEVboQndsLEIb2AZ6yqauId69aDp2Fia97y0au1jRnM7cODpqFDm7NvGQDVx9nHzff5g6VhOa+bj7OsmHtx6mT94ghTft09XezMv5d+zQdMsKb+5Mw/wuhvxHC8t140gAAAABJRU5ErkJggg==;" vertex="1" parent="1">
          <mxGeometry x="410" y="210" width="51.36" height="50" as="geometry" />
        </mxCell>
        <mxCell id="lMKxhEZFdJY4erHnloHR-4" value="Pod&amp;nbsp;" style="rounded=1;whiteSpace=wrap;html=1;labelPosition=center;verticalLabelPosition=top;align=center;verticalAlign=bottom;" vertex="1" parent="1">
          <mxGeometry x="430" y="260" width="300" height="160" as="geometry" />
        </mxCell>
        <mxCell id="lMKxhEZFdJY4erHnloHR-18" style="edgeStyle=orthogonalEdgeStyle;rounded=0;orthogonalLoop=1;jettySize=auto;html=1;exitX=0.5;exitY=0;exitDx=0;exitDy=0;entryX=-0.009;entryY=0.375;entryDx=0;entryDy=0;entryPerimeter=0;" edge="1" parent="1" source="lMKxhEZFdJY4erHnloHR-7" target="lMKxhEZFdJY4erHnloHR-10">
          <mxGeometry relative="1" as="geometry" />
        </mxCell>
        <mxCell id="lMKxhEZFdJY4erHnloHR-19" value="&lt;font style=&quot;font-size: 20px;&quot;&gt;3. Fetch Secrets&lt;/font&gt;" style="edgeLabel;html=1;align=center;verticalAlign=middle;resizable=0;points=[];labelBorderColor=#66FF66;" vertex="1" connectable="0" parent="lMKxhEZFdJY4erHnloHR-18">
          <mxGeometry x="0.3403" y="1" relative="1" as="geometry">
            <mxPoint as="offset" />
          </mxGeometry>
        </mxCell>
        <mxCell id="lMKxhEZFdJY4erHnloHR-20" style="edgeStyle=orthogonalEdgeStyle;rounded=0;orthogonalLoop=1;jettySize=auto;html=1;entryX=-0.043;entryY=0.607;entryDx=0;entryDy=0;exitX=1;exitY=0.5;exitDx=0;exitDy=0;entryPerimeter=0;" edge="1" parent="1" source="lMKxhEZFdJY4erHnloHR-7" target="lMKxhEZFdJY4erHnloHR-15">
          <mxGeometry relative="1" as="geometry">
            <mxPoint x="560" y="358" as="sourcePoint" />
          </mxGeometry>
        </mxCell>
        <mxCell id="lMKxhEZFdJY4erHnloHR-21" value="4. Inject secrets" style="edgeLabel;html=1;align=center;verticalAlign=middle;resizable=0;points=[];fontSize=20;labelBorderColor=#66FF66;" vertex="1" connectable="0" parent="lMKxhEZFdJY4erHnloHR-20">
          <mxGeometry x="0.0576" y="-2" relative="1" as="geometry">
            <mxPoint x="-7" y="-57" as="offset" />
          </mxGeometry>
        </mxCell>
        <mxCell id="lMKxhEZFdJY4erHnloHR-7" value="" style="shape=image;verticalLabelPosition=bottom;labelBackgroundColor=default;verticalAlign=top;aspect=fixed;imageAspect=0;image=data:image/png,iVBORw0KGgoAAAANSUhEUgAAAJcAAABQCAYAAAAUcud1AAAWvUlEQVR4Ae3dZW80t9cG8Hy9Su2LSq3Kd5mZmZmZmZmZmZmZmZlhHv386Iqc+c9md5Pd5G6zlib2eAzH51w+PqbNVNNy33zzTfP222835513XrPVVls16667brPBBhs0G220UbPJJptMniXMgw033LDggb/ppps222+/fXPSSSc1jz32WPP9998XJP3111/TiJr6448/mt9++6359ddfy3PKKac0m222WSlk/fXXb1KQwjwTgC3tDkbJwARseCgeeDn33HObL7/8svn777+bf/75pwCsgAvAPvroo+aQQw5pNt9882adddYp4AImGQOsCbiWNrBqxbLxxhs3HqMbgAHcXnvt1fz444/Nn3/+WUBWwAVxRx55ZAHVsmXLyhC45ZZbNnlqcAHb5FnaPKjxIFybTCeeeGLz+eefN7///nszZTi85ZZbisaCRMDZZpttCrACorqwxE38pQ2wXvJfb731mmuuuaYxGk4x3nfdddeitbbddtui5nplnMRPANUPA8AFRwz8qbvuuqsYZoZD9la/zJPvE4DNhgEY2mKLLZrLL7+8mTrhhBMKuCw5ZPibLfPk2wRcs2EAuODIEsWUGSJV5pkt0+TbBFSDYCDgOvroo5upfffdtwDLmsUgmSdpJiCbDQPAZcni0EMPbaYY87RWFsNmyzj5NgFWPwwEXAcccEAztdtuu00v6ffLOPk+AVc/DACXJa299967mdp9990LuLLG1S/z5PsEYLNhIJprzz33bKb22WefAi7j5GyZJt8moBoUA2aLzK2pPfbYo7HGJWLQzJN0iwu0LBkthj+I7CmqnXba6f+Hxf8SuNoMH4QZ/5Y07bYtj+94aa9xl112Gb3mWt4a/G8BziB0Lm+87aJHO6w8mCiOdFhMZfXRjIUOhwaNFB5UaIOkW+w0adtC87SuLzT08vFobOBCiJnnQj9hQBpt1tIPDNJIX+ftl2e+39Wlzl7loCm0J5z3tC30LoYfGnr52jUWcGksUBlzF/qphUYYNk/bD4ZIJ97OPUakE4Reabbeeusi4Ai1FxCGja/BQABoQIv61lprrRnHnFJ2G2B1GYsR7gWqxKP7PwuuAMtBR6ckCW6NNdYogjv11FObp556qnnkkUea22+/vQDNCcoAi2/2/Oijj5Z0Tz75ZE8NE+EP4wcoAI2+66+/vnn66acLPdttt12ZtaPH9zZwkjcdpP19od4Dol7+kgAXYHk01mwY860aO8TGOY678847F0HqafZWbYOdccYZ0xcMPv3005GDCz0ABFxvvPFG40LDt99+W44IAzeQvfbaa80nn3xSgAfs2pFOI/9CAamrnl6gSvzIwKVAgtlxxx0bu+AO6RPOYj41qCIQQ49G8wk0l1LOOuusZocddijfgMuxI1ot7u677x4YXHihjtkewsqlBnx76aWXymUGQAciZTgF/NVXXxUS3n///TJ0ykObpewuoS9UXEDUy0fjSIZFFWRIIbQu5ybIMI/bI4M87TJT92mnnVZO1RIG+jQW44X51113Xbnl5BLBQw89VLQX0BGgtZkPPvigFOW7nf0MUUCrE+23335l9RkIxNF24YFyXLeyOq0u8fIDrfS+WVz0jQBeeOGFwpuff/65gAsNwP7dd98VHqBFvrYg5V+sp01L+31k4FIQ7eC20Jlnnhn5zvDbIOj3PgiwkiZleRd+9dVXp3s32tLwWhCHHXZY88svv5T0NAQgaAMAXHDBBc1PP/1U6Hf8G5gY2meffXbzxBNPNF9//fX0/Ty3pe69994CtrXXXruAxV1Pnezll19uDj744GlwM9yd+H3zzTenaQSuF198sdChTprrsssuK0MiArTJkKkedlm0rzbV7VnocHjayx8puBRGAASkJ7ZdADAqP8CKTwC0jN5+8skn9wUXYbBn4o455pgCDBqGsR930003Fc1j6Azg3Gh56623yv28pAMmthst9fDDD5dotCkXb4CC9nn99dfLN8AW1wUuQ7LvXMAF0MCKv+kwCw2our5eoEr8yMClQEIxNDBSXajlRgWkrnICqviARegff/zxtKZKQzFFuGYOod5zzz2FTn/uvPPOQjuAxNYxTAGHNrF7OEIGXrNPmujZZ5+dLmP//fcv2tsMlD0H8DQXbWio49NSvqGVMd8FLmU7pVIPiwceeGDjhEHa1G5P3baFCNd0dIVHBi6Nib2BWcJ6P+YCBj8g6PKnpVMFugDVKy5lyp67AP0YTAMADiEDJkCxg44//vhChboMX2mP+PPPP785/PDDi4YWz3aqweUbIBom49wD1fEIwDeaS9kABkSDggsQA6gIs18bx/k9NPTyRwouDAzA+JiKgQTPJ8CAoO1HELXfC0hd8crjnn/++bKXRYOip37CaI0GLMJiiDOW0cbRSDfffHMJo9k9Tnak8jyWMEwUTAaAipZ03zMOWK2lPfjgg4kqfACq0AKwnPINk8OCC2+1JUBLuxba7wWqxI8UXBoXBvINAQRA8G3NBSDiAxSLlLfeemsRFoDo+QxYQ4ihK8PUtMQ6hlz2EOGqm8BqgYprMx+wAMdwGGfWGOGzeY466qgynGHUDTfcUOjQFs7tdGnRGXDSbjW4/PYGbYYXATzNpe3AZS1rWHBpl7YsaXDpYa4V1SCqwwEW382jFVdcsUwEjjjiiGbllVcu60yM6FVWWaUBvrar8wtbKwqo1F0DvQtcACMdAHHABKCEjs7PPvusDFvS0Fj59RaGu7U8szr1WQOjveQHbraVGSGagOvYY48ttACEYfCdd96ZHhYHARcw064ZFpcEuKL+4rc1A+ER6uOPP16YSYBtQOTd7NJQQkOZaQkbciwDEN4PP/zQxtb0uzL83JPfJrAUEI3VpqfXO4Grq3YAdumllxbwAVBW68XTYKuuumpZ7aeRaC8g4gBJ/S6Cokt6GhngzKSZChZKOd/6gQs/AF37rL3hNbBHa7U7UP3eq72jio/ce/nzGhbbhbaJ9h1TDzrooMKgwtEeAAOgK664ovniiy+KxvIbA4D1zDPPNHfccUfz3nvvJfv/+JhPswEBxnu6NFVNH9q8S8v+MhzWjhYyxCnTcAYU6uF0BJrLxEFHSLxv8miz2XLibelYWtBhzDQT3w9cNFVmqMp+7rnnCi90BvSnnTWg6nDd3nGE2/Jvv48UXO3CI2A9GWPbLkwW784kW4WNRZArrLBC0XgXXXRRGS4feOCBdvbpd7aPoY0WSZ3xZ2OqNAEkQ56wOfYTTWEmCFjSWGB95ZVXptNE+wBhJgTac+GFFxbB00jSxxk2zUqBxVqVOtrgEpdFVABC+2233Ta9tqYsmsxSiW/on+2Zre2j+NaWd/t9rOBSmUboybZKDB2GijjCiCFM81gbYtdgvl+o8/M7wrTKhx9+mGwzfOUBHgAMwzC0BVzAbwUeMAxnfGAzjAFXtJvtGEsRtBB6zRh1BMC75JJLyjDKdkQHemgencPJCpMGYetihm91eDIs5p3PlgMu9ZpNSk+To412p2nR7FmS4IJaAsQgzMYIRm7bAReQGV70UkOI7ZVrr7222EHir7rqqhIGpPpRFgAadpWfnjMMyAgnNCY/XxkBX1uAvmkf8PB1HmkIPfmsvOc99LTLyTsgJtz2Q5P4ZcuWlTqBvh+wpE+94/JDWy9/7JorFWCgoY9mqofDhPV4wxp7xoxrpZVWKkPp6aefXmaONBkg1g+g0XbRLOoKMObC0JpJ8hOQstsCz7d8p90yfGpnTU9NR7ucvPcCl7xoAiRLJgBrqBYHuPyU0eXXdY8jXPOrKxzZz+kMfVeB7biocPGYZJ+udhkW2S1W9M0KGfKGQzO4d999twxBzlO1nX1BSwTKVk8YPldG1rQrg8D6gUsa7Ur6aJSUVdPSBYDk7/WNgAIumtLaHDAGxL3yia/rHkc4bezljx1cGhWACQODoSzGMyM3jiYCNsY/G8N6UNLVSxHRdmweTMR0dSyk5tKWMFUYDTSLcC/B9gJCANn+DtjqEC+sfeqQ3tMF/LoMtIzzSft7+XMGV11grwaEMSrRaL1Nz7O9knUhC4RAVTsbvRZOLYraOK6dtPKYzdX1hp46bthwyogvfwQbQdZlJh1/LpozQEjZea/9uj7xoalO0ytc5x1HuG5/V3hWcHVlqOP6EZy0Gq/HAZc8Zo7Ws+KiibwDj6O9to0MlQFh0sZn8Perfy7fQ3N8ZRB+AFCXmTRtXxpxddqucECRsvM+Kr+rzlHGtdvdfv8fcDEcQ8AgDEraXn7KUJE0AGaabWaYPboApvZ9M2TWwMt39hfDtled841vM4mwuwDWTtd+70fHqEDUq5x+9c/3e7u97fcZ4HJ+yPZJGKnyXoSLH4Y46aO9EGH5gO3V5QIqWswDYDXYrNiblg9Tf7+07fbUjAofomFSVp2mK5x0vfzZeDvIt8gpadvvveodVXxXm+u4GeAyZVxzzTWLdqFhTK+t4QjHgAyD06BhCFWZfMqyOGjPLQZ7DTJxwARUebxbFbcaT2tZthim7n5pQ5f2oTOThDDL91p4ysu3Xv4gdYaPw/qhhR85Cdfl9Kt/vt97tTvxM8BlpdkWTNZtAqxRgCsVMnyV592lh9r2agPMzDHg4tNiV199dREygM6XOe389grt33nYfNkoDu29BJfvbb9dfvu9Lm/YsLLUJ5+OaqJkZCBQ8e26xvHebm/7fQa4aK7VV1+9aKs2sKK52kwYlOhUrEJlKM+pT0McTQU4taOp2trLvpw8wK+MQeseNF1789r1OJ0htCsn7a/LzPe2X6fpCqesufp4afvo/vvvL9tjtsjIEG+BravOUca129t+nwEuNhdwRVPFD7DaancYAadijVOpMgnO2S1DHVcDTNhTay5rX2hSxjB192KoMtCFDmlsLgN0nE1059al8V37hQOGlJu2dflJ0+WnnLn66sNLhw85tip6KQa0dtU5yriu9tZxM8Blw7QGkHCeNgPmQyQClKdyKt1Vdg6Q4mpwiXPCwBIGxiX/fGiQF8D57KuLL7642HTAVd8IcnQmgqIxDT1oiIanSWkLNCnPUCqNMs2KtRN4fTMTF3bJQlvwGw+YIiYo7Eg+mxJffBOnLP+oSV3yZ1RBuzpcN+PwTP3S2CCfL3/65a+B1BWeAS6NDiMjwFGCqk0s1Y1RmMz26gUux1qcOoithqZ2WXN511aA0db0fjSw6zhhJy6kUb76CVo+5+htV5lksA1tVTkx4SChsnQGYAAqAAEYpyJoQwvAdhxcTXPKQTrAIwx3KW19Ob/m7qNTEsBOK9mXtQZol8Os3u9d2B7TISw2o8ORaydl8XQuPBkmTxeg6rgZ4NI7ME4k9NfAGqbSQdPq4ZjvcZwkvS9+tJcDg5g1yiERjdFCdgQIhnN+38QGWNQPCI7aqBtf5DP0WOCNI1yLvYbVLPoCgnNXNJH8QJchl193JLaejmambtNeOVyvpRoAU64j4E6R1E69jmfTjIPKYa7paiB1hWcF11wrHSYfAUcA7c1pwnVv75xzzikaTrmj0lrK0ngaw7AcYbst7puj2eLQQOMQPAbqfE7Nxt13330FbE58yBMHIIxt5bu9nb1RddE8fps95gCwmTzQkE6yyqte2urGG28sa4JueuOFeM6lD7QAOrChVXqHJv1wMlqHkcNc0nYBqo5bNHBFK8aGMHSwe7gwUNjBPDbNKG2tMBINtEp6v6HFpEZdDuhFgxjmCF48W8ZRZc7sjMbROQiaxrPZztFg7CZ1xSaiUYBKWRgPkDkEqQ4dzXJI1v7srQbQq622WjmMiDce5/sBl0Y11MY59IjOtHGcfg2krvCigSuNNiQKExC7pB5uMJFdMS5mEfJxxx1X5AIwbBVABji+IYYDFKBAI62T9Te2EVB5GNY6CEDQRPLSXJ5oZOUAgjZ6coVNHWw3YKR5MkRbb0sndEAQoGpwoQe4a3AxbYAUTeHxuPwuQNVxyxW4CJsBG9sE0/REvXOUw2GYTQj1b0IQMu1i+AGO+kRGbvAQnng0ok9ZBImpaPQDKMBBGzLU0a+8OJqKRlS+oVJZ7DrxgOsqHmeYcyJX5yMkvGmDyyyT5s+1O3nMFtEjfdo5Lr8GUld40cCVHhnhYAYNRSB6NAFZBojWqtOPilkMbtoEUNgrATUhcbSEeM5wh1kBi29mdOgVT2sJi1OOixbeaS4zYe1hG5mRi6Ol1a88vgkLTWS2qGyOSaD9AARkbXCpU90mPHGGdbzKiDAqXnWV0wWoOm7RwIVYTODrabQTRopjrDKO0yAEJzxK388UAZLHcObOYf0w7mmyODM5ncCuQhwAGDLNzmwZccAFtICjbe4BeGdLuZJmGQGQLGu4uGE4phm1nUEfQMsXcCmnDS52GAGmXhrScXFlSz9KXnWVVQOpHUaXOHJlYky1lyK6ChxHHKZ69LYaYOOoqy7TOlMcUGFE/aDHGX2OwM0SAYPRzUYSBzTCfOtxNBYtFc1FuwCfNJw1K+C88sory3qWOMOiZQV1A7C8XK25usCFZwBaX7vTJreNyLJu6zjCbUDV78sNuDS8C2DjYEhdJgEaggjXEEaA7cdiadKxldhFtJe1MdqOZgMmwybN4jcuMswqM2tkLppY8JQ2wx5fmc62mRAY/upZaj9woUMHcBu8tutoYlfe6raOI1yDqR1ersCl8TXA9OJxq3ZX1ix/5GY1QdUPmmgGuwNWy/mWDwCGzeS3uNhPtATmSk9rcAAbW8k35bKtgMwdAY+h0MkQ300upFG2BdfcY6yHxcTFpxXxDK/YarShvBakAXscgKrLbAOqfl/uwIXwAAywhOvGjDqcuuLXwAqw8y11e2cnGeYY72Z3mGrNibbIGhiQRQvKm3DapZyUGaHU33z3HjOh/Q2tvsnrG1BalhDWIWi1lD8uP3R3+csluMbFiK5yA5z4BFM/iY/vG6GZxcaGoqHM1ty3FObs79GGdVl1OOWFJsJJON/48tBKCbe/+U6I4vkAlwuzC6H5u0CVuAm4+vzWQi1MYcIzE6MxDG/srKziAxXAmbmxgaJx2mXU7wFUL3BJG3DV+YQBix9wCauTBkWn7yl/XH6A1OVPwDUkuAiP4Y2ZhMiGYm9ZVbfEwAbzPcsMbUC03yP02cAFKO189bu8eZcWGGthp45x+HU9vcLoWdSliHE0fC5lRkjx22UQnjiMbH/rek85bb8rbVecfNFAwnWavIeW1CFNBF2nX+gwGnQ04LKttWjrXAvd8F71RUDxe6UbND7ltP1B80sn7yDpB003SFmjSANcOgYbdaK5xnz1fa4CW95AM0w7AIy2t+W15DXXMIybpO3/OxSZwdo3nYBrOdVe/1Yg01qGxQm4JsAayLYbBugBl5MaE801AdhIAcZeBDD7sTPAZQuBQTYMUidp+9shS4lHwY/jSFMWA7MnZSM1q6xLiSGTts6/gwRUfI/zeVN+lM3Kc7YuAMzOfhJPGD9/xi8VHmYJBX4cRZpySyXbFznN6KOHFlsqjJm0czSdiJJypt+9zCm3hB0hsbLqxKXzQsKANQHYaBi+lIALO06HcFOOyLrkaV0CE9hfAMbiB7CJHTYB2DCdwx2CuCkBN1SMkW7tOnxGtQFYdtsnAJsAbFCA+d3auAIuLy57ul7uqrgbxoA1AdgEVLOByqSP6UQhOQLuuHXtpsEl0oVPGszZbImNnwBGk6lkskwxAVsbbI5au8He9W94ZoALwNwedpHAD2a4oOBKlQsFLinY6f6vPw4CepgIFgI9VptdftBL0/6k820pPfhgdDMJdHnFLSb/RqfL/R9pZdmYYicHDwAAAABJRU5ErkJggg==;" vertex="1" parent="1">
          <mxGeometry x="436.19" y="337.5" width="103.81" height="55" as="geometry" />
        </mxCell>
        <mxCell id="lMKxhEZFdJY4erHnloHR-9" value="" style="shape=image;verticalLabelPosition=bottom;labelBackgroundColor=default;verticalAlign=top;aspect=fixed;imageAspect=0;image=data:image/png,iVBORw0KGgoAAAANSUhEUgAAAHIAAACdCAMAAABfEdwYAAAA/FBMVEX////w1rfTODMzUGEAAAAjHyD35M1ta21JcouBsMTYOTTvPTrb2Nc0U2Xz2bkAHR4fHyDj4N8fGhsTHh/6374bFhf4+Pj1PjsIAAAUDhA5Wm0AAAn/7dXz3cLlzK8ZHh9DaYDr6+uNjIzLNzLZwaYgFhMoLzYwSFfCNTEqNT4yMDGpp6e9qZHIs5mcLywKHR+ZmJhBIiKoMS1rKCZ5eHglJirFxcVHREVTSkFjYWK2tLSBc2OxnohKIyMzISGikHxjWE2OLSpgJiV+KihRUFCPhHjczLc8NS9zZ1pmiJetopPHuacADhRVJCS1My9KXGZXbXg3QkhxmaoYAAABE2+LAAAVL0lEQVR4nLVce0OiThfuMpO7hAqjGBOl4V2s1QrES6WVpr/dam/f/7u85wygqGDW9p4/dsvLPJz7c4ahnZ2PiCn3m8VEb+y67jhht/sd9UPLbA9XdC1OiM41BqJxrhPuuHbH/D8BqkWXEI1REABDEb8wphPLlj8fz2w6RBdwlBPWHUxABrOuQQzEZZy4nU8GtB0fjxp08OPg4OAEBP47eBrOLMJRcb33iebNFbnOOPc0HDwJqLmcnDz9mIGu8B77LEVzTQgX8FbbQcDTZUAf9uB7l2iUkeKnIPZdotNeX1b7DhmtaHhw6gv8CKCUEjv3z4Byj+gk0VFVOUG07ychrN0VOT39DoqSxD9i5mzCAdBUO0W2UHEdzpNsecopGf8TYsfRdRc07BTHOh8GgNF4KKl8l1O99w96tnWNFGVVbibG3Phx8hYgYu5Owbb2hxFtopE+qGj3epz4Rt0IKPR0/gGzSLgFRu33Eglr6iFuVtHDLEPFIM0PIfYJQ8QmII7J1ogQQzcEyt9HukuOMOIjJojnx9Q2iKcHJwODau4HQqio86Zn1YQy21rHU1F7R5Aq7fcrafEe5IblOBa1npYQU6fx8Fj5oMNgQ3u3mjLRemOia9COtdFJOFZRjx8/TrORSp48VYhhGFD+9fdGUBP6gqYR1is2+0RouXDV04CATKLtOjUIMbDLae77EIsEvsWtdkc2VZOSHwtLHpz8sAzK4HLOI6Lp9EmfnN8MpghK3kUTmtASGNYdKDxF2yLfTxaI3wkQAKXbJTdRAZwvZ1Op7O4NdE/9PX1MJqhiR5X79hgC1iWTk7mvEHGQz4JEp0zK/7fL2fgdAZTglLsyFrpEwoMMPHnwRDV6EYO2hJyfatr2ljWheoCO/YQvLvkeYBxMDKO8VUXInhOyPStp6lAjvSLgQ84j5YQbN5HZEYHpvqO425xZwAHmYrG5YqdktiXibmpItk+TscZtsz1XMsGn+flCZDuzIuS5oWyLmNOhcoSUTOjdhWb5MGJ+Hch/o4xNTNO2pbU5QrX+wpOJHpksIJd0LA9jrJxH86co3zZ+IGC1TnGh5DiyzuxiqemGDRl647QL9s9apL8lZFGnrBOyq0siDYjMtbuoQNnBIDt/52QGakLIblfZc2OdrkBOoyAR8WQynVs2OyT+zyl44xzCLDvarmcKRMr6IUirG4EoIA+eyEWgZuo8+Fm8QwbZ7IwktkF0daooED5hyFEs5MmMzkM4T7oLyNOBUc4O+BbFIOdy2nq5VHjfTvRAPMhZFKSHWSZWkKipEfEKkyj5N8YoCxTobcwxIh5eZ3h77IB9HasXq2UKBJafkMCdqRsinJ69GYxGXWiX5SGQg7fcaROauT08esxQXQNOoDGmuTHhkypPbsrQLybavB5luYHpmIWhDwScOTTAR5ujtughHt4pMCnz7mw0hQx1oRREFLnUBCkONzgj85fODTRt6sIihI6gww2NW1hqU3L2CS1cSkdHjy3gSgOkO6cTIKS9BIkoMqkLZmhiR2Q4v57UiHO4ulT+4qIMVgd/Xl8VKFNi26ZJmJLeOzqU0BowR+JGwMkEGLttjSLqWrY86U6t7uwiVAzLTJv6fsZ/h8a19C0dz7tyrkbTr0eHR69pagDi0/ch7kFYjMbUAqA4q3Qke0F4N1QcjEdJApvpMWELjmw9Hh1C8LS0ESQ5A244Oj2ZcOpSum3Hyk64MQg+KyD3pNtCjDuBYRVuD0GObgtg1pPpoMs0MkqVgZQw42LbJpkdGXPPQ17eS3t7daowGtXFHE1JSwgp3SkEAucia7HBFCIQSLI22BIQpasFmNnZ8zeAlK7SlEdUvjah6asjRARICoED6g2zUMOy5+cX+dS2SiKz0zTD6y/Z7vMVQO5JD2Datc5papAfAnFPuiwIyAuCpqF+9G0v2bLGiEicrFWoI+ReCaJ2jdP2OM3sCUS8JjQsQIJ58pGxGiGhLRKYaJn4Wp4WSoi4J31rrRUhmXvReojvP7bIE0wgZYRMnW+JGJ7+gDRjTwHuQ4WSILcKs8wVJZWM5CmJ3jYmOII8YxBsadRlSMuYiMt9fvEhMYKW6zskSOv+yEOEoL5jLozoqcHWPkyVT0PzLtADgk00NcG09DFfIILCkDYoeeiZ1Qswcr7VPsQcZXATfD6VKo+4IbpdaiRyxFsTSlrYm6oeVhKcndam74LcHXlMC0rgBZQC5hX6FC+87gUCeRAexIpEodJcSXj7TjHmzHWrFBlZYvrLD7tQOAa7WVHYy+SytIC8aoVyM2exzPVCST+mgwpSHr6dJlBMrcFkMNUImcLoiYAXF/Diw3xJEGA3vQCyo9N06WihpLAC5RNkGtmhRp427RL6/xsGwR2C0U0eOksqWx5Z2d1R6zEECbnHaLD9lODK7WFIyT1RialBhzc3IyAHG7Z7YErPpkQK3tzcnANzFZdZnhHgl2WtVd8LrxkKIMiQb0tKwiXVaYYyIBqaZp3GQJ6egj6z6fACGFDWF9C6fNM1OLgF7Hq3t7TmQ0GzfLtCQd9bVhLeL922CuJuwdNJNKTYekrtdolhdUej2WAyHE6GqeGUEo0aMxhIppnrpTVFhOSCpKQrSnoh9pJuUdY9idkPBUQ0ampAwBQaN1Cs3RnHnRTgLUC9Mt+W1dgLLGu6DJNSWoXck6S9+zSbnsZCehNBtjywvHszlFm7AzDqFAl0dsQLqwveKVwwEhVcWV+1a+DRNBg2tEEZHmdPD3bz3e4uxmf+YjiaWoBp7U6mg3NR7Mok87CyJsasqO1NotxJ63YVUiooxo/FfmHqJsRHUuDJ7HQm2BaGTz5fLotA8irPgLdeVyFfwZmqSJHCS5RdhTwUOG6LBvGT50tjOzKAaXlO8UK9PHVhFF7WNQCKg84EVz7GQYogC8VPtjtbLn/Zc4LpHxDMOWiqq6VXlYTlboUzTYsheY1WUgQZ7jcHF3++ytuzA8KJMYUkGUwmg8Fg5nvAWMkQD/I6w8aCD6TjXCk8rs1Cm78wF68wWsDEMQFvZkKWeFeUykNIRhotjfHTIYoSHa9CSpcKC+3FpvIWXXYnuG1kaZiUGp2O/G2MEY9Scm8PmiaUWQjY21glBYMgw1AAAQlbneIxSc5BoPB5kYQ3ENJXUZCQdHpnp60XHjZAAlEqTMOb3LDeaK2FpjwJrgoqUOE2ChJDtgPlLvN4FGtX9GYBZ6JFnQVmM9tEwlJ5BytR5jpqtUvMkp62EVKCTzG+VGehqm7AzOanHIYYStNRmC+K3t4RFTYWUrq6y8BAPQmriUFqlaM30qClQxhVavsVSluXpbV1Hwp6ccfCZhkDKdWvM4q43f10Eq7tmIzDCEWhOXcNqO61L1+OQc8CXasG1wWoBRSnn2hA6RH6NBiJUSB8y5jAVLuru90QuTO8P87OvoAcg56KshK30hwyKmAl6VuhpdAKrZ3VKpTzJT1BnalBRufzERrvGZyPxI1+2mjszzHTyy1zI6T0eouAjvh2o0IZn/04OPG7RP58OByOoOBYkwtB//LlmxnlmnfogLJKQ2Bi4KbDjMuHdKIgpdJ1pkAZ3Rc2+vIFw56T7uAGJ03QkIhiQ5EdWV2QKSfcP3RQaGVaSiUZ6EmXWZ6AtFhrlS9I0n0GnFip+YBfvpw5lGoJC+86ETqlLJNOtwqKp5LBOfIQwmcDAEy/XNW/ZaiTxO+egV+W9QTI4s6YZe5XfOzZtDoHxAsWt13VfrtoJ1wt/bhXv3+gaeRj2mTU7Y5mw3L2YsrSt/UjEKje+8JAZ78RM0QtRZJAKViCBBULYFO2HwI8S+7XHMb7Hj1rkttDWPdQurpsZag2KnvN8lx7Tt8fHondBsiT/f1j/OpvBuPOYv1brD42L4SLvlS/hWofVvHseB8l2aiQXjOXy+0knr+JhQG3dJ0uaGQ0PL+4mJD0ZcmfMkovSiMJmLgIlL6QZaHg9bGsLxiD9PrSQhVrYQV9SdaqnFjFvmy16qAiCqDuvaQVzXg2jGeom8FcA1FSFd8DzAYLJUqJ4ijUJ8plyLsYNs7xOqCQWpXpHMpVaTGjHR5dXVLl7v7+sgWTlE9opPuWBwnGBcj6HBKaF+8gV8+UghAGm1IvqUTM7K8KaFoB5+wtskoCr5ZwiKpTev1wL3mQV2kfcv/YoYXFRHcFrEDdkRlNB4MnIDJ6vOTCddBGWEvoNK/3d2l84SH97SjQ8nUOWWMhfgDaMzcn6JZv7BJAOmdxGs5BG0uQpW8vFBeQXoBCeUouQdLMos7iIDQWpDK4DilNmSgbX5KxgKgnkPtQiB8eSemXw8OrTHreq8CAjaR/fUxZfBYCVuxZ2noQP7ilqAjIDYhw4a2r5W53mC7c3bV4+qok4hgNmKn5H64WQmNC/U4RW5ZA8WjdN3WGVo7fhNxfoRFgRiix44T1fHf5cH/1Wq/Xb5XgszSUImK7QPXHoCvf65CTjc2eFFd+FyahwOh50e6rqtwjvNB6JqSlKI3AlRW6KHc4BolTHLmxNnfmpeI12I2Q4My9BSRkFmmaqiyrstq3Le3nr/9+Ypf1Xam8hD5K/WFvp4ibab5l09A/trFsED9S6aFV0XqyLEPsm6rpOl9B/vz86wjMZDVcYHGzoD8f3H2SUoeG5LwJmaz6+zmS9HpHfv/6S4oqcHBLzplu9auQ3xVh2lq4jWCo+IP7DqFBZce9Wnb8ppYN4XwAfGjxX1+//tS0jrmTQA3c3x7kf8xzJbsMef12sfFT1JW7YN80LfjZl7ONkDWI/FL9/rLArT8IUOE9cyeHsRhAekomq6HGKC3s6m01BSUi7Vk2CrI2/ynpFG4vM2ml4gP8qpCOsFhu+tN/wfsgzSxopfSYYc58S9ZlBT+wYAKklUjIZNVZxHGNKQqjFW99dB3vqd7W3C8RPhXv8n4rdwu7loLNCb/PU+XVz1aA3I8seY4T8nCtWm0EOqLr/oKasq2a9D9xBU7Su8oQ1xID+eJGlEkXdfZOoY3IzASDh3RPJht//8whv/7WE7kiKZoVhPzPV3KftUKbo3fK0o5+ETcO56mJ3SQCshp+Nfk7pCSqSTtq0ZQFpBc7WNIXm6NCyfAtIRP6tK9mnSpYZ9ecWUPlQxdCK79CkF8dvQih0dFA819a4Ipl1sOcnbDYnPp8QXopiAK0ruUSZI1R9vNPWE1dze30nxexAx9ZbIpg9q3c91IZ9bsMdu5GBGSS1pa1hIj9GwK1oNLuNKH4/Pa7c7K6iFcJwjXYpVx4E3dIgzs3NCJkkziehD3cQJ5UmYP+0sfyjv1zYdZawCYlKBt4Q3H1DhTwEf+iILRYRPwkqyuQQL1Q0wD0T4X0c9Z/X/8u+EALXCUBr3+5vANeb63dqu0T/6qAhGKZfRNSUC/g/5W/v0Uy/uRjlfz57cytAipIpftLnF40joeg126Dj7nXUKDgV2pbQcKLYF6II6Hqn7/Mbvz6Wwsup9L6Vr9O4xSukXExoWvrN/dUhSmYR1CA1uInGQMZmBfsW/0Fw7bFwKxJEJhhKH1RMnjkXHdxmJEtvn5zD8peBkttvcCqy5ANXMhJrkHi4sljsTyoiqOfs18DaTSq+IuCQymxO/NoWb+HaetiAJUUpbIMWas4tSBJPB3EyrB0o1p1HIfOxaEVfBbCn6YJtUMgHbK4TxJIjmrYxYABrUBC9NEqFrwk4gAIFXoFS8eIprT9XpXzOpulOWvHdGXoKMorUIPK2TJkTVx0Q+hA8fQCJ6sidgp8DfF3xvxnIHJNu+0hFXnEjXfIFKVVemxVlkKlUfXUYZqmw2LWOFEsNvsd1cz5Ophyp2n3LEYbYAXvIErO5TYCmQniBqp1SNSZhjZg3kH7ri0KO8yyFPzlMGa5YxgvTTPyoKSqFnVv+4SJTtwmLrC+DrFC2UjmdCssNtpWEOgA8vjs+Axl3ycb0ZJT1SYRkPtAMlE94nRyZrEf/o6rRR5pAEy6BLmf9Iaxs40HJAGy72l5VvHuU7qkj9HTaRbBDd5TPEWdR57cEJjVs2UKkARNN57byalyXzCYs32GYytaFgNWTiRscLwslG3qzI08C4iYy5Ce8E3HkwCyA5l7LAqDOKPaJ/bq8h3HG4PWpcgpjYAsbDrTi5BWVXzO8YqprI9XIHOyy2Igc2MWBelsenwCIGXL61tV73a+qaB9zb7ds9sQ5/iK2tNijj/nelolArK66bi9gKx6FN0/g2JpAKl2+s1mu93GUFJVm8douQOQx2uQyQbZcAxUQAr6moR+JjiHxeWla8zJao9HHsIBSXwM0g0gvUMLLu/Ai7IKYoLAJ9QxjztwneARkPu1TYmJC7qKB8kogVlTdXUBGZKOw+NC0I6B3JAlApIJSOCbel+WTVfvq6qnI/yD+tp67OF5gKytQyb1DWcyhdkqHmSF6k0AGfME7qX2XItZvSYgQllfJZZvQWobHmxCyJ4ukgS34tudoksZ9B3ocw40gw64tO+w+EOAMKJUGrV1JhtdrTxR0W7eV4CS6KJlumNX12zoPdjdEjoja6xgLn18AIE5K6CQcBsO2wNkUUd6l0wCpDZue5/tEXxUU/RwvumRM5N4NwOqtSXMxqaQBcg2gc/XkGotxmUTXIm9nVpuYlPz25EdwpEJVKr7IU1rm3oJbvsQYCoVfBJzyYKmSJW3T5PLNiUe6MK8tajDdAtIuUNAH/gWsz74oKDZtsjcvF4oUu0tSKvXtiKO3G0tuSbxNKVViF8QJ4q6hCFtyPuxtqkwvi1Ny4skGDucamPT9ZvgL14UcRvXLbaUXH/MgydooZDFlzyEpAgJpvnnJ4c7RVFFNIj0aLY0h3RsNC//4ON6y6I2oVgmEkCkYp2ZA0gLIWV3Uy1+p+SsOOriQ7oJ3JdNxDbFD0giaqhYgsQWBRX68x4Dh3Et1mYIOe6hlv33PIX0lpibnnAEtPFYFm3xXY+UvSE9jcfaDBumK/hGxOj6cWmT+ASALOlZgl6RTb38vWJuWM2EWHUgLdtj7TO13IG+FOdMoKk2d108hrf1E0HbCBSi2GiE9OBMTNrvf6J1g3R4LBPdQVoAId0rfu5fhMhZ8WmCGcn/9Yn6CIkdZEwvPT7+oHmswKqJdcycKbLD/NSMDMR0Gadju6/mFhbMmYL/d9o9xtjnQyKtpvjcMhsniu1mpyPmx6LdG1MC6aF/YhGYixn6MyK6v7OlB39NhKzO6p8jcnsMJM77Yyk02PUS6Mxq/7/+YgoUmk6zbfdcVxxQtcTfhWnCqLNdgvwPhBryQ3UOCm8AAAAASUVORK5CYII=;" vertex="1" parent="1">
          <mxGeometry x="60" y="256.5" width="114" height="157" as="geometry" />
        </mxCell>
        <mxCell id="lMKxhEZFdJY4erHnloHR-10" value="" style="shape=image;verticalLabelPosition=bottom;labelBackgroundColor=default;verticalAlign=top;aspect=fixed;imageAspect=0;image=data:image/png,iVBORw0KGgoAAAANSUhEUgAACWAAAAjcCAQAAABtOxxfAAAABGdBTUEAALGPC/xhBQAAACBjSFJNAAB6JgAAgIQAAPoAAACA6AAAdTAAAOpgAAA6mAAAF3CculE8AAAAAmJLR0QA/4ePzL8AAAAJcEhZcwAADiwAAA4sAfmb7hAAAAAHdElNRQfiAgcWNSNoshf2AACAAElEQVR42uz9eaBed13vfX+SdKZlpswy7KRNaUvLVMDTAvdRVEAcEEXwqNz3o8+ZPPdz9Dm3FiioiKIgFlEmQVAZZZZ5OAodgM5T0jbT7kAn6Eybtmmmff8RQ5I2wx6u6/r+1lqvF/8otNnvdX2z917rd313sijvyn8NAAAAALTpXYvy6KzLIdUdAAAAALAb92TZ4tyQd1R3AAAAAMBuvT3XLUry4EznodUtAAAAAHAft2cqty5OcnveWt0CAAAAAPfz57k1WZQkOThr8rjqHgAAAADYyQ1ZmruTJUmSzdmQl1QXAQAAAMBOfj/fTbZvYCX757IsrW4CAAAAgH93ZZZnY7J9AyvZmlvyS9VVAAAAAPDv/lsu3vZ/LPrRf7Uo5+dp1V0AAAAAkOSSPC1bt/2fi3/0X87klOouAAAAAEiSnLz9+GrnDawk+WZeUN0GAAAAwOCdkeft+H92PcB6dr57n/8GAAAAACbtP+Q7O/6fxbv8T2fni9V1AAAAAAzc53c+vsr99q2OycX3OdQCAAAAgMnZmqdv//sHt7nvYdXKfLS6EQAAAIAB+/Cux1fZzZ949cSsyoHVnQAAAAAM0sYclSt2/a/u/+OCV+X91Z0AAAAADNR773t8ld3+nYOHZ10Oq24FAAAAYHDuytJ8/77/5e7+wPYb847qVgAAAAAG6K/uf3y1+w2s5EGZzsOqewEAAAAYlNsyldvu/18v2e0/fG+SF1YXAwAAADAob8i/7e6/XrSHf/ygrMnjq5sBAAAAGIzrsyx37+5/WLKHf2Fz7spLq6sBAAAAGIzfy9m7/x8W7fFfWZKVWV7dDQAAAMAgrMnR2bz7/2nJHv+lmdycl1eXAwAAADAI/zUr9/Q/LdrLv7Yo5+Xp1e0AAAAA9N75eVZm9vQ/Lt7LvziT11W3AwAAADAAr9nz8dXeN7CS5F/zH6v7AQAAAOi10/P8vf3P+zrAOiFn7fOfAQAAAID5+/F8d2//8+J9/Ovn5PPVVwAAAABAj31m78dX+97ASpZnRfarvg4AAAAAemlLnprL9v6P7GsDK1mVj1RfBwAAAAA99U/7Or6azQZW8oSszoHV1wIAAABA72zM8ly5r39o3xtYydV5b/W1AAAAANBD79z38dXsNrCSR2Q6h1VfDwAAAAC9sj5TuXHf/9hsNrCSm/L26usBAAAAoGfeNpvjq9luYCWHZV0Or74mAAAAAHrj5kzljtn8g0tm+QtuzEx+qvqqAAAAAOiN1+W02f2Ds93ASg7Kmjy++roAAAAA6IXv5YjcO7t/dLYbWMnm3Jmfq74yAAAAAHrhd3PebP/R2W9gJUuyIkdVXxsAAAAAnbc6x2TzbP/h2f0thNtsyRuqrw0AAACAHnjN7I+v5raBlSzKd/Ps6usDAAAAoNPOzbMzM/t/fC4bWMlMXl99fQAAAAB03Gvmcnw11wOs5Bv51+orBAAAAKDDvj7X86W5/QhhkjwrZ8/j3wIAAACAZCbPzdlz+1fmuoGVnJvPVl8nAAAAAB31qbkeX81nAys5MiuzX/W1AgAAANA5W3JsLp/rvzT3DaxkdT5Ufa0AAAAAdNAH5n58Nb8NrOSxWZuDq68XAAAAgE7ZkCNyzdz/tflsYCXX5T3V1wsAAABAx/ztfI6v5ruBlTw803lg9TUDAAAA0Bk/zFRumc+/OL8NrOTmnFp9zQAAAAB0yF/O7/hq/htYyaFZl0dWXzcAAAAAnXBTpnLn/P7VJfP+oBuzOT9TfeUAAAAAdMJrcsZ8/9X5b2AlB2RVnlR97QAAAAA076osz73z/Zfnv4GVbMkd+fnqqwcAAACgef93Lpj/v7yQDaxkSS7JU6qvHwAAAICmrcxx2Tr/f32+fwvhNlvy+urrBwAAAKBxr1vI8dVCN7CS5Dt5bvVrAAAAAECzzslzMrOQX2BhG1hJcnL1awAAAABAw05e2PHVKA6wTs83ql8FAAAAABr1lXxzob/Ewn+EMHlGzh3JrwMAAABAv8zkmQv5+we3WfgGVnJ+Pl39WgAAAADQoI8v/PhqNBtYyRG5NPsVvxwAAAAAtGVzjsnqhf8yo9jAStbkH2pfDQAAAACa8/5RHF+NagMreUzW5eDClwMAAACAttyTI3LtKH6h0WxgJdfnXYUvBwAAAACt+evRHF+NbgMreVim86CilwMAAACAttyeqdw6ml9qVBtYyS15W9HLAQAAAEBr/mJUx1ej3MBKDs26PLLg5QAAAACgLTdkWe4a1S+2ZIRhG7MxLyp4QQAAAABoyx/kO6P7xUa5gZUckMvz5Am/HAAAAAC05cosz8bR/XKj3MBKtuT2/OKEXxAAAAAA2vI7uWiUv9xoN7CSxbkgx03u1QAAAACgMStyfLaO8hcc7QZWMpMb8qsTfEEAAAAAaMv/lTWj/QVHvYGVJN/Oj0/kxQAAAACgNWfmpFH/kovHkHnyBF4KAAAAAFp0yuh/yXEcYJ2Rr479pQAAAACgPV/IaaP/RcfxI4TJU3PhWI7GAAAAAGjX1jxjtH//4DbjOWa6JJ8c76sBAAAAQHM+Oo7jq3FtYCXLcmn2H9+rAQAAAEBjNuWoTI/jFx7XD/qtzQfH+HIAAAAA0Jr3juf4anwbWMljsjaHjO1XBwAAAKAld2Vpvj+eX3p8f9T69fnbsf3aAAAAALTl7eM6vhrnBlby4FyRh4zx1wcAAACgDbdlKreN6xcf3wZWcnveNsZfHQAAAIBWvHl8x1fj3cBKHpB1edRYPwIAAAAA1a7Pstw9vl9+yVjjN2VDXjzWjwAAAABAtf+Vs8b5y493AyvZP5dnaswfAwAAAIA6a3N0No3zA4x3AyvZmlvzsjF/DAAAAADq/LesGO8HGPcGVrI45+f4sX8UAAAAACpcnKdn63g/xLg3sJKZXJ9Xjv2jAAAAAFDh1Vk37g8x/g2sJPlWnj+RjwMAAADAJJ0+iVOfyRxgnZgzJvJxAAAAAJikH893x/9BFk/kUs7MlyfycQAAAACYnM9N4vhqUhtYybG5aEKHZQAAAABMwpYcl0sn8YEmdai0Ih+f0EcCAAAAYBI+NJnjq8ltYCVPyqocMLGPBgAAAMA4bcxRuWIyH2pyP9Z3Zf5+Yh8LAAAAgPF696SOrya5gZU8OmvzgAl+PAAAAADGY32W5geT+mCT/IPVb8jfTPCjAQAAADAub5vc8dVkN7CSB2c6D53oRwQAAABg1G7OVO6Y3IdbMtGL25DF+cmJfkQAAAAARu2UnDbJDzfZDazk4KzJ4yb8MQEAAAAYneuyLPdM8gNOdgMr2ZwNecmEPyYAAAAAo/O7OXeyH3DSG1jJ/rksSyf+UQEAAAAYhTU5Opsn+yEnvYGVbM3N+aWJf1QAAAAARuE/59JJf8jJb2Ali3J+nlbwcQEAAABYmPNyQmYm/UEXF1zoTE4p+KgAAAAALNTJkz++qtnASpJv5gVFHxkAAACA+fnfeWHFh606wHp2vlv2sQEAAACYu5n8eM6q+MAVP0KYJGfni0UfGQAAAID5+HTN8VXdBlZyTC4uOz4DAAAAYG625NhcXvOh646QVuajZR8bAAAAgLn5h6rjq8oNrOSJWZUDCz8+AAAAALOzIUfme1UfvPKH+K7K+wo/OgAAAACz9c6646vaDazkEZnOYaUFAAAAAOzLnVmaG+s+fO0fo35T3lH68QEAAADYt7dWHl9Vb2AlD8p0HlbcAAAAAMCe3ZSp3FkZsKT4Bbg3M3lhcQMAAAAAe/banFEbUL2BlRyUNXl8dQQAAAAAu3V1jsy9tQnVG1jJ5tyVl1ZHAAAAALBb/zPnVyfUb2AlS7Iyy6sjAAAAALifVTk2m6sj6jewkpncnJdXRwAAAABwP7+Vy6sT2tjAShbl3DyjOgIAAACAXZyT52SmOiJZXB2QJJnJ66oTAAAAALiP17RwfNXKAVbytfxbdQIAAAAAO/lqK+c1bfwIYZKckLMaqgEAAAAYtpk8MxdUR2zTygZWck4+X50AAAAAwL/7RCvHVy1tYCXLsyL7VUcAAAAAkC05JquqI7ZrZwMrWZWPVCcAAAAAkOT97RxftbWBlTwhq3NgdQQAAADAwG3IslxbHbFDSxtYydV5b3UCAAAAwOC9o6Xjq9Y2sJJHZDqHVUcAAAAADNgPM5VbqiN21tYGVnJTTq1OAAAAABi0t7R1fNXeBlZyaKZzeHUEAAAAwEDdmKW5szpiV0uqA+5nY2byU9URAAAAAAP1+/l2dcJ9tbeBlRyU1fmx6ggAAACAAboqR2ZjdcR9tbeBlWzOnfm56ggAAACAAfqdXFSdcH8tbmAlS7IiR1VHAAAAAAzMihyfrdUR99fiBlYykx/kV6ojAAAAAAbmt7K6OmF32tzAShblu3l2dQQAAADAgHw7J1Yn7N7i6oA9mMnrqxMAAAAABuWU6oA9afUAK/lG/rU6AQAAAGAwvpRvVSfsSas/Qpgkz8w5TfcBAAAA9MXWPDMXVkfsSbsbWMl5+Wx1AgAAAMAgfKzd46u2N7CSI7My+1VHAAAAAPTcphyV6eqIPWt5AytZnQ9VJwAAAAD03vtaPr5qfQMreWzW5uDqCAAAAIAeuyfLcl11xN60vYGVXJf3VCcAAAAA9NqpbR9ftb+BlTw803lgdQQAAABAT92eqdxaHbF3rW9gJTfn1OoEAAAAgN56c+vHV13YwEoOzbo8sjoCAAAAoIduyNLcXR2xL0uqA2ZhYzbnZ6ojAAAAAHro/8lZ1Qn71oUNrOSArMqTqiMAAAAAemZtjs6m6oh968IGVrIld+TnqyMAAAAAeua/55LqhNnoxgZWsiQX5+jqCAAAAIAeuSRPy9bqiNnoxgZWMpMb8orqCAAAAIAeeXXWVifMTlc2sJLkO3ludQIAAABAT5yR51UnzNbi6oA5OLk6AAAAAKA3OnTS0qUDrNPzjeoEAAAAgF74l3ynOmH2uvQjhMkzcm7HigEAAADaszVPz8XVEbPXpQ2s5Px8qjoBAAAAoPM+3KXjq65tYCVH5NLsVx0BAAAA0GEbc1SuqI6Yi25tYCVr8g/VCQAAAACd9p5uHV91bwMreUzW5pDqCAAAAICOWp+l+UF1xNx0bQMruT7vrk4AAAAA6KxTu3Z81cUNrOQhmc5DqiMAAAAAOuiWTOWH1RFz1b0NrOS2nFqdAAAAANBJb+7e8VU3N7CSB2Q6j6yOAAAAAOiY67Is91RHzN2S6oB52ZSNeVF1BAAAAEDH/F7OqU6Yj25uYCUH5PI8uToCAAAAoEPW5Ohsro6Yj25uYCVbcnt+sToCAAAAoEP+S1ZWJ8xPVzewksW5IMdVRwAAAAB0xPl5VmaqI+anqxtYyUxuyK9WRwAAAAB0xKszXZ0wX93dwEqSb+fHqxMAAAAAOuC0vKA6Yf66fYB1Uk6vTgAAAADogOfmrOqE+VtcHbAgZ+Sr1QkAAAAAzftMl4+vur6BlTw1F3b8EA4AAABgvLbkqbmsOmIhun74c0k+WZ0AAAAA0LR/7PbxVfc3sJJluTT7V0cAAAAANGpjlufK6oiF6foGVrI2H6hOAAAAAGjWO7t+fNWHDazk0VmXQ6ojAAAAABq0PlO5sTpiobq/gZXckL+tTgAAAABo0l92//iqHxtYyYMznYdWRwAAAAA05uZM5Y7qiIVbUh0wEhuyX36iOgIAAACgMa/N6dUJo9CPDazk4KzNY6sjAAAAABpydY7MvdURo9CPDaxkc+7Ni6sjAAAAABryuzm/OmE0+rKBleyfyzNVHQEAAADQiNU5JpurI0ajLxtYydbcmpdVRwAAAAA04rdzWXXCqPRnAytZnPNzfHUEAAAAQAPOzbMzUx0xKv3ZwEpmcl1eVR0BAAAA0IDfyJXVCaPTpw2sJPlWnl+dAAAAAFDs6/np6oRR6tsB1ok5ozoBAAAAoNRMnpuzqyNGaXF1wIidmS9XJwAAAACU+mS/jq/6t4GVHJuLencsBwAAADBbW3JsLq+OGK3+HfWsyMerEwAAAADKfKBvx1d93MBKnpRVOaA6AgAAAKDAhhyRa6ojRq1/G1jJlfn76gQAAACAEn/Tv+Orfm5gJY/O2jygOgIAAABgwn6YqdxSHTF6fdzASm7IO6oTAAAAACburX08vurrBlby4EznodURAAAAABN0U6ZyZ3XEOCypDhiTDVmcn6yOAAAAAJigk3NmdcJ49HUDKzk4a/K46ggAAACACbkqy3NvdcR49HUDK9mce/Kz1REAAAAAE/I/cmF1wrj0dwMr2S8rc2R1BAAAAMAErMxx2VodMS793cBKtuaW/FJ1BAAAAMAE/FZWVyeMT583sJJFOT9Pq44AAAAAGLOz89zMVEeMT583sJLkmvxadQIAAADAmP16rqpOGKfF1QFj9uV8szoBAAAAYKy+nG9VJ4xXv3+EMElOyFkDuEoAAABgqGbyjP7+/YPb9H0DKzknX6xOAAAAABibj/f9+GoIG1jJMbl4AAd1AAAAwBBtylOyrjpi3IZwsLMyH61OAAAAABiL9/f/+GoYG1jJE7MqB1ZHAAAAAIzYPTki11ZHjN8QNrCSq/K+6gQAAACAkfvrIRxfDWUDK3lEpnNYdQQAAADACN2eqdxaHTEJw9jASm7KO6oTAAAAAEbqL4ZxfDWcDazkQZnOw6ojAAAAAEbkhizN3dURk7GkOmBi7s1MXlgdAQAAADAiv5/vVidMynA2sJKDsiaPr44AAAAAGIErszwbqyMmZTgbWMnm3JWXVkcAAAAAjMB/z8XVCZMzpA2sZElW5KjqCAAAAIAFuiRPy9bqiMkZ0gZWMpOb8svVEQAAAAAL9H9mbXXCJA1rAytZlHPzjOoIAAAAgAU4MydVJ0zWsDawkuTq/KfqBAAAAIAFeFWuqU6YrMXVARP3tfxbdQIAAADAvH0h365OmLSh/QhhkpyQswZ53QAAAED3bc0zclF1xKQNbwMrOSf/Up0AAAAAMC8fGd7x1TA3sJIjszL7VUcAAAAAzNGmHJXp6ojJG+IGVrI6H6lOAAAAAJiz9w7x+GqoG1jJE7I6B1ZHAAAAAMzBXVma71dHVBjmBlZydd5bnQAAAAAwJ6cO8/hquBtYySMyncOqIwAAAABm6bZM5bbqiBpD3cBKbsqp1QkAAAAAs/ZnQz2+GvIGVnJopnN4dQQAAADALFyfZbm7OqLKkuqAQhszk5+qjgAAAACYhf9/zq5OqDPkDazkoKzOj1VHAAAAAOzDmhydzdURdYa8gZVszp35ueoIAAAAgH34r1lZnVBp2BtYyZKsyFHVEQAAAAB7cXGenq3VEZWGvYGVzOQH+ZXqCAAAAIC9+M2sq06oNfQNrGRRvpPnVEcAAAAA7MHpeX51QrWhb2AlydX5jeoEAAAAgD14Za6tTqi2uDqgAf87/1qdAAAAALBbn813qxPq+RHCJHlmzvFKAAAAAM3ZkuNyaXVEPRtYSXJePludAAAAAHA/H3J8ldjA2u7IrMx+1REAAAAAO9mYo3JFdUQLbGBtszr/VJ0AAAAAsIt3Ob7axgbWdo/N2hxcHQEAAADw79ZnaX5QHdEGG1jbXZf3VCcAAAAA/MjbHF9tZwNrh4dnOg+sjgAAAABIcnOmckd1RCuWVAc05O4cmBdURwAAAAAkOSWnVSe0wwbWzg7NujyyOgIAAAAYvOuyLPdUR7TDBtbONmZzfqY6AgAAABi8/5lzqxNaYgNrVwdkVZ5UHQEAAAAM2uock83VES2xgbWrLbkjP18dAQAAAAzaf86l1QltsYF1X0tycY6ujgAAAAAG69w8OzPVEW2xgXVfM7khr6iOAAAAAAbrN3NFdUJrbGDtznfy3OoEAAAAYJC+kZ+qTmiPA6zdeV5Oq04AAAAABmgmz83Z1RHtWVwd0KTT8/XqBAAAAGCAPu34andsYO3eM3Ku1wYAAACYqC05NpdXR7TIBtbunZ9PVScAAAAAA/NBx1e7Z8toT47IpdmvOgIAAAAYjA05ItdUR7TJBtaerMk/VCcAAAAAA/JOx1d7YgNrzx6TtTmkOgIAAAAYhDuzNDdWR7TKBtaeXZ93VScAAAAAA/FWx1d7ZgNrbx6S6TykOgIAAADovZsylTurI9q1pDqgaRtyQP6P6ggAAACg916TM6oTWmYDa+8ekHV5VHUEAAAA0GtX58jcWx3RMhtYe7cpG/Oi6ggAAACg1/5/uaA6oW02sPblgFyeJ1dHAAAAAL21MsdnS3VE22xg7cuW3J5frI4AAAAAeuu3s6o6oXU2sPZtcS7IcdURAAAAQC+dk+dkpjqidTaw9m0mN+RXqyMAAACAXvr1XFmd0D4bWLPz7fx4dQIAAADQO1/Ji6sTusAB1uyclNOrEwAAAICemckz/f2Ds7G4OqAjzshXqxMAAACAnvlnx1ezYwNrtp6aCx33AQAAACOzOcf6+wdnx5HMbF2ST1QnAAAAAD3y946vZssG1uwty6XZvzoCAAAA6IUNWZZrqyO6wgbW7K3NB6oTAAAAgJ74a8dXs2cDay4enXU5pDoCAAAA6LzbM5VbqyO6wwbWXNyQv61OAAAAAHrgLY6v5sIG1tw8ONN5aHUEAAAA0Gk3ZFnuqo7okiXVAR2zIfvlJ6ojAAAAgE47Od+pTugWG1hzdXDW5rHVEQAAAEBnXZnl2Vgd0S02sOZqc+7Ni6sjAAAAgM76nVxUndA1NrDmbv9cnqnqCAAAAKCTVuT4bK2O6BobWHO3NbfkZdURAAAAQCf9f7KmOqF7bGDNx+Kcn+OrIwAAAIDOOTMnVSd0kQ2s+ZjJdXlVdQQAAADQOb+Rq6sTumhxdUBHfTGnVScAAAAAHeM8YZ78COF8nZgzqhMAAACADtmaZ/j7B+fHBtZ8nZkvVScAAAAAHfJRx1fzZQNr/o7NRQ4AAQAAgFnZlKMyXR3RVQ5g5m9FPl6dAAAAAHTE3zm+mj8bWAvxpKzKAdURAAAAQPPuybJcVx3RXTawFuLK/H11AgAAANABpzq+WggbWAvz6KzNA6ojAAAAgKbdnqncWh3RZTawFuaGvKM6AQAAAGjcmx1fLYwNrIV6cKbz0OoIAAAAoFnXZ1nuro7otiXVAZ23IYvyk9URAAAAQLP+V86qTug6G1gLd3DW5HHVEQAAAECT1ubobKqO6DobWAu3OffkZ6sjAAAAgCb991xSndB9NrBGYb+szJHVEQAAAEBzLs7Ts7U6ovtsYI3C1tySX6qOAAAAAJrz6qyrTugDG1ijsSjn5enVEQAAAEBTzsjzqhP6wQbWqFyTX6tOAAAAAJryqlxTndAPi6sDeuMr+WZ1AgAAANCQz+U71Ql94UcIR+eEnOX1BAAAAJIkW/P0XFwd0Rc2sEbnnHyxOgEAAABoxIccX42OjaFROiYXOxIEAAAAsjFH5YrqiP5w3DJKK/OR6gQAAACgAe9xfDVKNrBG64lZlQOrIwAAAIBS67M0P6iO6BMbWKN1Vd5XnQAAAAAU+yvHV6NlA2vUHpHpHFYdAQAAAJS5OVO5ozqiX2xgjdpNeUd1AgAAAFDozY6vRs0G1ug9KNN5WHUEAAAAUOK6LMs91RF9s6Q6oIfuzUxeWB0BAAAAlPi9nFOd0D82sMbhoKzJ46sjAAAAgIlbk6OzuTqif2xgjcPmrM9LqyMAAACAifvPubQ6oY9sYI3HkqzIUdURAAAAwESdlxMyUx3RRzawxmMmN+WXqyMAAACAifrNXFGd0E82sMZlUc7KCdURAAAAwMSclhdUJ/SVDazxuSb/qToBAAAAmJhX5trqhL5aXB3QY1/Lv1UnAAAAABPy6ZxVndBffoRwnJ6Vs73CAAAAMABb8tRcVh3RXzawxunc/Et1AgAAADAB/+D4apzsB43XkVmZ/aojAAAAgLHakCPzveqIPrOBNV6r85HqBAAAAGDM3uX4arxsYI3bE7I6B1ZHAAAAAGOzPlO5sTqi32xgjdvVeU91AgAAADBGb3V8NW42sMbv4bkih1VHAAAAAGNxc6ZyR3VE3y2pDhiAu3NQnl8dAQAAAIzFa3N6dUL/2cCahEMzncOrIwAAAICRuzpH5t7qiP6zgTUJG7M1P10dAQAAAIzc/8z51QlDYANrMg7K6vxYdQQAAAAwUqtzTDZXRwyBDazJ2Jw783PVEQAAAMBI/XYuq04YBhtYk7IkK3JUdQQAAAAwMufkOZmpjhgGG1iTMpMf5FeqIwAAAICR+Y1cWZ0wFDawJmdRvpPnVEcAAAAAI/G1/Ex1wnA4wJqk5+db1QkAAADACMzkWf7+wclZXB0wKKflX6sTAAAAgBH4hOOrSbKBNVnPzDlecwAAAOi4LTkmq6ojhsQG1mSdl89UJwAAAAAL9PeOrybLNtCkHZFLs191BAAAADBvG3JErqmOGBYbWJO2Jv9UnQAAAAAswDscX02aDazJe2zW5uDqCAAAAGBefpip3FIdMTQ2sCbvurynOgEAAACYp7c6vpo8G1gVHp7pPLA6AgAAAJizG7M0d1ZHDM+S6oBBujsH5gXVEQAAAMCc/UHOrE4YIhtYNQ7NujyyOgIAAACYk6uyPPdWRwyRDawaG7M5P1MdAQAAAMzJ/8iF1QnDZAOrygG5PE+ujgAAAABmbUWOz9bqiGGygVVlS+7IL1RHAAAAALP2W1ldnTBUNrDqLMnFObo6AgAAAJiVs/PczFRHDJUNrDozuSGvqI4AAAAAZuXXc1V1wnDZwKr1nTy3OgEAAADYpy/lZ6sThswBVq3n5bTqBAAAAGAfZvIMf/9gpcXVAQN3er5enQAAAADsw8ccX9WygVXtGTnXFAAAAKBhm/KUrKuOGDYbWNXOz6eqEwAAAIC9eJ/jq2p2f+odkUuzX3UEAAAAsFv3ZFmuq44YOhtY9dbkg9UJAAAAwB683fFVPRtYLXhM1uaQ6ggAAADgfm7PVG6tjsAGVguuz7uqEwAAAIDd+HPHVy2wgdWGh2Q6D6mOAAAAAHZxQ5bm7uoIkiXVASRJNmT//MfqCAAAAGAXv5/vVieQ2MBqxwOyLo+qjgAAAAB+5Mosz8bqCBIbWO3YlI15UXUEAAAA8CP/LRdXJ7CNDax27J9VeXJ1BAAAAJAkuSRPy9bqCLaxgdWOrbk9v1gdAQAAACRJ/s+srU5gOxtYLVmcC3JcdQQAAACQM/K86gR2sIHVkplcn1dWRwAAAAB5Va6pTmCHxdUB7OLz+U51AgAAAAye5/PG+BHC1pyU06sTAAAAYNC25un+/sG22MBqzRn5anUCAAAADNqHHV+1xgZWe56aCx0sAgAAQJFNWZ4rqiPYlYOS9lyST1QnAAAAwGC9x/FVe2xgtWhZLs3+1REAAAAwQHdlab5fHcF92cBq0dp8oDoBAAAABumvHF+1yAZWmx6ddTmkOgIAAAAG5rZM5bbqCO7PBlabbsjfVCcAAADA4PyZ46s22cBq1YMznYdWRwAAAMCAXJ9lubs6gt1ZUh3AHmzIfvmJ6ggAAAAYkN/L2dUJ7J4NrHYdnLV5bHUEAAAADMSaHJ3N1RHsng2sdm3OhrykOgIAAAAG4r9mZXUCe2IDq2X75/JMVUcAAADAAJyfZ2WmOoI9sYHVsq25JS+rjgAAAIABeHWmqxPYMxtYbVuc83N8dQQAAAD03Ol5fnUCe2MDq20zuS6vqo4AAACAnntlrq1OYG8WVwewD1/Mt6oTAAAAoNc+k+9WJ7B3foSwfSfmjOoEAAAA6K0teWouq45g72xgte/MfKk6AQAAAHrrnxxftc8GVhccm4scNQIAAMAYbMzyXFkdwb44FumCFfl4dQIAAAD00jsdX3WBDaxueFJW5YDqCAAAAOiZ9ZnKjdUR7JsNrG64Mu+vTgAAAIDeeZvjq26wgdUVj87aPKA6AgAAAHrk5kzljuoIZmNJdQCztD6H5qTqCAAAAOiR1+W06gRmxwZWdzw403lodQQAAAD0xPdyRO6tjmB2bGB1x4Ysyk9WRwAAAEBP/G7Oq05gtmxgdclBWZvHVUcAAABAD6zOMdlcHcFs2cDqks25Jz9bHQEAAAA98P/NZdUJzJ4NrG7ZLyuyvDoCAAAAOu7cPDsz1RHMng2sbtmaW/Ly6ggAAADouN/MFdUJzIUNrK5ZlPPy9OoIAAAA6LCv56erE5gbG1jdc01+rToBAAAAOmsm/ynXVUcwN4urA5izr+Sb1QkAAADQWZ/K2dUJzJUfIeyiE3KWyQEAAMA8bMmxubw6grmygdVF5+QL1QkAAADQSR9wfNVF9ni66Zhc7PARAAAA5mhDjsg11RHMnUOQblqZj1QnAAAAQOf8reOrbrKB1VVPzKocWB0BAAAAHXJnlubG6gjmwwZWV12V91UnAAAAQKe8xfFVV9nA6q5HZDqHVUcAAABAR9yUqdxZHcH8LKkOYN7uziF5XnUEAAAAdMRrckZ1AvNlA6vLHpTpPKw6AgAAADrgqizPvdURzJcNrC67NzN5YXUEAAAAdMD/nQuqE5g/G1jddlDW5PHVEQAAANC4lTk+W6ojmD8bWN22Oevz0uoIAAAAaNxvZ1V1AgthA6vrlmRFjqqOAAAAgIadk+dkpjqChbCB1XUzuSm/XB0BAAAADfv1XFmdwMLYwOq+Rflunl0dAQAAAI36Sl5cncBC2cDqg+/l16sTAAAAoEkz+dXcUB3BQi2uDmAEvp5/q04AAACAJn08F1QnsHB+hLAfnpWzzRIAAADuY3OOyerqCBbOBlY/nJt/qU4AAACA5rzf8VU/2NrpiyOzMvtVRwAAAEBD7skRubY6glGwgdUXq/Ph6gQAAABoyl87vuoLG1j98YSszoHVEQAAANCI2zOVW6sjGA0bWP1xdd5TnQAAAADNeIvjq/6wgdUnD890HlgdAQAAAA24IctyV3UEo7KkOoARujsH5/nVEQAAANCAP8h3qhMYHRtY/XJopnN4dQQAAAAUuzLLs7E6gtGxgdUvG7M1P10dAQAAAMV+JxdVJzBKNrD65qCszo9VRwAAAEChFTk+W6sjGCUbWH2zOXfm56ojAAAAoND/lTXVCYyWDaz+WZJL8pTqCAAAAChyZk6qTmDUbGD1z0x+kF+pjgAAAIAiv5GrqxMYNRtYfbQo38lzqiMAAACgwBf8wTp95ACrn56fb1UnAAAAwMRtzTP8/YN9tLg6gLE4Lf9anQAAAAAT91HHV/1kA6uvnplzTBcAAIBB2ZSjMl0dwTjYwOqr8/KZ6gQAAACYqPc6vuorOzr9dUQuzX7VEQAAADAhd2Vpvl8dwXjYwOqvNfmn6gQAAACYmLc7vuovG1h99tiszcHVEQAAADABt2Uqt1VHMC42sPrsury7OgEAAAAm4s2Or/rMBla/PTzTeWB1BAAAAIzZ9VmWu6sjGJ8l1QGM1d05MC+ojgAAAIAx+185qzqBcbKB1XeHZl0eWR0BAAAAY7Q2R2dTdQTjZAOr7zZmU36mOgIAAADG6L9lRXUC42UDq/8OyOV5cnUEAAAAjMnFeXq2VkcwXjaw+m9L7sgvVEcAAADAmLw666oTGDcbWEOwJBfn6OoIAAAAGIPT8/zqBMbPBtYQzOSGvKI6AgAAAMbglbm2OoHxW1wdwER8Nt+tTgAAAICR+5zn3WHwI4RD8bycVp0AAAAAI7Ulx+XS6ggmwQbWUJyer1cnAAAAwEh9yPHVUNjAGo7jcoEDSwAAAHpjY47KFdURTIYDjeG4OJ+uTgAAAICRebfjq+GwgTUkR+TS7FcdAQAAACOwPkvzg+oIJsUG1pCsyQerEwAAAGAk3ub4akhsYA3LY7I2h1RHAAAAwALdnKncUR3B5NjAGpbr867qBAAAAFiwNzu+GhYbWEPzkEznIdURAAAAsADXZVnuqY5gkpZUBzBhG7J//mN1BAAAACzA7+bc6gQmywbW8Dwg6/Ko6ggAAACYpzU5OpurI5gsG1jDsykb86LqCAAAAJin/5xLqxOYNBtYQ7R/Ls9UdQQAAADMw3k5ITPVEUyaDawh2prb8ovVEQAAADAPv5ErqhOYPBtYw7Q4F+S46ggAAACYo9PyguoEKtjAGqaZXJ9XVkcAAADAnMzklbm2OoIKi6sDKPL5fKc6AQAAAObk0zmrOoEafoRwuE7K6dUJAAAAMGtbcmwur46ghg2s4TojX6lOAAAAgFn7B8dXw2UDa8iemgsdYQIAANAJG3JkvlcdQRXHF0N2ST5RnQAAAACz8k7HV0NmA2vYnpRVOaA6AgAAAPZhfaZyY3UEdWxgDduV+WB1AgAAAOzTWx1fDZsNrKF7dNblkOoIAAAA2IubMpU7qyOotKQ6gGLr88CcWB0BAAAAe/HanFGdQC0bWDw403lodQQAAADswdU5MvdWR1DLBhYbsl9+ojoCAAAA9uB/5vzqBKrZwCI5OGvz2OoIAAAA2I1VOTabqyOoZgOLZHM25CXVEQAAALAbv5XLqxOoZwOLJNk/l2eqOgIAAADu45w8JzPVEdSzgUWSbM0teVl1BAAAANzHb+TK6gRaYAOLbRbnvDytOgIAAAB28tW8qDqBNtjAYpuZXJtXVUcAAADAj8zkV3NDdQRtWFwdQDO+lG9VJwAAAMCPfCIXVCfQCj9CyA4n5ozqBAAAAEiSbMkxWVUdQStsYLHDmflSdQIAAAAkSd7v+IodbGCxs2NzkUNNAAAAym3IslxbHUE7HFawsxX5WHUCAAAA5B2Or9iZDSx29cSszgHVEQAAAAzaDzOVW6ojaIkNLHZ1Vd5fnQAAAMDAvcXxFbuygcV9PTpr84DqCAAAAAbrxizNndURtGVJdQDNWZ9Dc1J1BAAAAIP1BzmzOoHW2MDi/h6c6Ty0OgIAAIBBuipHZmN1BK2xgcX9bcii/GR1BAAAAIP0O7moOoH22MBidw7K2jyuOgIAAIDBWZHjs7U6gvbYwGJ3Nuee/Gx1BAAAAIPzW1ldnUCLbGCxe/tlRZZXRwAAADAo386J1Qm0yQYWu7c1t+Tl1REAAAAMym/mquoE2mQDiz1ZlPPy9OoIAAAABuNL/jAb9sQGFnt2TX6tOgEAAICB2JpX5vvVEbRqcXUADftKvlmdAAAAwEB8LBdWJ9AuP0LI3pyQs/weAQAAYOw25ahMV0fQLhtY7M05+UJ1AgAAAAPwPsdX7I3tGvbumFzkT0oDAABgrO7JslxXHUHLbGCxdyvz0eoEAAAAeu5Ux1fsnQ0s9uWJWZUDqyMAAADordszlVurI2ibDSz25ar8XXUCAAAAPfbnjq/YFxtY7NsjMp3DqiMAAADopRuyNHdXR9A6fzw3+3Z3DsnzqiMAAADopf8nZ1Un0D4bWMzGgzKdh1VHAAAA0Dtrc3Q2VUfQPhtYzMa92Zqfqo4AAACgd34nl1Qn0AU2sJidg7Imj6+OAAAAoFcuydOytTqCLrCBxexszvq8tDoCAACAXnl11lYn0A02sJitJVmRo6ojAAAA6I0z/IVhzJYNLGZrJjfll6sjAAAA6I1X5ZrqBLrCBhaztyjfzbOrIwAAAOiFf8kvVCfQHTawmIvv5derEwAAAOiBrXllflAdQXcsrg6gU76ef6tOAAAAoAc+nIurE+gSP0LI3DwrZ/tdAwAAwIJszFG5ojqCLrGBxdycm89VJwAAANBx73F8xdzYpWGujszK7FcdAQAAQGfdlSl//hVzYwOLuVqdD1cnAAAA0GF/5fiKubKBxdw9IatzYHUEAAAAnXRbpnJbdQRdYwOLubs676lOAGBPZmb9HyqYRkt8tgAU+VPHV8ydDSzm4+GZzgOrIwDYYWEP2G4Hxmk+szGRcfLZAlDs+izNPdURdI8NLObj5pxanQBAkhHth9gyGb2F7e7Y/BkHny0AjfhDx1fMhzeRmJ9DM53DqyMAhmx8D9BuDhZmHJMxk4Xx2QLQkDU5OpurI+giG1jMz/r8RXUCwFCNe//Dfsl8je+VM5P589kC0JjXOb5ifrxtxHwdlNX5seoIgKGZ7KOy24TZm9RkzGT2fLYANOj8PMvJP/NjA4v52pA/rk4AGJbJb3rYLZmdSb5ONn5mx2cLQKNe48sl8+XNIuZvSS7JU6ojAIah9l7P7cKeVM7FVPbEZwtAs07LC6oT6C4bWMzflryhOgFgCOo3O+oL2lT7qpjJ7tT/Xq0vAGjYydUBdJk3iViY7+Y51QkAfdbWo7Dbhh1amYyZ7KyVqSQmA7Abn8kvVSfQZb63sjDPz7eqEwD6q6XH8W3cOCTtzcVUkvamYi4A97ElT81l1RF0mR8hZGFOy/+uTgDopzZ/EKnNqkm/Bq1pr2jyr0CLr0GbVQBl/tHxFQvjrSEW6pk5x+8jgFFr+8F3uF/2W56LqbRpuHMB2MXGLM+V1RF0mw0sFuq8fKY6AaBf2t/baL1vmNfddt1wr7v9z2eAiXin4ysWyptCLNwRuTT7VUcA9EV3HnaHdhPRjckMayrdmEkytLkA3M/6TOXG6gi6zgYWC7cm/1SdANAX3Xkg71brwq+1K1fblc6hXWuXWgHG4C8dX7Fw3g5iFB6btTm4OgKg+7r3kDuMG4muzcVU2jSMuQDsxs2Zyh3VEXSfDSxG4bq8uzoBoPu690Dezeb+X2P3iodxjV1sBhiJP3V8xSh4K4jReHim88DqCIDu6vKjbb9vJro6GVNpU7/nArBbV+fI3FsdQR/YwGI0bs7bqhMAuqu7j+Pdr+/rtXW3vN/X1uV2gHn6I8dXjIa3gRiVQ7Muj6yOAOiiPjzS9vOGouuTMZU29XMuAHuwOsdkc3UE/WADi1FZnzdXJwB0Ufcfx/tzFX27pu5fQT+vqQ/XADBrr3F8xah4C4jROSCX58nVEQBd05+H2X7dVPRlLqbSpn7NBWCPzs2ze/TFm2I2sBidjfmT6gSArunTPZ1raVF/rsS1AHTQyb7gMTre/mGUluTiHF0dAdAd/bun68eNRd/mYipt6sdcAPbi6/np6gT6xAYWo7Qlp1QnAHRH/x7I+3FNfbiG/l1RH65hCNcEsJOZvKE6gX5xgMVofS7frU4A6Ia+Prz29bpg9Hy2AL32yZxdnUC/2F1m1J6X06oTALqgv4+u3b656OtcTKVN3Z4LwF5sybG5vDqCfrGBxaidnq9XJwC0r78P5N2+ti639/fKutw+5GsDBu4Djq8YNW/7MHrH5QJHowB70/+H1m7eYPR9LqbSpm7OBWCvNuSIXFMdQd84ZmD0Ls6nqhMAWtb/B3IAYND+xvEVo+ctH8ZhWS7LftURAK0axgFW924xhjAXU2lT9+YCsFc/zFRuqY6gf2xgMQ5r88HqBIBWDeOBvHvX2bXeYVxl13pdJ0CS5C8dXzEO3vBhPB6TtTmkOgKgRcN5VO3WTcZQ5mIqberWXAD26qZM5c7qCPrIBhbjcX3eVZ0A0KLhPJB361q71DqcK+1Sq2sF+JE3Or5iPLzdw7g8JNN5SHUEQFuG9pDanduMIU3GVNrUnbkA7NVVWZ57qyPoJxtYjMtt+avqBABqdeUAoiudw7rarnS6XoBdvMHxFePizR7G5wFZl0dVRwC0Y4gPqN240RjaZEylTd2YC8Bercxx2VodQV/ZwGJ87sqfVicAUKsLhxBdaBzeFXeh0TUD3M9rHV8xPt7qYZz2z+WZqo4AaMNQH07bv9UY4mRMpU3tzwVgr87Jcwb6BZyJsIHFOG3KH1cnAFCr9fvY1vuGedWt97lugN062RcyxskbPYzX4lyQ46ojAFow3Du6tm82hjoXU2lT23MB2Ksv5yXVCfSbDSzGa2veUJ0A0ILhPpC3fe0tt7nyITIXoLNmckp1An3nAItx+3y+XZ0AAHSHQxyADvp4LqxOoO/sKTN+J+aM6gSAWkN/IG/3dmPIkzGVNrU7F4C92JSnZF11BH1nA4vxOzNfqU4AoFKrBxKtdg376lvtcv0Ae/F+x1eMnzd5mISn5kKHpcCQeSRt84Zj6HMxlTa1OReAvbgnR+Ta6gj6z6ECk3BJPlGdAFDHAzkA0GN/7fiKSfAWD5PxpKzKAdURADUcYCUt3nKYi6m0qr25AOzF7ZnKrdURDIENLCbjynygOgEAAIAR+wvHV0yGN3iYlEdnXQ6pjgCoYKckafGWw1xMpVXtzQVgj27I0txdHcEw2MBiUm7I31QnAFTwQE67/O5sk7kAHfInjq+YFG/wMDkPznQeWh0BMGkeRbdr66bDXLYxlTa1NReAPboyy7OxOoKhsIHF5Nyev6xOAAAAYERe5/iKyfH2DpN0cNbmsdURAJNlp2S7tm46zGUbU2lTW3MB2IMVOT5bqyMYDhtYTNI9+bPqBIDJ8kAOAPTUyY6vmCRv7zBZ++fyTFVHAEyOA6wdWrrpMJcdzKVNLc0FYLfOzEnVCQyLDSwma1P+sDoBgBoOJ9g7v0MAOuXk6gCGxps7TNrinJenVUcATIpH8p21c9thLjuYSpvamQvAbn0hP1edwNDYwGLStub11QkAAADM29a8oTqB4XGAxeR9Kd+qTgAAAGCePpKLqhMYHtvJVDgxZ1QnAEyGH4raWTu3Heayg6m0qZ25ANzPphyV6eoIhscGFhXOzBerEwAAAJiH9zq+ooI3d6hxbC5yfAoMgZ2SnbVz22EuO5hKm9qZC8B93JWl+X51BEPkCIEaK/Kx6gSA8fNADgD0zKmOr6jhzR2qPDGrc0B1BMB4OcDaVTu3HSazg6m0qZ25AOzitkzltuoIhskGFlWuyvurEwAAAJiDNzu+ooo3d6hzeNblsOoIgHGyUbKrdm47TGYHU2lVO5MB+JHrsyx3V0cwVDawqHNj/qY6AQCgRY6vgCb9keMr6vjeSKUH5Yo8tDoCYHxslOyqndsOk9nBVNrUzlwAfmRtnpLN1REMlw0sKv0wb6lOAAAAYBZOcXxFJW/uUOugrM3jqiMAxsdOyc7aue0wlx1MpU3tzAXg312cp2drdQRDZgOLWhvypuoEAAAA9uH3HV9Ry5s7VNsvK7K8OgJgXOyU7Kyd2w5z2cFU2tTOXACSJKfn+dUJDJ0NLKptzh9XJwAAALAXJ1cHgDd3qLco5+Xp1REA42GnZGft3HaYyw6m0qZ25gKQ5LN5WXUC+N5IC16UL1cnAIyHR/KdtXPbYS47mEqb2pkLQLbkuFxaHQF+hJAWfCXfrE4AAABgNz7k+IoWeHOHNpyQs/xuBPrITsnO2vlCby47tDMVc9lZS3MBBm5jjsoV1RFgA4tWnJMvVCcAMF4tPZC31FLLK9EmcwEa8i7HV7TBd0dacUwuypLqCIDRs1OyXVs3Heayjam0qa25AIO2Pkvzg+oISGxg0Y6V+Uh1AgAAADt5m+MrWuHtHdrxhKzOgdURAKNmp2S7tm46zGUbU2lTW3MBBuzmTOWO6gjYxgYW7bg6f1edAADUcWwD0Jg/c3xFO9wn0JJHZDqHVUcAjJqtkqTFWw5zMZVWtTcXYKCuy7LcUx0B29nAoiU35a+rEwAAAEjyBsdXtMQbPLTlsKzL4dURAKNlpyRp8ZbDXEylVe3NBRik1Tkmm6sjYAcbWLTlzry1OgGA0WvxgbzFJq9Ai00AA/Vax1e0xV0CrTkoa/L46giA0bJV0uYNx9DnYiptanMuwOCclxN8SaYtNrBozYb8SXUCAADAoJ3s+IrWeIuH9izJihxVHQEwSkO/A2z3dmPIkzGVVrU7GWBAvpGfqk6A+7KBRXu25A+rEwBGywMpMDu+WgANmMnrqxPg/hxg0aJP5ezqBAAAgEH6tOcxWuRNHtr0U/ladQLAaA33x6LavtkY6lxMpU1tzwUYiC05NpdXR8D92cCiTV/Pv1UnAAAADM4HHV/RJm/z0Kpn5Wy/P4E+GepOSftfyoc4GVNpVfuTAXpvQ47INdURsDs2sGjVuflcdQLAKHkwBfbOVwmgAe90fEWrfJ+kXUdmZfarjgAYnSHulHTjRmNokzGVVnVjMkCv3ZmlubE6AnbPBhbtWp0PVycAjJKHU2DPfIUAGvBWx1e0y3dKWvaErM6B1REAozO0nZLu3GYMaTKm0qruTAborZsylTurI2BPbGDRsqvz7uoEgFHygArsnq8OQAPe5PiKlvleSdsenuk8sDoCYHSGtFPSrZuMoUzGVNrUrbkAPXV1jsy91RGwZzawaNvNObU6AWCUPKYCAE16g+Mr2uY+mtYdmukcXh0BMErD2Crp3i3GEOZiKm3q3lyAHro0x2VLdQTsjQ0sWrc+f16dAMBcdfGBvIvN/b/CLjYDdNLrHF/ROncFtO+grM6PVUcAjFL/t0q6eYPR97mYSpu6ORegZ87JcwbwBZeOs4FF+zbkj6sTAEar7w+sXb2+rnb3++q62u36gE452fEV7fM9ky5YkkvylOoIgFHq811it28u+joZU2lVtycD9MRX86LqBNg3G1h0wZa8oToBYLQ8tAK+EgBNmMnrqhNgNhxg0Q2fzlnVCQCj1dcH165fV9f7+3lVXe8f2nUBHfPPuaA6AWbD90264vn5VnUCwKj17wej+nFj0be5mEqb+jEXoPM259isqo6A2bCBRVeclv9dnQAwan17gO3L9fTlOvp1NX25jr5eD9BZf+/4iq7wvZPueGbO8TsW6Js+bZX060t0XyZjKq3q12SAztqQZbm2OgJmxwYW3XFePlOdADBqHmJb1Y/J9OMq+ng9/bkSoOP+2vEV3eG7J11yRC7NftURAKPWj62SPt5SdH0yfZxJ96eS9HUyQAf9ME/OrdURMFs2sOiSNfnH6gSA0evDw2wfrmEoV0U1v6+AZrzF8RVd4jso3fLYrM3B1REAo9ftrZI+3050dTJ9nkl3p5L0fTJAp9yQZbmrOgJmzwYW3XJd3l2dADAOXX6o7XJ7X6+um9VDuL7ulgM99CbHV3SL76J0zcMznQdWRwCMQxe3SoZxI9G1yZhKq4YxGaAjrsqR2VgdAXNhA4uuuTlvq04AGI9FnXu87VrvMK6zW7XDuc7ufX4DPXeK4yu6xndSuufQrMsjqyMAxqU7eyXDuonoylxMpU3DmgvQAStyfLZWR8Dc2MCie9bnzdUJAOPTlQfdrnQO63q7UTm86+1KJzAgr3F8Rff4fkoXHZDL8+TqCIDxaX2vZLi3Dy1PxlRaNdzJAM36dk6sToC5s4FFF23MG6sTAMap7T8tp+W24V57u2XDvva2P5eBwTqlOgDmw/dUumlJLs7R1REA49XmXolbh/YmYyZJe1NJTAZo1Bfz0uoEmA8bWHTTFu8aAP3X3u5Ge0U12noV2qqp09rr4LMFaNTWvL46AebHARZd9bl8tzoBYPzaeQT2OL6zVl6NVjra0M6r0U4JwP18LBdVJ8D8+O5Kdz0vp1UnAExG/Q9HuWHYvcrJmMmeVH++mAzQsE05KtPVETA/NrDortPzteoEgMmo3eewTbJnVa+NmexN5atjMkDj/s7xFd3leyxddlwucAgLDMnkN0vcKMzOJCdjJrM16c8XkwGad0+W5brqCJgvD/902cX5VHUCwCQtmuB+xyQ/VvdN5tUyk7nx2QJwH6c6vqLLfK+l25bl0uxfHQEweePdLXF7MH/jmoyZLMQ4P19MBuiM2zOVW6sjYP5sYNFta/MP1QkAFca18WGTZKEWjfg1HPWvN0zjeQ1NBuiYNzu+ott816XrHpO1OaQ6AqDWwvdL3BCMy/xnYybj4bMFGKgbsjR3V0fAQtjAouuuzzurEwCqzX9Lx37PuC2a02u8aI7/PHM331fYZICO+2PHV3Sd78F030MynYdURwC0addtE9/2Ye+2fcb4TAF6Z22OzqbqCFgYG1h03235q+oEgFYtstMDc+AzBeip1zu+ovt8h6YPHpB1eVR1BAAAQIMuydOytToCFmpJdQCMwKbcmxdXRwAAADTo1VlbnQALZwOLftg/l2eqOgIAAKAxZ+R51QkwCjaw6IetuS2/WB0BAADQmFflmuoEGAUbWPTF4pyf46sjAAAAGvIv+YXqBBgNG1j0xUyuzyurIwAAAJqxNa/MD6ojYDQWVwfAyHwh365OAAAAaMaHcnF1AoyKHyGkT07MGdUJAAAATdiYo3JFdQSMig0s+uTMfKU6AQAAoAnvcXxFn9jAol+emgsdywIAAIO3Pkv9+Vf0iUd9+uWS/HN1AgAAQLm/cnxFv9jAom+elFU5oDoCAACg0M2Zyh3VETBKNrDomyvzgeoEAACAUm92fEXf2MCifx6ddTmkOgIAAKDIdVmWe6ojYLSWVAfAyK3PA3NidQQAAECR38s51Qkwajaw6KMHZzoPrY4AAAAosCZHZ3N1BIyaDSz6aEOW5CeqIwAAAAr8l6ysToDRs4FFPx2ctXlsdQQAAMCEnZcTMlMdAaNnA4t+2pwNeUl1BAAAwIT9Zq6oToBxsIFFX+2fy7K0OgIAAGCCTssLqhNgPGxg0Vdbc0t+qToCAABggl6Za6sTYDxsYNFfi3NenlYdAQAAMCGfzsurE2BcbGDRXzO5Nq+qjgAAAJiILfmV3FQdAeOyuDoAxuhL+VZ1AgAAwET8Yy6rToDx8SOE9NuJOaM6AQAAYOw25Mh8rzoCxscGFv12Zr5YnQAAADB273J8Rb/ZwKLvjs1FDmoBAIBeW5+p3FgdAePkwZ6+W5GPVScAAACM1VsdX9F3NrDovydmdQ6ojgAAABiTmzOVO6ojYLxsYNF/V+V91QkAAABj8ybHV/SfDSyG4PCsy2HVEQAAAGNwdY7MvdURMG5LqgNgAu7KoTmpOgIAAGAMfjfnVyfA+NnAYhgelOk8rDoCAABgxFbnmGyujoDxs4HFMNyb5IXVEQAAACP227msOgEmwQYWQ3FQ1uZx1REAAAAjdG6enZnqCJgEG1gMxebcnZ+tjgAAABih38iV1QkwGTawGI4lWZnl1REAAAAj8rX8THUCTIoNLIZjJrfk5dURAAAAIzGTX80N1REwKYurA2CC/jkXVCcAAACMxCdzfnUCTI4NLIble/lP1QkAAAALtiWvyM3VETA5NrAYlq/mm9UJAAAAC/b3ubw6ASbJH+LO0JyQs/y+BwAAOm1Djsg11REwSTawGJpz8oXqBAAAgAX5G8dXDI1NFIbnmFzkT38DAAA664eZyi3VETBZNrAYnpX5SHUCAADAvL3V8RXDYwOLIXpCVufA6ggAAIB5uDFLc2d1BEyaH6RiiH6Yw/Ps6ggAAIB5+IOcWZ0Ak2cDi2F6RKZzWHUEAADAHF2V5bm3OgImzwYWw3R3Ds7zqyMAAADm6H/kwuoEqGADi6E6LOtyeHUEwHjM7ON/9+2/hrkAsGArc1y2VkdABX8LIUN1Z95anQAwSjM7/Wcu/+y+/2kWYr5zYfxm5vQfgEa81vEVQ+WtPobroKzJ46sjABZqdA/WbgpGaVRzMZXRW+hszAQodHae60ydobKBxXBtyBurEwAWYtR7IfZMRmO0r6OpjM6odqnMBCh0si9ADJe3kBiyJVmRo6ojAOZu/PeubhDmY9xzMZX5Gt9kzASYqC/nJdUJUMcGFkO2JX9YnQAwV5PZ/bBhMjeT2cmx+TN3437NzASYoJmcUp0AlRxgMWyfytnVCQCzNelHZQ/mszPp18lcZmtyr5SZABPxsVxYnQCV7D0zdD+Vr1UnAOxb5eOxm4U9M5dW1UzGTIAx2pSnZF11BFSygcXQfT3/Wp0AsC+12x22S3av+nWp/vjtqntlzAQYo/c7vmLovFEEz8rZPhOAdrXzQOxL5c7MpU1tzMVMgJG7J0fk2uoIqGUDC87N56oTAHavrX2OtmoqtfVKtNRSq525tFMC9MbbHV+BN4ggOTIrs191BMB9tfkIPPRbhzanYi4tTsZMgJG5PVO5tToCqtnAgmR1PlydALCrdjc42i2bzNW3qt2yyVx9i9ffZhXQSX/u+Aq8NQTbPCGrc2B1BMB27T/2DvEGov2pDHMurU9mmDMBRuqGLM3d1RFQzwYWJMnVeXd1AsB2bT+Od6dxiFfcjcphXbM9LGDB3uj4ChJvCsF2D890HlgdAdCtR93h3EZ0aS7DmUqX5jKkqQAjdmWWZ2N1BLTABhZsc3NOrU4A6M7jeDd7h3Gd3aodypV2qRVozGsdX8E23g6C7Q7NdA6vjgCGrJuPuP2/lejiXPo/lS7OZQhTAUbukjwtW6sjoA02sGC79fnz6gRgyLr3ON7t7n5fX///3KUuXl8Xm4FyJzu+gu28FQQ7HJBVeVJ1BDBM3X607evtRLen0t+5dHky/Z0JMBZn5qTqBGiHDSzYYWPeVJ0ADFN3H8f70d/Xq+r+FfTvurrcDhQ4uToAWuJtINjZklySp1RHAEPTj0fa/t1SmEubuj+X/s0EGJPP5+erE6AlNrBgZ1vy+uoEYGi6/zjer+vo6/X0RR/m0odrACZga95QnQBtcYAFu/pMzqpOAIakT4+yrqVF/bmSPl1NX64DGKuP5OLqBGiLHWa4r+fnW9UJwFD07zG2HzcWfZtLP6bSt7n0ZSrAmGzKUZmujoC22MCC+zot/7s6ARiGfj2O90f/5tKPK+rHVfT3eoARe4/jK7gvb/7A/T0z5/jcAMavnw+wXf/y2c+pmEubuj4VYGzuytJ8vzoCWmMDC+7vvHy6OgHov34+kHf9urpdP8wr6zJTAfbgVMdXcH/e+IHdOSKXZr/qCKDP+v3g2t3biz7PpbtT6fNcujwVYGxuy1Ruq46A9tjAgt1Zk3+sTgD6rL+P493W77l09+q6Wz7sawPm7c8cX8HueNsHdu+xWZuDqyOAvur/Q2sXbzD6P5VuzqX/k+nmVICxuT7Lcnd1BLTIBhbs3nV5d3UC0Fd9fxwfyjUyGX4vAQPzh46vYPe85QN78vBM54HVEUD/DOVxvGu3GObSpmHMpWtTAcZoTY7O5uoIaJMNLNiTm/O26gSA7urWwUO3al1p35gK8COnOL6CPfGGD+zZoVmXR1ZHAP0yrAfV7txmDGku3ZnKkObSpakAY3R+njWgL30wRzawYM/W583VCQCM37CeFbpztd0pda3AiLzWlwPYM2/3wN4ckMvz5OoIoD+Gd1fajRuNoc2lG1MZ2ly6MhVgjE7P86sToGU2sGBvNuaN1QkAjNewjkm6c8XdqHS9wAidXB0AbfNmD+zd4lyQ46ojgH4Y5gNq+7caQ5xL+1MZ4ly6MBVgjD6bl1UnQNt8p4R9+YV8tjoB6IfhPZAn7d9qDHMq5tKm1qcCjNGWHJdLqyOgbX6EEPblc/lOdQLQB8N8IB/udQPAHPyT4yvYF2/0wL6dlNOrE4DuG+5BTss3G8OdSttzGe5k2p4KMDYbszxXVkdA62xgwb6dka9VJwBdN9THcZgPny/AwLzL8RXsm7d5YDaOywWOe4GFGPYDebu3G0OeS7tTGfJcWp4KMDbrszQ/qI6A9nkkh9m4OJ+qTgBg1IZ7TNL21bdb5tqBsXib4yuYDW/zwOwsy6XZvzoC6CoPpW3ecAx9Lm1OZehzaXUqwNjcnKncUR0BXWADC2ZnbT5YnQAA9N2wj+9gkP7U8RXMjjd5YLYek7U5pDoC6CaPpC3ecJiKubSpxakAY/O9HJF7qyOgG2xgwWxdn3dWJwDd5IHcawAAu/VHjq9gtrzFA7P3kEznIdURQPc4vElavOUwlxanYi5tTgUYk9U5JpurI6ArbGDB7N2Wt1UnADAajkmSFl+F9oomz2sAA/Iax1cwe97igbl4QNblUdURQLd4GN2mtVsOc9nGXFrU2lSAMTk3z/ZlD2bPBhbMxV350+oEgG5yhw4Au3iNb44wF97ggbnZP5dnqjoC6BL3ptu1ddNhLtu0NRVz2aa1qQBj8Y38VHUCdIsNLJibTfnj6gQAFsoxyXZeiRaZCgzATF5fnQBd4w0emKvFOT/HV0cA3eFRdLuWbjpMZQdzaVFLUwHG4pP5leoE6BrfHWHuXprPVycAXeGBfIeWbjrMZQdzaVFLUwHGYEuOzeXVEdA1foQQ5u4LOa06AaB7HE4AQJLkg46vYO68vQPzcWLOqE4AusGhzc7aue0wlx3amYq57NDSVICR25Ajck11BHSPDSyYjzPz5eoEAKCvHOVBr/2t4yuYD2/vwPwcm4scAAP75jF0Z63cdpjKrlqZi8nsrJ2pACN2Z5bmxuoI6CIP4DA/K/LP1QkA0CeOr4BBeIvjK5gfb+7AfD0pq3JAdQTQOo/kO2vltsNUdmUuLWplKsCI3ZSp3FkdAd1kAwvm68p8oDoBAADokD9xfAXz5c0dmL9HZ10OqY4AWmajZFet3HaYy67MpUWtTAUYqauyPPdWR0BX2cCC+bsh76hOAAAAOuINjq9g/ry5Awvx4EznodURQLtslOyqldsOc9mVubSolakAI7Qyx2dLdQR0lw0sWIjb85fVCQAAQAe8zvEVLIQ3d2BhDs6aPK46AmiVjZJdtXLbYS67MpcWtTIVYGTOyXN8oYOFsIEFC3NP/qw6AQAAaNzJjq9gYby5Awu1fy7L0uoIoE3uVHfVym2HuezKXFrUylSAEflKXlydAF1nAwsWalP+sDoBAABo1kxOqU6A7nOABQv3sVxYnQC0yQ4FAJB/zgXVCdB97qxhFF6SL1YnAG3yQ1E7a+W2w1R2ZS4tamUqwAhszrFZVR0B3WcDC0bhS/lWdQIAANCg9zu+glHw5g6Mxn/ImdUJQIvslOysldsOU9lVK3MxmZ21MxVgge7JEbm2OgL6wAYWjMa3/RAhQFc4GtiZVwNgrN7h+ApGwz0LjMqxuciRMHBfNkp21s5th7ns0M5UzGWHlqYCLMjtmcqt1RHQDx63YVRW5GPVCQAAQEPe4vgKRsXbOzA6T8zqHFAdAbTFRskOLd10mMsO5tKilqYCLMANWZa7qiOgL2xgwehclfdVJwCt8RgKAIP1J46vYHTcV8MoHZ51Oaw6AmiLnZLtWrrpMJUdWpqLyWzX1lSAeboyy7OxOgL6wwYWjNKN+ZvqBAD2zfHAdl6JFpkK9MQpjq9glHx/hNF6UKbzsOoIoCU2SrZr66bDXLZpayrmsk1rUwHmZUWOz9bqCOgTG1gwWj/MW6oTAFrkkRyAQTnZ8RWMlrtJGLWDsjaPq44AWmKnJGnvlsNUtjGXFrU2FWAezsxJ1QnQNzawYNQ25E3VCQDsiyOCpMVXob2iyfMaQC+cUh0A/eM7JIzekqzM8uoIoB12SpIWbznMpcWpmEubUwHm6It5aXUC9I8NLBi9Lfmj6gSgJR5HvQYADMjWvL46AfrIARaMwydyQXUCAHvnUK3NV6DNKoA5+Gguqk6APnKPAOPxM/lKdQLQDj8U1eYNx9Dn0uZUhj6XVqcCzNqmHJXp6gjoIxtYMB5fzTerE4B2DP2RdOjXD8CA/J3jKxgPd5QwLifkLJ9hwHZ2Sto05Lm0O5Uhz6XlqQCzcleW5vvVEdBPNrBgXM7J56sTAFrgkRyAwXi74ysYF/eUMD5H5+IsqY4AWmGnpEXDnUrbcxnuZNqeCrBPt2Uqt1VHQF/ZwILxuTQfqU4AYG+Ge1ww3CtvmalA573Z8RWMj++TME5PyOocWB0BtGKYOyWt32oMcyrm0qbWpwLsw/VZlrurI6C/bGDBOF2dv6tOAGBvhnlk0P5Vt1/omoH7+WPHVzBOvlPCeD0i0zmsOgJoxfC2SrpwozG8qZhLm7owFWAv1ubobKqOgD6zgQXjdVPeXp0AwN4M79igG1fcjUrXC/zIKY6vYLx8r4RxOyzrcnh1BNCKYW2VdOU2Y1hTMZc2dWUqwB5cnKdna3UE9JsNLBi3O/OW6gQA9mZYRwfdudrulLpWIH/g+ArGzXdLGL+DsiaPr44AWjGcrZIu3WQMZyrdmstwJtOtqQD3c3qeX50A/WcDC8ZvQ95YnQAwad16IO9WrSvtG1OBzju5OgCGwPdLmIQlWZGjqiOAVgxjp6R7txhDmEv3pjKEuXRxKsAuPpdfrE6AIbCBBZOwJX9YnQC0YwiPq0O4RibD7yWgcVtySnUCDIMDLJiMT+Xs6gSASenmkUM3q11h15kKdN6Hc2l1AgyD75kwKS/M16sTgHb0+8eiunt70ee5dHcqfZ5Ll6cCJEk25qhcUR0Bw2ADCyblG/nX6gSgHX1+bO3ztVHD7ymgWe92fAWT4n4AJudZOdvnHLBDP7dKuv5lrp9TMZc2dX0qQNZnaX5QHQFDYQMLJufcfK46AWC8uv9A3v0r6OdVdf8KhnFNMDh/5fgKJsd3TpikI7My+1VHAO3o31ZJP24s+jaXfkylb3Ppy1Rg0G7OVO6ojoDhsIEFk7Q6H6pOAFrSt0fYvlxPX66jb1fTnyvp17XAgL3Z8RVMku+eMFk/ljU5sDoCaEl/tkr6dVPRl7n0ayp9mUvfpgIDdV2W5Z7qCBgSG1gwWd/Lu6sTgLb05VG2L9fR1+vpiz7MpQ/XACR5g+MrmCzfQWHSHp7pPLA6AmhL97dK+nhD0f2p9HMuXZ9MP2cCA7QmR2dzdQQMiw0smLSbc2p1AtCarj/Sdr2/r1fV/Svo33V1uR3YxWsdX8Gk+S4Kk3dopnN4dQTQmu5ulfT7ZsJc2tTNufR7JjAo5+WEjn4hgg6zgQWTtz5/Xp0AtKerj7Zd7e739S3qaPdcrrB7utgM7MHJjq9g8nwnhQoHZFWeVB0BtKd7d8PDuJHo2lyGMZWuzWUoU4FBOC0vqE6AIbKBBRU25k3VCUCLuvaI27XeYVxnt2qHcqVdagX2YSYnVyfAMPluCjWW5JI8pToCaFM39kqGdgvRjakMby7dmMzwpgK99um8vDoBhsn3U6jysny6OgFoVfuP5EO8gWh/KsOcS+uTGeZMoMe25Km5rDoChsmPEEKVz+Ss6gSgVa0/8rbeN66rbvu6W+8b55W3q+U2YF7+wfEVVPFdFeo8P9+qTgBa1uZeydBvHdqcirm0OBkzgR7akCPzveoIGCobWFDntHyjOgFoWYuPvy02TfoVaO81aLFp8lp7DVrrAUbiXY6voI7vrVDpGTnXZyGwd+3slfhytUM7UzGXXbUxGTOBnlqfqdxYHQHDZQMLKp3vD3IH9qWN7Zo2KtrRyuvRSkc76l+R+gJgbN7q+Aoq+Q4LtY7IpdmvOgJoX+VeiZuFPTOXVtVMxkyg127KVO6sjoAhs4EFtdbkH6sTgC6o2uqwTbJ35tKqyb9CZgK99ybHV1DLd1qo9tiszcHVEUB3TG6zxE3C7E1y38dc5mIykzETGICrc2TurY6AYbOBBdWuy7uqE4Aumcyeh22SuVk0kVdsMh+lX8b9mpkJDMYfOr6Car7jQr2H5Yo8sDoC6J7x7Ja4NViocczFVEZhtJMxExiUVTk2m6sjYOhsYEG9W/K26gSgi0a9+2GXZDRG+zqayugsGtGraSYwQCc7voJ6vvtCCw7NujyyOgLotvlvl7gZGKf5zsVUxm9uszERGLBz8pzSv3YWSGIDC9qwPn9WnQB03aKd/jOXf9Zj+XjNdy6M36I5/QcYsNc4voIW+G4MbTggl+fJ1REAAMAuvpoXVScASbKkOgBIkmzJD/ML1REAAMBOZvKruaE6AkhsYEE7FueCHFcdAQAA/Mg/51erE4BtbGBBK2byfd8eAQCgGVvyK7m5OgLYxh/iDu34XL5TnQAAAPy7v8+q6gRgOz9CCC05KadXJwAAAEk25IhcUx0BbGcDC1pyRr5WnQAAACR5h+MraIkNLGjLcbnAwTIAABT7YaZyS3UEsIMHZWjLxflkdQIAAAzeWxxfQVtsYEFrluXS7F8dAQAAA3ZjlubO6ghgZzawoDVr88HqBAAAGLQ3Or6C1tjAgvY8JmtzSHUEAAAM1FU5MhurI4BdLakOAO7nzjw4/6E6AgAABup3clF1AnBfNrCgRQ/JdB5SHQEAAAO0Isdna3UEcF82sKBFG7Jf/mN1BAAADNBvZXV1AnB/NrCgTQ/IujyqOgIAAAbm2zmxOgHYHRtY0KZNuTcvro4AAICB+c1cVZ0A7I4NLGjV/rk8U9URAAAwIF/Kz1YnALtnAwtatTW35mXVEQAAMBhb88p8vzoC2L3F1QHAHn3UX98LAAAT87FcWJ0A7IkNLGjXTK7PK6sjAABgEDbl5bmtOgLYExtY0LIv5LTqBAAAGIT3Zbo6Adgzf4g7tO3EnFGdAAAAvXdPluW66ghgz2xgQdvOzJerEwAAoPfe7vgK2mYDC1p3bC5y1AwAAGN0e6Zya3UEsDcei6F1K/LP1QkAANBrf+74ClpnAwva96SsygHVEQAA0FM3ZGnuro4A9m5JdQCwT7fnMXlWdQQAAPTU/5OzqhOAfbGBBV3w6KzLIdURAADQQ2tzdDZVRwD7YgMLumB9DsuJ1REAANBDv5NLqhOAfbOBBd3w4EznodURAADQM5fkadlaHQHsmw0s6IYNWZyfrI4AAICeeXXWVicAs2EDC7ri4KzJ46ojAACgR87I86oTgNmxgQVdsTkb8pLqCAAA6JFX5ZrqBGB2bGBBd+yfy7K0OgIAAHriX/IL1QnAbNnAgu7YmlvyS9URAADQC1vzyvygOgKYrcXVAcAcfCwXVicAAEAvfDgXVycAs2cDC7rlmvxadQIAAHTexvxybquOAGbPBhZ0y5fzreoEAADovPfmiuoEYC78Ie7QNc/Od33mAgDAAtyVpfl+dQQwFzawoGvOzpeqEwAAoNP+yvEVdI09DuieY3ORw2cAAJin2zLlz7+CrvEQDN2zIh+tTgAAgM76U8dX0D02sKCLnpjVOaA6AgAAOuj6LMvd1RHAXC2pDgDm4fY8KidURwAAQAf9Xs6uTgDmzgYWdNPhWZfDqiMAAKBj1uTobK6OAObOBhZ00105NCdVRwAAQMf8l6ysTgDmwwYWdNWDMp2HVUcAAECHnJ9nZaY6ApgPG1jQVfcmeWF1BAAAdMirM12dAMyPDSzoroOyJo+vjgCAPplxewx9dlpeUJ0AzNfi6gBg3jbkTdUJQHtmZv0fJslc2rOn199coMdOrg4A5s9bTNBlS7Iyy6sjgBYs7PHa7cB4LPTQw1zGYeFHUeYCnfWZ/FJ1AjB/vgNDt70iH69OACqNdi/EbcGojHIupjIqo96iMhnomC15ai6rjgDmz48QQrd9IhdUJwA1xvFjTX5UauFG/xqaysKN5zU0GeiYf3R8Bd3mrSPoup/JV6oTgMmazCOzW4S5msRcTGWufLYA/25jlufK6ghgIWxgQdd9Nf9WnQBMzuQ2PuyWzMWkXi07P3Mx2c8Wc4HGvdPxFXSdN4yg+07IWT6XYQhqHpB9edm7qmMLc9k7cwF2sT5TubE6AlgYG1jQfefk89UJwLjV7XfYLNmzytfGXPbMXID7+UvHV9B93iaCPlieFdmvOgIYlzYeiN0y3Je5tMhUgN24OVO5ozoCWCgbWNAHq/LR6gRgPNrZ52inpAXtvBqtdLSgpam0UgIkSf7U8RX0gTeIoB+ekNU5sDoCGLX2HoLdOLQ4FXNJzAXYo6tzZO6tjgAWzgYW9MPVeW91AjBabe5wtFk12VegRW1WTfL623wF2qyCwfkjx1fQD94Ygr54RKZzWHUEMCptP/gO9fah7amYS6uGOhdoxOock83VEcAo2MCCvrgpb69OAEaj1W2SnQuHqP2rbr9wHNfc/lW3Xwi99hrHV9AX3hKC/jgs63J4dQSwUN152B3WTURX5mIqbRrWXKAh5+bZHfpSAeyVDSzojzvzluoEYKG6dJfdpdaFXml3rrVLrQu/1u7oUiv0ysk+/aA/vB0EfXJQ1uTx1RHA/HXvLnsINxLdm4q5tGoIc4GmfD0/XZ0AjI4NLOiTDXljdQIwf118IO9i8xCusJvV/b/CblZDZ83kDdUJwCh5Iwj6ZUlW5KjqCGA+uvto2+ebie5OxVxa1ee5QGM+kVdUJwCj5Hso9M3L88nqBGCuuvw4nvT3dsJcWtT1qfR1LtCcLTk2l1dHAKPkRwihbz6ds6sTgKHp/pFCP6+q+1fQT+YCE/EBx1fQN94Cgv55Yb5enQDMRT8eZ/t2S9GPqZhLq/o2F2jOhhyRa6ojgNGygQX98438a3UCMHt9eSDvy3X07Wr6cyX9upr+XAk06m8cX0H/ePsH+uhZOdtnN3RDvx5j+/KFp19TMZc29WUq0KQfZiq3VEcAo2YDC/ro3Hy2OgGYjX49kPfvemhJ33539e16oCl/6fgK+sibP9BPR2Zl9quOAPaunw+w3b+16ONcTKVN3Z8LNOmmTOXO6ghg9GxgQT+tzoeqE4C96+cDeff1cy5dv6qu9w/tuqDYGx1fQT954wf66seyJgdWRwB71t9H1y7fXPR3KubSqi7PBZp0VZbn3uoIYBxsYEFffS/vrk4A9qzPD+R9vjYq+B0FzMEbHF9BX3nTB/rr4ZnOA6sjgN3p/wN5N28w+j4XU2lTN+cCjVqZ47K1OgIYDxtY0F8359TqBIDu6P9BSf+vsJvMBUbotY6voL+85QN9dmimc3h1BHBfw3hc7d4txhDmYipt6t5coFHn5DkD+bIBg2QDC/psff68OgG4r6HcWXftOrvWO4yr7Fqv64RiJ/t0gj7zhg/02wFZlSdVRwA7G869dZduMoYzFXNpU5emAs36cl5SnQCMkw0s6LeN+ZPqBGBnw3kgH9a1Mg5D+h00pGuFMZnJKdUJwHh5uwf6bkkuyVOqI4DthvWY2pXbjGFNxVxa1ZW5QKM+lldVJwDj5Tsl9N/L8unqBGCboT2Qd+VGY2hzMZU2dWMu0KhNeUrWVUcA4+VHCKH/PpOzqhMA2jW8g5LhXXE3mAsswPsdX0H/easHhuD5+VZ1AjDUx9P2bzWGOBdTaVP7c4FG3ZMjcm11BDBuNrBgCE7LN6oTANo0zIOSYV51+8wF5umvHV/BEHijB4bhGTnX5zvUGu6jadtffIY6F1NpU9tzgUbdnqncWh0BjJ8NLBiG8/1B7gD3N9yDkuFeOdA7f+H4CobB2zwwFEfk0uxXHQHDNeTjgpZvNsylRUOeSstzgUbdkGW5qzoCmAQbWDAUa/IP1QnAMA37OAKAsfoTx1cwFN7kgeF4TNbl4OoIGKphH+K0ersx7KmYS6tanQs06cosz8bqCGAybGDBcFyfd1UnwFAN/YF86NfPXPjdAszB6xxfwXB4iweG5GGZzoOqI2CIPJK3ecMx9LmYSpvanAs0aUWOz9bqCGBSbGDBkNySt1UnALTCQYlXoE3mArN2suMrGBJv8cCwHJp1eWR1BAyNx9E2bzjMpcW5mErS4lygSWfmpOoEYJJsYMGwrM+fVScAQ+RYAoARO6U6AJgsb/DA0ByQy/Pk6ggYFoc3SXu3HKayjbm0qLWpQJO+kJ+rTgAmywYWDM3GvLE6AYbFAzkwN75qwD5tzRuqE4BJc4AFw/OhXFydAAyPR3L2ze8SYJY+kouqE4BJs6EMQ/Tz+Vx1AgyHR/Lt2rrpMJdtTKVNbc0FmrMpR2W6OgKYNBtYMET/ku9UJwBUclCynVcC6KD3Or6CIfL2DgzTSTm9OgGGwgHBdi3ddJjKDubSppbmAo25K0vz/eoIYPJsYMEwnZGvVSfAMHggh9ny2QLMyqmOr2CYvLkDQ3VcLnCEDePnkXyHlm46zGWHduZiKjtrZy7QmNsylduqI4AKHl9hqC7OJ6sTgGFxPAHAgr3Z8RUMlTd3YLiW5dLsXx0BfefQZmft3HaYyw6m0qZ25gJNuT7Lcnd1BFDDBhYM19p8sDoBAABm7Y8cX8FweXMHhuwxWZtDqiOg3+yU7KyV2w5T2ZW5tKiVqUBT1ubobKqOAKrYwIIhuz5/W50AAACzcorjKxgyb+7AsD04V+Qh1RHQZ3ZKdtbKbYep7MpcWtTKVKAhF+fp2VodAdSxgQXDdnveVp0AANyX4zy4n993fAXD5s0dGLoHZF0eVR0B/eUhdGet3HaYyq7MpU2tzAUacXqeX50A1LKBBUN3V95UnQAAAHt1cnUAUM1bO8D+uTxT1RHQV3ZKdtbKbYep7Mpc2tTKXKAJn83LqhOAajawgE35o+oEAADYgy15fXUCUM8BFpB8NBdVJwAAwG59KJdWJwD17CYDSfLSfL46AfrJD0XtrJXbDlPZlbm0qZW5QLmNOSpXVEcA9WxgAUnyhZxWnQAAbOf4Cn7kXY6vgMT3RmC7E3NGdQL0kZ2SnbVy22EquzKXFrUyFSi3Pkvzg+oIoAU2sIBtzsyXqxMAAGAXb3N8BWzjzR1gu2NzkUNtGDU7JTtr57bDXHYwlTa1MxcodXOmckd1BNAGD6vAdivyz9UJAADwI3/m+ArYzps7wA5PyqocUB0B/WKnZGft3HaYyw6m0qZ25gKFrsuy3FMdAbTCBhaww5X5++oEoL88kAMwJ29wfAXs4F4S2Nmjsy6HVEdAv9gq2a6lmw5T2cFc2tTSXKDI6hyTzdURQDtsYAE7uyHvqE4AAIC81vEVsDNv7gC7enCm89DqCOgTOyXbtXTTYSo7mEuLWpoKFDkvJ/iiAOzMBhawq9vz1uoEgHFzPLCdVwJo1MmOr4BduWsB7uvgrMnjqiOgP9x/b9PaLYe5bNPWXExlu7bmAgW+kZ+qTgBaYwMLuK978mfVCdAnHkRhtny2AEmSmby+OgFoj/sE4P72z2VZWh0B/WGrJGnvlsNUtjGXFrU2FZi4T+WXqxOA9tjAAu5vU95QnQAwXo4IEq8C0KQt7kSB3XGABezOx3NhdQLQJw5KAJilD+by6gSgRe4ngd17cb5UnQD94ceiWrzhMBVzaVWLc4GJ2ZAjck11BNAiG1jA7n0536pOABgnhwRegTaZCwP3TsdXwO75DgnsybPzXV8jYDTslLT5xWToczGVNrU5F5iQO7M0N1ZHAG2ygQXsydn5YnUC9MXQH0iHfv3Mhd8tMGhvdXwF7Il7BGDPjsnFjrlhNIa9VdLu7caQ52IqbWp3LjABN2Uqd1ZHAK3yaArs2cp8tDoB6D4P5ADMypscXwF75p4S2JsnZlUOrI6AfhjuVknLNxvDnYq5tKnlqcDYXZ0jc291BNAuG1jA3lyV91cnAIzPcI8LhnvlQLPe4PgK2Bt3L8DeHZ51Oaw6AvphmFslrd9qDHMq5tKq1ucCY3RpjsuW6gigZTawgL27Me+oTgAYn2EeGAzzqttnLgza6xxfAXvn+ySwLw/KdB5WHQH9MLytki7caAxvKubSqi7MBcbknDxnkJ/2wBzYwAL25Yd5S3UCwPgM79BgeFfcDebCoJ3s+ArYF98pgX07KGvy+OoI6Idh3Z935TZjWFMxl1Z1ZS4wBl/Ni6oTgPbZwAL2bUPeVJ0AMD7DOjgY1tV2h7kwYDN5XXUC0AW+VwKzsSQrs7w6AvphOFslXbrJGM5UzKVNXZoKjNzH88rqBKALbGABs7Elf1SdAHRLtx7Iu1XrSoEe2ZI/rk4AusEBFjA7n8j51QnQDw4Q2jSMuXTtKrvW6zphHt6fVdUJQDf4fgnM1k/nq9UJ0Bf9/8GoLt5g9H8q5tKqLs4FRmRDluXa6gigG2xgAbP1tfxbdQLA+PT/EKH/V9hN5sKg/bXjK2C2fMcEZu+EnOWrBoxGv7dKuvuFos9zMZU2dXcuMAI/zJNza3UE0BU2sIDZOyefr06AvujzQ2ufr40KfkdBb73F8RUwe+4IgLlYnhXZrzoC+qGvWyVdv7Uwlxb1dSpdnwss0I1ZmjurI4DusIEFzMWqfKQ6AfrCg2ub+jmXrl9V1/uHdl0wS3/s+AqYC983gbl5QlbnwOoI6Iv+7ZX048aib3MxlTb1Yy4wb1flyGysjgC6xAYWMDdX573VCdAffXuA7dv10JK+/e7q2/XAnJ3i+AqYG987gbl6RKZzWHUE9Ed/9kr6dFPRn6mYS6v6NBeYhxU5PlurI4BusYEFzNVNeXt1AvRJXx5j+3Idfbua/lxJv66mP1cC8/Qax1fAXPnuCczdYVmXw6sjoE+6v1fSxxuK7k/FXFrVx7nAnHw7J1YnAN1jAwuYuzvzluoE6JeuP852vb+vV9X9K+jnVXX/CmDBTqkOALrId1BgPg7Kmjy+OgL6pbt7JX2+mejuVMylVX2eC8zSF/PS6gSgi2xgAfOxIW+sToC+6epjbVe7+3513S3v99V1txxGZmteX50AdJPvosD8LMmKHFUdAX3Tvb2SIdxIdG8q5tKmIUwFZuEj+U/VCUA3+U4KzNfL88nqBOifbj2UD+c2oktzMZU2DWcusFebclSmqyOAbvIjhMB8fTpnVydA/3TpIbdLrcO51u6UDutau9QKY/V3jq+A+fLdFJi/F+br1QnQR13YKxniDYS5tKgLUxniXGAP7smyXFcdAXSVDSxg/r6Rf61OgD5a1Pzjbut9Q73q9gvHcc2tX3X7hTBBpzq+AubPd1RgIZ6Zc3wdgfFod7Nk2J/0rc7FVNo07LnAfdyeqdxaHQF0lw0sYCHOy2erE6Cv2tzbaLNqsq9Ai9qsmuT1t/kKtFkFZd7s+ApYCN9XgYU5MiuzX3UE9FdLmyVuGnYwlxa1NBVzgfu5IUtzd3UE0GU2sICFWZ0PVSdAn7WzWdJKRxtamUsrHW1o59VopwQa8seOr4CF8d0VWKjHZm0Oro6AvqvdLXG7sHvVGz/msns+W6BBa3N0NlVHAN1mAwtYqOvynuoE6L+6jQ67JHtW+dqYy57VzgXYrdc7vgIWyndZYOEenuk8sDoChmGyuyVuE2ZrknMxldma9CaWycAeXZKnZWt1BNB1NrCAhbs5p1YnwFBMardkkQ2fOZnkXJityb1aPl9gH/7A8RWwcL7XAqNwaNblkdURMCzj2y5xc7AQ45qLqSyEzxYodUaeV50A9IENLGAU1ufPqxNgaMax82GPZOFG/xqaysL5bIFSJ1cHAP3g+y4wGgdkVZ5UHQHDtbANE7cD47KQuZjKeCx8G8tkYE7+Jb9QnQD0gw0sYDQ25k+qE2DIFv3oP3P/NzyOj89C5sJ4zPcVNhmYl635w+oEoC98DwZGZUkuyVOqIwAAaMY/5tXVCUBfLKkOAHpjJt/PK6ojAABoxMb8Sm6rjgD6wo8QAqPzmXy3OgEAgEa8J1dUJwD94UcIgVF6Xk6rTgAAoAHrszQ/qI4A+sMGFjBKp+cb1QkAADTgrxxfAaNkAwsYrWfkXF9ZAAAG7pY8OXdURwB9YgMLGK3z8+nqBAAAir3Z8RUwWvYkgFE7Ipdmv+oIAADKXJdluac6AuiXJdUBQO/ckh/L06sjAAAo83s5pzoB6BsbWMDoPSZrc0h1BAAAJdbk6GyujgD6xgYWMHp35qH58eoIAABK/JesrE4A+scGFjAOD8l0HlIdAQDAxJ2XEzJTHQH0jw0sYBw25ID8H9URAABM3G/miuoEoI9sYAHj8YBM55HVEQAATNRpeUF1AtBPNrCA8diUjXlRdQQAABP1ylxbnQD0kw0sYFwOyOV5cnUEAAAT8+m8vDoB6CsbWMC4bMnt+cXqCAAAJmRLfiU3VUcAfbW4OgDosQ/n4uoEAAAm5B9zWXUC0F82sIDxmckN+dXqCAAAJmBDXp4fVkcA/WUDCxinf8l3qhMAAJiAd+V71QlAn/lD3IHxOimnVycAADBm6zOVG6sjgD6zgQWM1xn5anUCAABj9peOr4DxsoEFjNtTc6HDcgCAHrs5U7mjOgLoNw+VwLhdkk9WJwAAMEZvcnwFjJsNLGD8luXS7F8dAQDAWFydI3NvdQTQd0uqA4ABuDWPyzOqIwAAGIvfzfnVCUD/2cACJuExWZtDqiMAABi51Tkmm6sjgP6zgQVMwp15UP5DdQQAACP327msOgEYAhtYwGQ8ONN5aHUEAAAjdW6enZnqCGAIbGABk7Eh++UnqiMAABip38iV1QnAMNjAAiblAVmXR1VHAAAwMl/Lz1QnAENhAwuYlE3ZkBdXRwAAMCIz+bVcVx0BDIUNLGBy9s/lmaqOAABgJD6RV1QnAMNhAwuYnK25NS+rjgAAYAS25BW5uToCGI7F1QHAoHw0F1UnAAAwAn+fy6sTgCGxgQVM0kyuy6uqIwAAWKAN+eXcUR0BDIkNLGCyvpjTqhMAAFigv8k11QnAsPhD3IFJOzFnVCcAALAAP8xUbqmOAIbFBhYwaWfmy9UJAAAswFsdXwGTZgMLmLxjc5HjcwCAjropU7mzOgIYGo+QwOStyMerEwAAmKc3Or4CJs8GFlDhSVmVA6ojAACYs6uyPPdWRwDDs6Q6ABik2/OYPKs6AgCAOfsfubA6ARgiG1hAjUdnbR5QHQEAwJyszHHZWh0BDJENLKDG+hyWE6sjAACYk9/K6uoEYJhsYAFVHpzpPLQ6AgCAWTs7z81MdQQwTDawgCobsjg/WR0BAMCs/Xquqk4AhsoGFlDn4KzJ46ojAACYlS/nJdUJwHDZwALqbM4Gt0EAAJ0wk1/N96sjgOGygQVU2j+XZWl1BAAA+/TR/Fp1AjBkNrCASltzc36pOgIAgH3YlF/OrdURwJAtrg4ABu7jubA6AQCAfXh/1lUnAMPmRwiBai/Ol6oTAADYi3tyRK6tjgCGzQYWUO3L+WZ1AsB4zczhPwANervjK6CaDSyg3gk5y1cjoH8WehjlCyPQiNsz5c+/AqrZwALqnZMvVicAjNJodqlsZAGN+AvHV0A9b+0BLTgmFztQB/pgXAdObtmAMjdkae6ujgDwwAi0YGU+Wp0AsDDj3ZeyjQWUeaPjK6AF3s4D2vDErMqB1REA8zHZgyU3b8BEXZnl2VgdAWADC2jFVXlfdQLA3E1+L8ouFjBRr3N8BbTBm3hAKx6R6RxWHQEwe9XHSG7jgLG7JE/L1uoIgMQGFtCOm/KO6gSA2as+vqrY/gIG52THV0ArvHUHtONBmc7DqiMA9q2lgyM3c8DYnJmTqhMAtrOBBbTjh/mL6gSAfWlt76m1HqBHTq4OANjBm3ZASw7Kmjy+OgJgz1o9LHJLB4zc5/Pz1QkAO9jAAlqyIW+qTgDYk5Z3nVpuAzppa95QnQCwM2/XAW1ZkpVZXh0BcH9dOCByYweMzIfyG9UJADtznwO05hX5eHUCwH114fgqcWsHjMimHJXp6giAnfkRQqA1n8j51QkAO+vSj+d1qRVo2HscXwGt8TYd0J6f/n/Z++94S+v67vd/TxEEAUVRgySxUBOqBcSEoom9F2bDWMAk5s657999zuP8/jiPkxhb1GgixpZoLJgYe+/dmEiJUlRAQRhmNqDUGWaYYfrsmdn7/EGUNmWXtdbnKs/n+lt9rfVI1r7293rva/Lt6gSAX2vjgZALPGBONuSQ3FodAXBPFlhA83wn/1GdAHCnNh5ftbUaaIx3Or4CmscNOqCJTsiFvp+Aem0+CPIlCszS6hyc1dURAPdmgQU00cX5SnUCQJuPr9peDxR6i+MroIncnAOa6fBckYXVEUCfdeEAyIUeMGM359BsrI4AuC8LLKCZluQT1QlAn3Xh+Kor7wIYqTc4vgKayY05oKkemSXZszoC6KcuHfy42ANm4JocmW3VEQA7YoEFNNUv84HqBKCfunR81bV3AwzZaxxfAU3lphzQXA/NePatjgD6p3tHPi74gGn5SY7v4Fcg0BEWWEBz3ZZ3VicA/eN3N6C3Xu0rEGguN+SAJtsn43lYdQTQJ1393c0lH7Bb5+XU6gSAnbPAAppsfd5WnQD0SVePr7r8zoCB+cvqAIBdcTsOaLb7Z0l+tzoC6IeuH/K47AN24Ut5cXUCwK5YYAHNtjlvrE4AAOi47XltdQLArjnAApruI7mqOgHog67vr/rwDoFZ+2iurE4A2DVbcqD5TsvnqhOAruvL4Y5LP2AHJnJErquOANg1Cyyg+b6Qi6oTAAA6632Or4DmcxsOaIOn5bvVCUCX9WV/lbj4A+5jfQ7J8uoIgN2xwALa4Hv5fnUCAEAn/YPjK6AN3IQD2uEJudg3FjAcfdpfJS7/gHtYmYOztjoCYPcssIB2+HG+VJ0AANA5b3F8BbSDW3BAWxyeK7KwOgLonr7trxIXgMBv3JRDs6k6AmA6LLCAtliSj1YnAAB0ymsdXwFt4QYc0B4HZWn2qo4AuqWP+6vEJSCQJFmSo7KtOgJgeiywgPa4Ke+vTgAA6IxXO74C2sPtN6BNDsh49quOALqjr/urxEUgkEvyxF5/DQItY4EFtMnKvKM6AQCgE/7K8RXQJm6+Ae2yT5bl4dURQDf0/Tc3l4HQa9/L06sTAGbCAgtol/X5u+oEAICWm8prqxMAZsatN6Bt9sjVeXR1BNAFFlhAb30uY9UJADNjgQW0zUTeVJ0AdEHfj698AtBj2/P66gSAmXKABbTPR3NldQIAQGv9a66qTgCYKdtxoI1elC9WJwBtZ3/kQhB6anMOyw3VEQAzZYEFtNGX8qPqBKDdHF8lPgXoqX9yfAW0kRtvQDudknOrE4A2c3RzJ5eC0DvrckhWVEcAzJwFFtBO5+V71QkAAK1ztuMroJ3cdgPa6vG5xHcYMFsWWHfyNQo9c1sOzrrqCIDZsMAC2uon+Xx1AtBWjq+AnnqT4yugrdx2A9rrsFyZhdURQBs5wLqLi0HokV/m8GypjgCYHQssoL2uyUeqEwAAWuN1jq+A9nLTDWizR2Rp9q6OANrHAusuLgahN67IcdleHQEwWxZYQJvdnH+uTgAAaIW/dnwFtJmbbkC77Z/x7F8dAbSNBdZdXAxCT1ycE335AW1mgQW02+q8szoBAKDx/tLxFdBubroBbfeALMtvVUcAbeJ3uHtyOQg98K08uzoBYG4ssIC225C3VCcAADTYVF5TnQAwV265Ae23R67KY6ojgPawwLonl4PQeZ/O4uoEgLmywALabyJ/U50AANBQ21wpAV3gAAvogo/n8uoEAIBGOidXVycAzJ3NONANL8iXqxOAtvAnhPfkchA6bXMOzY3VEQBzZ4EFdMNX8sPqBACAxnm34yugG9xyA7ri5JxXnQC0gwXWPbkchA5bk4Nze3UEwCBYYAFdcX6+XZ0AANAob3N8BXSFW25AdxyTSx3LA7tngXVPLgehs27JodlQHQEwGH7VA7rjZ/lcdQIAQGO82fEV0B1uuQFdcmiuzP2qI4Cms8C6J5eD0FHX5YhMVEcADIoFFtAlS/Mv1QkAAI3wGsdXQJe45QZ0y4FZlr2rI4Bms8C6J5eD0Ek/z3GZrI4AGBwLLKBbbsk/VScAAJT7K8dXQLe45QZ0zYMyngdXRwBNZoF1Ty4HoYMuyMnVCQCDZYEFdM2a/EN1AtBsDmzuzqcBnfSa6gCAQXPNAnTPXlmag6ojgCazwbqLi0HooK/nedUJAINmgQV0z6a8tToBAKDIZF5bnQAweG66AV10v1yVg6sjgOaywLqLi0HonI/nFdUJAINngQV00da8vjoBAKDA1ryhOgFgGBxgAd30qVxWnQAAMHIfzHh1AsAwWI0DXfXcfK06AWguf0R4J5eC0DEbckhurY4AGAYLLKCrvp5zqxMAAEbqXY6vgK5y2w3orpNyfnUC0FQWWHdyKQidsiaPyerqCIDhsMACuuuCfKM6AQBgZN7q+AroLrfdgC47Opc5qAd2zAbLhSB0zM05NBurIwCGxS92QJf9PJ+uTgAAGIm/cXwFdJkbb0C3PTpXZ4/qCKCJLLBcCEKnLM2R2VodATA8FlhAt12XD1cnAM3k8MYnAJ3yWsdXQLe5cgG67sAszQOqI4Am6vsGy2UgdMjleVwmqyMAhskCC+i6W/Ke6gQAgKH6fx1fAV3n1hvQfQ/KeB5cHQE0UZ83WC4CoUPOzynVCQDDZoEFdN+anF2dAAAwNH9ZHQAwfG6+AX2wV67Jb1dHAE3U1w2WS0DokC/nRdUJAMNngQX0wab8bXUCAMAQTOYN1QkAo+AAC+iHc7KkOgEAYOA+lsurEwBGwX4c6IvF+WR1AtBEffwjQheA0BkT+b1cWx0BMAoWWEBffDqXVicAAAzUPzu+AvrCDTigP56db1QnAE3Utw2Wyz/ojPU5JMurIwBGwwIL6I9v5j+rE4Am6teBTr/eLXTcOxxfAf3hGgbokxNyoe894L76tMHyJQidsTIHZ211BMCoWGABfXJxvl6dADRRfw51+vNOoQfe6vgK6BNXMUC/HJXLHd0D99WXDZZLP+iMm3JoNlVHAIyOX+OAfrkin6hOAJqoHwc7/XiX0BOvd3wF9IvrGKBvHpWrs2d1BNBEXV9hueyDDrkmR2ZbdQTAKFlgAX1zfT5UnQAAMCevdnwF9I1bcUD/PDTj2bc6AmiiLm+wXPRBh/w4J3T6CwtgByywgP65Le+pTgCaqbuHPN19Z9BLf+X4CugfVzNAHz0w43lIdQTQTN38rdAlH3TIuXlydQLA6FlgAX10R/6+OgFgdBxfQYdM5S+rEwAquJ4B+un+uSa/Ux0BNFPXNlgu96BTvpDTqhMAKlhgAf20OW+uTgCaqlsHPt16N9B72/O66gSAGg6wgL76cK6qTgCaqjuHPt15J0CS5CP5RXUCQA1XNUB/jeUz1QlAc3XhDwld6EHHbM7h+VV1BEANCyygvz6Xi6sTgOZq/+FP+98BcC/vc3wF9JcrG6DPnpFvVycATdbmFZaLPOic9Tk4K6ojAKpYYAF99p38R3UC0GTtPQRqbzmwU2c7vgL6zNUN0G8n5ELfhMCutHGF5WsNOmhlHpN11REAdSywgH67OF+pTgCarX2HQe0rBqbhzY6vgH5zhQP03eG5IgurI4Bma9MKy8UddNIvc3i2VEcAVLLAAvpuST5RnQA03byWHAu1pROYsdc7vgL6zlUOwCOzJHtWRwDN1/Qdlss66KwlOSrbqiMAallgAfwy769OANqg2QdEza4D5uQvHV8BuNYBSA7Itdm3OgJohybusFzQQaddnBMb+dUDMFIWWADJyryzOgFoi+YdFjWvCBiov3J8BeCKB+BO+2Q8D6uOANqjKb9NupSDzvtOnlmdANAEFlgASbI+f1+dALRJE/69vyY0AEM2lb+uTgBoBtc9AHe6f5bkd6sjgLapWmK5hIOe+EzOqE4AaAYLLIA7bc4bqxOA9qlYQVleQW9szxuqEwCawgEWwK99JFdVJwBtNMoDJYdX0CsfztXVCQBN4RoI4C6n5XPVCUCbDfMPCl20Qe9szmG5oToCoCkssADu8oVcWJ0AtNm8oSykhvPfCjTeexxfAdzF1RDA3T0136tOALphEGssF2rQY3fk4KyqjgBoDgssgLv793y/OgHohnm/eY3uPwl0yNmOrwDuzpURwD09IRf7bgSG6d7bLF85wH2syCFZVx0B0CQWWAD39ON8qToB6LZ593oB3McbHV8B3JNrJoB7OzxXZGF1BADQW9fn8ExURwA0y4LqAIDGWZVH5bHVEQBAb/2fubQ6AaBpLLAA7uugLM1e1REAQC/9PMdlsjoCoGkssADua10ekidVRwAAvfSqLKlOAGgeCyyAHTkg49mvOgIA6J3/yknVCQBNZIEFsCMbs2eeXB0BAPTOWbm+OgGgiSywAHZsnyzLw6sjAIBe+UaeW50A0EwWWAA7NpFteWZ1BADQI5NZnFurIwCayQILYGf2yFV5THUEANAbn8zLqhMAmsoCC2BntmdtXlgdAQD0xNYsyu3VEQBNNb86AKDBPpYrqxMAgJ74UJZVJwA0lwUWwM5N5ZacXh0BAPTApoxlXXUEQHNZYAHsypfyo+oEAKAH3pWbqhMAmsxD3AF27ZScW50AAHTcmhzs+VcAu2KBBbBr5+W71QkAQMf9neMrgF2zwALYncfnEt+WAMDQ3JJDsrE6AqDZLLAAducn+Xx1AgDQYW90fAWwOzYFALt3WK7MwuoIAKCTrssRmaiOAGi6BdUBAC2wKr+bx1VHAACd9L9yeXUCQPNZYIkGgGQAAFM2SURBVAFMxyOyNHtXRwAAnfOzPDaT1REAzWeBBTAd67J//qA6AgDonD/J0uoEgDawwAKYnv0znv2rIwCATjk/p1QnALSDBRbA9GzOHnlKdQQA0CkvzQ3VCQDtYIEFMF0PyLL8VnUEANAZX80LqhMA2sICC2C6tmYiz6qOAAA6YjJnZHl1BEBbWGABTN8euSqPqY4AADrhozmrOgGgPSywAKZve9bkRdURAEAHTGRRVldHALTH/OoAgFb5eC6vTgAAOuADubY6AaBNLLAAZmIqN2dxdQQA0HIbsijrqyMA2sQCC2BmvpofVicAAC33jtxanQDQLh7iDjBTJ+e86gQAoMVW52DPvwKYGQssgJk6P9+uTgAAWuxvHV8BzJQFFsDMHZNL3QAAAGbl5hyajdURAG3jFzCAmftZPludAAC01OsdXwHMnAUWwGwcmitzv+oIAKB1rsmR2VYdAdA+C6oDAFrp9hyUJ1RHAACt8z9zRXUCQBtZYAHMzoFZlr2rIwCAVvlJjs9UdQRAG1lgAczO+jwwf1gdAQC0yiszXp0A0E4WWACz9aCM58HVEQBAa5yXU6sTANrKAgtgtjZnYf64OgIAaI3FubE6AaCtLLAAZm+vLM1B1REAQCt8MS+pTgBoLwssgNnbli15dnUEANAC2zOW26ojANprfnUAQKt90KNYAYBp+Gh+UZ0A0GYWWABzMZlVeXF1BADQcBMZy5rqCIA2s8ACmJtP5bLqBACg4d6b66oTANrNQ9wB5uq5+Vp1AgDQYOtzcFZURwC0mwUWwFx9PT+oTgAAGuztjq8A5soCC2DuTsr51QkAQEOtzMFZWx0B0HYWWABzd0G+UZ0AADTU3zq+Apg7CyyAQTg6l7klAADcx69yWLZURwC0n1+3AAbh5/l0dQIA0EBvcHwFMAgWWACD8ehcnT2qIwCARlmSo7KtOgKgCxZUBwB0xJocmOOrIwCARvkf+UV1AkA3WGABDMqBWZoHVEcAAI1xSZ6YqeoIgG6wwAIYlPXZJydXRwAAjXFWrq1OAOgKCyyAwXlQxvPg6ggAoBG+m2dUJwB0hwUWwOBszrw8tToCAGiAqbw8N1VHAHSHBRbAIO2Va/Lb1REAQLnPZaw6AaBLLLAABmlbNuW51REAQLHtGcvK6giALplfHQDQMedkSXUCAFDsX3JVdQJAt1hgAQzWZFblJdURAEChzVmUtdURAN1igQUwaJ/OT6sTAIBC/5QbqhMAusZD3AEG71n5ZnUCAFDkjhycVdURAF1jgQUweN/Kf1YnAABF3u74CmDwLLAAhuGEXOgbFgB66LYcnHXVEQDdY4EFMAwX5+vVCQBAgTc6vgIYBvsAgOE4Kpe7SQAAPXN9jsiW6giALlpQHQDQUStySI6tjgAARur/8m8RAwyHBRbAsDwqV2fP6ggAYGSuyLGZrI4A6CYLLIBhWZOH54TqCABgZP48V1cnAHSVBRbA8Dw049m3OgIAGImLc2KmqiMAusoCC2B4NmbvnFIdAQCMxCtyXXUCQHdZYAEM0wMznodURwAAQ/etPLs6AaDLLLAAhmlLpvK06ggAYMimckZuqY4A6DILLIDhun+uye9URwAAQ/WpvLQ6AaDbLLAAhmtb1ud51REAwBBty+lZVR0B0G3zqwMAOu9fclV1AgAwROdkSXUCQNdZYAEM21Ruy6LqCABgSDZlLGurIwC6zgILYPg+l4urEwCAIXl3bqxOAOg+D3EHGIVn5NvVCQDAEKzJwbm9OgKg+yywAEbhO/mP6gQAYAj+3vEVwChYYAGMxvG5yHcuAHTMLTk0G6ojAPrAAgtgNC7JV6oTAIABe5PjK4DRsAYAGJXDc0UWVkcAAANzXY7IRHUEQD8sqA4A6I1VOTjHVUcAAAPzv3NZdQJAX1hgAYzOI7Mke1ZHAAAD8fMcl8nqCIC+sMACGJ07ckBOrI4AAAbiT3NNdQJAf1hgAYzSARnPftURAMCcXZCTqxMA+sQCC2CUNmavnFodAQDM2Zn5ZXUCQJ9YYAGM1j4Zz8OqIwCAOflanl+dANAvFlgAozWRyTyjOgIAmIPJLM6t1REA/WKBBTBq98+S/G51BAAwax/PK6oTAPrGAgtg1LZlnT87AIDW2ppFWV0dAdA386sDAHroI/lFdQIAMEsfyHh1AkD/WGABjN5UlmesOgIAmIUNWZT11REA/WOBBVDhi7mwOgEAmIV3eXw7QAUPcQeocWp+UJ0AAMzQ6hzs+VcAFSywAGqcm+9XJwAAM/RWx1cANSywAKo8IRf7FgaAFrk5h2ZjdQRAP1lgAVT5cb5YnQAAzMAbHF8BVHHvH6DOYbkyC6sjAIBpWZojs7U6AqCvFlQHAPTYqjwqj62OAACm5X/l59UJAP1lgQVQ6aAszV7VEQDAbl2ex2WyOgKgvyywACqty0PypOoIAGC3Xpll1QkAfWaBBVDrgIxnv+oIAGCXzsup1QkA/WaBBVBrY/bMk6sjAIBdWpwbqxMA+s0CC6DaPlmWh1dHAAA79eW8qDoBoO8ssACqTWRbnlkdAQDsxPaM5bbqCIC+s8ACqLdHrspjqiMAgB36SP6kOgEACyyAetuzNi+sjgAAdmAiY1ldHQHA/OoAAJJ8LFdWJwAAO/DPubY6AQALLIBmmMotOb06AgC4l/UZy4bqCAAssACa4kv5UXUCAHAv/5Dl1QkAJB7iDtAcp+Tc6gQA4G5W5uCsrY4AILHAAmiO8/Ld6gQA4G7e4vgKoCkssACa49j81I0FAGiIm3JoNlVHAHAnvygBNMfl+UJ1AgDw317n+AqgOSywAJrksFyZhdURAECW5Khsq44A4NcWVAcAcDer8jt5fHUEAJC/yJXVCQDcxQILoFkekaXZuzoCAHruxzkhU9URANzFAgugWdZl//xBdQQA9NyZubY6AYC7s8ACaJr9M579qyMAoMf+PU+rTgDgniywAJpmc+6XP6qOAIDemsrLc2N1BAD3ZIEF0DwPyLL8VnUEAPTU57OoOgGAe7PAAmierZnIs6ojAKCXtmcsK6sjALi3+dUBAOzA+z06FgBKfCRXVScAcF8WWABNNJk1eVF1BAD0zuYsyh3VEQDclwUWQDN9PJdXJwBA77w3v6pOAGBHLLAAmmkqN2dxdQQA9Mq6nJ4N1REA7IgFFkBTfTU/rE4AgF45OyuqEwDYsXnVAQDs1Mk5rzoBAHrjthycddURAOyYBRZAc52fb1UnAEBvvNnxFUBzWWABNNkxudStBgAYgV/m8GypjgBgZ/xaBNBkP8tnqxMAoBde5/gKoMkssACa7dBcmftVRwBAx12do7OtOgKAnVtQHQDALt2eg/KE6ggA6LhX5arqBAB2xQILoOkOzLLsXR0BAB12cU7MVHUEALtigQXQdOuzX06qjgCADjsz11UnALBrFlgAzfegjOfB1REA0FHfzrOqEwDYHQssgObbnIX54+oIAOikqZyRW6ojANgdCyyANtgrS3NQdQQAdNBnckZ1AgC7Z4EF0AbbsjnPqY4AgM7ZnrGsrI4AYPfmVwcAMC0fynh1AgB0zjm5ujoBgOmwwAJoh8msyourIwCgUzZnUdZWRwAwHRZYAG3xqVxWnQAAnfKe3FidAMD0eIg7QHs8N1+rTgCAzrgjB2dVdQQA02OBBdAeX88PqhMAoDPe5vgKoD0ssADa5KScX50AAJ2wIodkXXUEANNlgQXQJhfkG9UJANAJf+P4CqBNLLAA2uXoXObmAwDM0fU5PBPVEQBM34LqAABmZEUOyzHVEQDQcv/bv+0L0C4WWABt86gsyR7VEQDQYj/PcZmsjgBgJiywANpmTQ7M8dURANBif5ZrqhMAmBkLLID2OTBL84DqCABoqf/KSdUJAMyUBRZA+6zPPjm5OgIAWuqsXF+dAMBMWWABtNGDMp4HV0cAQAt9I8+tTgBg5iywANpoc+blqdURANA6k1mcW6sjAJg5CyyAdrp/lua3qyMAoGU+kZdXJwAwGxZYAO20LZv8CQQAzMjWnJbV1REAzMb86gAAZumcXF2dAACt8qGMVycAMDsWWABtNZlVOa06AgBaY1PGsq46AoDZscACaK/P5KfVCQDQGu/MTdUJAMyWh7gDtNmz8s3qBABohTU5OLdXRwAwWxZYAG32rfxndQIAtMJbHV8BtJkFFkC7nZALfZcDwG7ckkOysToCgNmzwAJot4vzteoEAGi8v3F8BdBu7toDtN1RudztCADYhaU5MlurIwCYiwXVAQDM0YockmOrIwCgwf5/+Vl1AgBzY4EF0H6PytXZszoCABrqZ3lsJqsjAJgbCyyA9luTh+eE6ggAaKhXZml1AgBzZYEF0AUPzXj2rY4AgAY6P6dUJwAwdxZYAF2wMXu7PAeAHXhpbqhOAGDuLLAAuuGBGc9DqiMAoGG+khdWJwAwCBZYAN2wJZN5enUEADTKZBZneXUEAINggQXQFffPNfmd6ggAaJCP5qzqBAAGwwILoCu2ZX2eVx0BAI0xkUVZXR0BwGDMrw4AYGD+JVdVJwBAY7w/11YnADAoFlgA3TGV27KoOgIAGmF9FmVDdQQAg2KBBdAln8tF1QkA0Ajv9Ph2gC7xEHeAbnl6vlOdAADlVuXg3FEdAcDgWGABdMt38x/VCQBQ7q2OrwC6xQILoGuOz0W+3QHotZtyaDZVRwAwSBZYAF1zSb5SnQAApV7v+Aqga9yjB+iew3NFFlZHAECRa3JktlVHADBYC6oDABi4VXlMjquOAIAi/0euqE4AYNAssAC66JFZkj2rIwCgwI9zQqaqIwAYNAssgC66IwfkxOoIAChwVq6tTgBg8CywALrpgIxnv+oIABixc/Pk6gQAhsECC6CbNmavnFodAQAjtjg3VicAMAwWWABdtU/G87DqCAAYoS/mJdUJAAyHBRZAV01kMs+ojgCAkdmesdxWHQHAcMyvDgBgaN6XX1UnAMDI/Ft+UZ0AwLBYYAF017aszQuqIwBgJCYyljXVEQAMiwUWQJe5Fw1AX7w311UnADA8FlgAXTaV5RmrjgCAoVufsWyojgBgeCywALrtC7mwOgEAhu7tWVGdAMAwzasOAGDITs0PqhMAYKhW5uCsrY4AYJgssAC67tz8e3UCAAzVmx1fAXSdBRZA9z0hF/u+B6CzfpnDs6U6AoDhssAC6L4f54vVCQAwNG9wfAXQfe7IA/TBYbkyC6sjAGAIluSobKuOAGDYFlQHADACq/KoPLY6AgCG4M/zi+oEAIbPAgugHw7K0uxVHQEAA3ZJnpip6ggAhs8CC6Af1uXBeVJ1BAAM2Jm5rjoBgFGwwALoiwMynv2qIwBggL6TZ1YnADAaFlgAfbExe+bJ1REAMDBTeVluqo4AYDQssAD6Y58sy8OrIwBgQD6b06sTABgVCyyA/pjIVn9qAUBHbM/pWVkdAcCozK8OAGCE/jnXVicAwED8S66qTgBgdCywAPpke9bmhdURADBnm7Moa6sjABgdCyyAfvlYrqxOAIA5+8fcUJ0AwChZYAH0y1Ru8chbAFrujoxlU3UEAKNkgQXQN1/Kj6oTAGBOzs6q6gQARmtedQAAI3dKzq1OAIBZuy0HZ111BACjZYEF0D/n5bvVCQAwa290fAXQPxZYAH10bH7qFgYArXR9jsiW6ggARs2vLwB9dHk+X50AALPyWsdXAH1kgQXQT4fmF1lYHQEAM3RFjs1kdQQAo7egOgCAErfnd/L46ggAmKFXZUl1AgAVLLAA+uoRWZq9qyMAYAYuypMyVR0BQAULLIC+Wpf98wfVEQAwA6/I9dUJANSwwALor/0znv2rIwBgmr6Z51QnAFDFAgugvzbnfvmj6ggAmJapnJFbqyMAqGKBBdBnD8iy/FZ1BABMwyfzsuoEAOpYYAH02dZM5FnVEQCwW1uzKLdXRwBQZ351AACl3p/x6gQA2K1zsqw6AYBKFlgA/TaZ1XlRdQQA7NKmjGVtdQQAlSywAPruE7m8OgEAdundubE6AYBaHuIOwPPzleoEANipNTnY868A+s4CC4Cv5ofVCQCwU3/v+AoACywAkpNzXnUCAOzQLTkkG6sjAKhmgQVAcn6+VZ0AADv0RsdXAFhgAXCnY3KpmxoANM51OSIT1REA1PPLCgBJ8rN8tjoBAO7jrx1fAZBYYAHwa4/O1dmjOgIA7uZneWwmqyMAaIIF1QEANMSaHJQnVEcAwN38SZZWJwDQDBZYAPzagVmWvasjAOC/XZCTqxMAaAoLLAB+bX32y0nVEQDw316aG6oTAGgKCywA7vKgjOfB1REAkOSreUF1AgDNYYEFwF02Z0H+uDoCADKZM7K8OgKA5rDAAuDu9srSHFQdAUDvfSxnVicA0CQWWADc3bZsznOqIwDoua1ZlNXVEQA0yfzqAAAa5kMZr04AoOc+4GcRAPdkgQXAPU1mVV5cHQFAj23IoqyvjgCgWSywALi3T+XS6gQAeuydubU6AYCm8RB3AO7rOfl6dQIAPbU6B3v+FQD3ZoEFwH19Iz+oTgCgp97i+AqA+7LAAmBHTsr51QkA9NDNOTQbqyMAaB4LLAB25IJ8ozoBgB56g+MrAHbEAguAHTs6l7nNAcBIXZMjs606AoAmWlAdAEBDrchhOaY6AoBe+Z+5ojoBgGaywAJgZx6VJdmjOgKA3rg8j8tkdQQAzWSBBcDOrMmBOb46AoDeOCvLqhMAaCoLLAB27mFZln2rIwDohfNyanUCAM1lgQXAzm3IPjm5OgKAXlicG6sTAGguCywAduWBuTYPro4AoPO+lBdXJwDQZBZYAOzKlszLU6sjAOi47RnLbdURADSZBRYAu3b/LM1vV0cA0Gn/mj+tTgCg2SywANi1bdmY51ZHANBhExnLmuoIAJptfnUAAI334VxdnQBAh70v11UnANB0FlgA7M5kVuW06ggAOmp9xrKhOgKAprPAAmD3PpOfVicA0FH/kOXVCQA0n4e4AzAdz8o3qxMA6KCVOThrqyMAaD4LLACm41v5z+oEADroLY6vAJgOCywApueEXOinBgADdVMOzabqCADawAILgOm5OF+rTgCgY17r+AqA6XEvHYDpOiqX+ddrARiYJTkq26ojAGgHv4gAMF0rckiOrY4AoDP+IldWJwDQFhZYAEzfo3J19qyOAKATLskTM1UdAUBbWGABMH1r8rA8sToCgE44K9dWJwDQHhZYAMzEQzOefasjAGi97+Xp1QkAtIkFFgAzsTF755TqCABabiovy03VEQC0iQUWADPzwIznIdURALTa5zJWnQBAu1hgATAzWzLpzz4AmIPtGcvK6ggA2mV+dQAArfNPuaE6AYAW+9dcVZ0AQNtYYAEwU9uyPs+rjgCgpTbntKytjgCgbSywAJi5f3HvHIBZeq8dLwAzZ4EFwMxNZUUWVUcA0ELrcno2VEcA0D4WWADMxudzUXUCAC10dlZUJwDQRvOqAwBoqafnO9UJALTMbTk466ojAGgjCywAZue7+Y/qBABa5k2OrwCYHQssAGbr+Fzk5wgA0/bLHJ4t1REAtJMFFgCzdUm+XJ0AQIu8zvEVALPlzjkAs3d4rsjC6ggAWuGKHJft1REAtNWC6gAAWmxVHpPjqiMAaIU/z9XVCQC0lwUWAHPxyCzJntURADTexTkxU9URALSXBRYAc3FHDsiJ1REANN4rcl11AgBtZoEFwNwckPHsVx0BQKN9K8+uTgCg3SywAJibjbl/nlwdAUCDTeWM3FIdAUC7WWABMFf7ZDwPq44AoLE+ncXVCQC0nQUWAHM1kck8ozoCgIbaltOzsjoCgLabXx0AQAe8L7+qTgCgoc7J1dUJALSfBRYAc7cta/OC6ggAGmhzFmVtdQQA7WeBBcAg/Ft+UZ0AQAO9OzdWJwDQBRZYAAzCVJZnrDoCgIZZk9OzqToCgC6wwAJgML6QC6sTAGiYt+X26gQAumFedQAAnXFqflCdAECD3JJDs6E6AoBusMACYFDOzb9XJwDQIG92fAXAoFhgATA4T8jFfrIAkCS5LkdkojoCgK6wwAJgcH6cL1YnANAQr3F8BcDguE8OwCAdliuzsDoCgHI/z3GZrI4AoDsWVAcA0Cmr8sg8rjoCgHJ/lmuqEwDoEgssAAbroCzNXtURAJS6ICdXJwDQLRZYAAzWujw4T6qOAKDUmflldQIA3WKBBcCgHZDx7FcdAUCZr+d51QkAdI0FFgCDtjF75CnVEQAUmcwZubU6AoCuscACYPD2ybI8vDoCgBIfzyuqEwDoHgssAAZvIlvzzOoIAApszaKsro4AoHvmVwcA0En/nGurEwAo8MGMVycA0EUWWAAMw/aszQurIwAYsU0Zy7rqCAC6yAILgOH4WK6sTgBgxN6Rm6oTAOgmCywAhmMqN+eM6ggARmhNzsjm6ggAuskCC4Bh+XJ+VJ0AwAi91ePbARiWedUBAHTYKTm3OgGAEbk5h2ZjdQQAXWWBBcDwnJfvVicAMCJ/4/gKgOGxwAJgmI7NT90sAeiBpTkyW6sjAOguv1QAMEyX5/PVCQCMwGsdXwEwTBZYAAzXobky96uOAGCoLs/jMlkdAUCXLagOAKDjbs/v5PHVEQAM1SuzrDoBgG6zwAJg2B6Rpdm7OgKAoTk/p1QnANB1FlgADNu6PCh/WB0BwNC8NDdUJwDQdRZYAAzf/hnP/tURAAzFl/Oi6gQAus8CC4Dh25z75Y+qIwAYgskszvLqCAC6zwILgFF4QJblt6ojABi4f8srqxMA6AMLLABGYWu25NnVEQAM2ETGsro6AoA+mF8dAEBPfCDj1QkADNg/59rqBAD6wQILgNGYzGqP+QXolPUZy4bqCAD6wQILgFH5RC6vTgBggN7h8e0AjIqHuAMwOs/PV6oTABiQlTk4a6sjAOgLCywARuer+a/qBAAG5K2OrwAYHQssAEbppJxfnQDAANyUQ7OpOgKA/rDAAmCULsi3qhMAGIDXO74CYJQssAAYrWNyqdsnAC13TY7MtuoIAPpkQXUAAD2zPL+Xo6ojAJiTv8iV1QkA9IsFFgCj9uhcnT2qIwCYtR/nhExVRwDQLxZYAIzamhyUJ1RHADBrZ+Xa6gQA+sYCC4DROzDLsnd1BACzcm6eXJ0AQP9YYAEweuuzX06qjgBgVhbnxuoEAPrHAguACg/KeB5cHQHAjH0hp1UnANBHFlgAVNicBfnj6ggAZmh7xnJbdQQAfWSBBUCNvbI0B1VHADAjH86rqhMA6CcLLABqbMvmPKc6AoAZ2JxFuaM6AoB+ml8dAEBvfSjLqhMAmIH35VfVCQD0lQUWAFUmsyovqY4AYJrWZywbqiMA6CsLLADqfDqXVicAME1nZ0V1AgD95SHuAFR6Tr5enQDANKzMY7KuOgKA/rLAAqDSN/KD6gQApuHNjq8AqGSBBUCtk3J+dQIAu/HLHJ4t1REA9JkFFgC1LvBHhACN93rHVwDUssACoNrRucwNFYAGW5Kjsq06AoB+W1AdAEDvrchhOaY6AoCd+vP8ojoBgL6zwAKg3qOyJHtURwCwQxfnxExVRwDQdxZYANRbkwNzfHUEADt0Zq6rTgAACywAmuBhWZZ9qyMAuI/v5JnVCQBggQVAM2zIPjm5OgKAe5nKGbmlOgIALLAAaIoH5to8uDoCgHv4TM6oTgCAxAILgKbYknl5anUEAHezPWNZWR0BAIkFFgDNcf8szW9XRwDwGx/MX1QnAMCdLLAAaIpt2ZjnVkcA8N82Z1HWVkcAwJ3mVwcAwG+ck6urEwD4b+/JDdUJAPBrFlgANMdUVuW06ggAktyR07OpOgIAfs0CC4Am+Ux+Wp0AQJKzs6o6AQDu4iHuADTLM/Ot6gSA3luRQ7KuOgIA7mKBBUCzfDv/WZ0A0HtvdHwFQLNYYAHQNCfkQj+fAApdn8MzUR0BAHdngQVA01ycr1UnAPTaax1fAdA07nAD0DxH5TL/Ti5AkZ/nuExWRwDAPfn1AIDmWZGDc2x1BEBPvSpLqhMA4N4ssABookdmSfasjgDooYvypExVRwDAvVlgAdBEd+RheWJ1BEAPvSLXVycAwH1ZYAHQTA/NePatjgDomW/kudUJALAjFlgANNPG7J1TqiMAemUqZ+TW6ggA2BELLACaat8sy8OqIwB65JN5WXUCAOyYBRYATTWR5OnVEQC9sTWLcnt1BADs2PzqAADYqX/KDdUJAL3xoSyrTgCAnbHAAqC5tmV9nlcdAdALmzKWddURALAzFlgANNm/5KrqBIBeeFduqk4AgJ2zwAKgyaayIouqIwA6b03OyKbqCADYOQssAJrt87moOgGg8/7O49sBaLZ51QEAsBtPz3eqEwA67ZYcko3VEQCwKxZYADTdd/P96gSATnuj4ysAms4CC4DmOz4X+YkFMCTX5YhMVEcAwK5ZYAHQfJfky9UJAJ31asdXADSf+9kAtMHhuSILqyMAOuhneWwmqyMAYHcWVAcAwDSsymNyXHUEQAf9SZZWJwDA7llgAdAOj8yS7FkdAdAx5+eU6gQAmA4LLADa4Y48JCdWRwB0zEtzQ3UCAEyHBRYAbXFAxrNfdQRAh3w1L6hOAIDpscACoC025v55cnUEQGdM5owsr44AgOmxwAKgPfbJeB5WHQHQER/NWdUJADBdFlgAtMdEtucZ1REAnbA1i7K6OgIApmt+dQAAzMB7c111AkAnvD/XVicAwPRZYAHQJtuzziOHAeZsQxZlfXUEAEyfBRYA7fJv+UV1AkDrvSO3VicAwExYYAHQLlNZnrHqCIBWW53F2VwdAQAzYYEFQNt8IRdWJwC02ls8vh2AtplXHQAAM3ZqflCdANBaN+fQbKyOAICZscACoH3Ozb9XJwC01usdXwHQPhZYALTRE3Kxn2EAs3BNjsy26ggAmCkPcQegjW7OUfn96giAFvqfuaI6AQBmzt1rANrpsFyZhdURAC3zkxyfqeoIAJg5CywA2mlVHpnHVUcAtMwrM16dAACzYYEFQFsdlKXZqzoCoEXOy6nVCQAwOxZYALTVujw4T6qOAGiRxbmxOgEAZscCC4D2OiDj2a86AqAlvpiXVCcAwGxZYAHQXhuzR55SHQHQCtszltuqIwBgtiywAGizfbIsD6+OAGiBf82fVicAwOxZYAHQZhPZmmdWRwA03kTGsqY6AgBmb351AADMyT/n2uoEgMZ7b66rTgCAubDAAqDdtueOvLA6AqDR1mcsG6ojAGAuLLAAaLuP58rqBIBG+4esqE4AgLnxEHcA2u+F+VJ1AkBjrczBWVsdAQBzY4EFQPt9OT+qTgBorL91fAVA+1lgAdAFp+Tc6gSARvpVDsuW6ggAmCsLLAC64Lx8pzoBoJHe4PgKgC6wwAKgG47NT92WAbiXJTkq26ojAGDuFlQHAMBALM+RObI6AqBh/kd+UZ0AAINggQVAVxyaK3O/6giABrkkT8xUdQQADIIFFgBdcXt+J4+vjgBokLNybXUCAAyGBRYA3fGILM3e1READfHdPKM6AQAGxQILgO5YlwflD6sjABphKi/PTdURADAoFlgAdMn+Gc/+1READfC5jFUnAMDgWGAB0CWbszB/VB0BUG57xrKyOgIABscCC4BueUCW5beqIwCKfSj/ozoBAAbJAguAbtmaLXl2dQRAqc1ZlLXVEQAwSPOrAwBgwD6Q8eoEgFL/lBuqEwBgsCywAOiayazOi6ojAMrckbFsqo4AgMGywAKgez6Ry6oTAMq8PauqEwBg0DzEHYAuel6+Wp0AUOK2HJx11REAMGgWWAB00dfyX9UJACXe5PgKgC6ywAKgm07K+dUJACN3fY7IluoIABg8CywAuumCfKs6AWDkXuf4CoBussACoKuOyaVu1AC9ckWOzWR1BAAMw4LqAAAYkuU5IkdXRwCM0J/n6uoEABgOCywAuuvRuTp7VEcAjMjFOTFT1REAMBwWWAB015oclCdURwCMyCtyXXUCAAyLBRYAXXZglmXv6giAEfhWnl2dAADDY4EFQJetz345qToCYOimckZuqY4AgOGxwAKg2x6U8Ty4OgJgyD6Vl1YnAMAwWWAB0G2bsyB/XB0BMFTbcnpWVUcAwDDNrw4AgCF7V26sTgAYqnOypDoBAIbLAguArtuWzXlOdQTA0GzKWNZWRwDAcFlgAdB952RZdQLA0LzbzhSA7rPAAqD7JrMqL6mOABiKNTk9m6ojAGDYLLAA6INP5dLqBICheFtur04AgOGbVx0AACPxnHy9OgFg4G7JodlQHQEAw2eBBUA/fCM/qE4AGLg3Ob4CoB8ssADoiz/MBdUJAAN1XY7IRHUEAIyCBRYAffFf/ogQ6JjXOL4CoC8ssADoj6NzmVs3QGf8PMdlsjoCAEZjQXUAAIzMihyWY6ojAAbkT3NNdQIAjIoFFgB98qgsyR7VEQADcEFOrk4AgNGxwAKgT9bkt3JCdQTAAJyZX1YnAMDoWGAB0C8Py7LsWx0BMEdfy/OrEwBglCywAOiXDdnHn90ALTeZxbm1OgIARskCC4C+eWDG85DqCIA5+HheUZ0AAKNlgQVA32xJ8rTqCIBZ25pFWV0dAQCjNb86AABG7j25sToBYNY+kPHqBAAYNQssAPpnWzbmudURALOyIYuyvjoCAEbNAguAPjonV1cnAMzKuzy+HYA+ssACoI+msiqnVUcAzNjqnJHN1REAMHoWWAD002fy0+oEgBl7q8e3A9BP86oDAKDIM/Ot6gSAGbk5h2ZjdQQAVLDAAqCvvp3/rE4AmJG/cXwFQF9ZYAHQXyfkQj8JgdZYmiOztToCAGpYYAHQXxfnq9UJANP2GsdXAPSX+84A9NmRudy/yAu0wuV5XCarIwCgiot2APrsthycY6sjAKbhlVlWnQAAdSywAOi3R2ZJ9qyOANiN83JqdQIAVLLAAqDf7sjD8sTqCIDdWJwbqxMAoJIFFgB999CMZ9/qCIBd+HJeVJ0AALUssADou43Zy5/mAA22PWO5rToCAGpZYAHAvlmWh1VHAOzER/In1QkAUM0CCwAmkjy9OgJghyYyltXVEQBQbX51AAA0wD/lhuoEgB3651xbnQAA9SywACDZlnV5fnUEwH2sz1g2VEcAQD0LLABIkn/NVdUJAPfxD1lenQAATWCBBQBJMpUVWVQdAXAPK7M4W6ojAKAJLLAA4E6fz0XVCQD38NasrU4AgGaYVx0AAI3x9HynOgHgN27KodlUHQEAzWCBBQC/9t18vzoB4Dde5/gKAH7NAgsA7nJ8LvKzEWiEa3JktlVHAEBTWGABwF0uyZerEwCSJK92fAUAd3GXGQDu7vBckYXVEUDv/TgnZKo6AgCaY0F1AAA0yqo8Oo+tjgB678xcW50AAE1igQUA9/S7uSZ7VkcAvfbveVp1AgA0iwUWANzTHXlITqyOAHpsKi/PjdURANAsFlgAcG8HZDz7VUcAvfX5LKpOAICmscACgHvbmPvnydURQE9tz1hWVkcAQNNYYAHAfe2T8TysOgLopQ/nVdUJANA8FlgAcF8T2Z5nVEcAPbQ5i3JHdQQANM/86gAAaKT35rrqBKCH3ptfVScAQBNZYAHAjmzPurygOgLomfU5PRuqIwCgiSywAGDH/i2/qE4AeubsrKhOAIBmssACgB2byq05vToC6JHbsjgT1REA0EwWWACwM1/MhdUJQI+8OeuqEwCgqeZVBwBAg52aH1QnAD3xyxyeLdURANBUFlgAsHPn5t+rE4CeeL3jKwDYOQssANiVJ+RiPy2Bobs6R2dbdQQANJeHuAPArtyco/L71RFA570qV1UnAECTuacMALt2WK7MwuoIoNMuzomZqo4AgCazwAKAXVuVR+Zx1RFAp52Z66oTAKDZLLAAYHcOytLsVR0BdNa386zqBABoOgssANidddk/f1AdAXTUVM7ILdURANB0FlgAsHsPybXZrzoC6KTP5IzqBABoPgssANi9TdkjT6mOADpoe8aysjoCAJpvfnUAALTCO7K8OgHooHNydXUCALSBBRYATMdEJjxmGRiwzVmUtdURANAGFlgAMD3vz7XVCUDHvCc3VicAQDtYYAHA9GzPHXlhdQTQIXfk9GyqjgCAdrDAAoDp+lgur04AOuRtWVWdAABtMa86AABa5IX5UnUC0BErckjWVUcAQFtYYAHA9H05P6xOADrijY6vAGD6LLAAYCZOznnVCUAHXJ/DM1EdAQDtYYEFADNxfr5TnQB0wGscXwHATFhgAcDMHJufugEEzMnPc1wmqyMAoE0WVAcAQMssz5E5sjoCaLVXZUl1AgC0iwUWAMzUobky96uOAFrrv3JSdQIAtI0FFgDM1O357Ty+OgJorbNyfXUCALSNBRYAzNwjsjR7V0cArfSNPLc6AQDaxwILAGZuXR6UP6yOAFpoMotza3UEALSPBRYAzMb+Gc/+1RFA63wiL69OAIA2ssACgNnYnIX5o+oIoGW25rSsro4AgDaaXx0AAC31Ln8GBMzQhzJenQAA7WSBBQCzszVb8uzqCKBFNmUs66ojAKCdLLAAYLY+YEsBzMA7c1N1AgC0lQUWAMzWZG7Pi6sjgJZYkzOyqToCANrKAgsAZu+Tuaw6AWiJv8vt1QkA0F7zqgMAoNWel69WJwAtcEsOycbqCABoLwssAJiLr+Xc6gSgBf7G8RUAzIUFFgDMzUk5vzoBaLilOTJbqyMAoM0ssABgbi7IN6sTgIZ7neMrAJgbCywAmKujc5lbQsBO/SyPzWR1BAC024LqAABovRU5IkdXRwCN9cosrU4AgLazwAKAuXt0rs4e1RFAI52fU6oTAKD9LLAAYO7W5KA8oToCaKSX5obqBABoPwssABiEA7Mse1dHAI3zlbywOgEAusACCwAGYX32zUnVEUDDTGZxlldHAEAXWGABwGA8KON5cHUE0CgfzVnVCQDQDRZYADAYm7Mgf1wdATTIRBZldXUEAHTD/OoAAOiMd+XG6gSgQd6fa6sTAKArLLAAYFC2ZXOeUx0BNMSGLMqG6ggA6AoLLAAYnHOyrDoBaIh3eHw7AAyOBRYADM5kVuUl1RFAA6zKGdlSHQEA3WGBBQCD9KlcWp0ANMBbc0d1AgB0ybzqAADomGfnG9UJQLGbc0g2VUcAQJdYYAHAYH0zP6hOAIq93vEVAAyWBRYADNoT8yM/YaHHrsmR2VYdAQDdYoEFAIN2kT8ihF77a8dXADBo7g8DwOAdncvcJIKe+kmOz1R1BAB0zYLqAADooBU5NMdURwAlXpnx6gQA6B4LLAAYhkdlSfaojgBG7tw8uToBALrIAgsAhmFNfisnVEcAI7c4N1YnAEAXWWABwHA8LMuyb3UEMFJfzEuqEwCgmyywAGA4NmSfnFwdAYzQ9ozltuoIAOgmCywAGJYHZjwPqY4ARuZf8mfVCQDQVRZYADAsW5I8rToCGJGJjGVNdQQAdNX86gAA6LD3eJwz9MZ7c111AgB0lwUWAAzPtmzMc6sjgBFYn7FsqI4AgO6ywAKAYTonV1cnACPw9qyoTgCALrPAAoBhmsrKnFYdAQzZyizOluoIAOgyCywAGK7P5qfVCcCQ/W3WVicAQLfNqw4AgM57Zr5VnQAM0S9zuP0VAAyXBRYADNu385/VCcAQvcHxFQAMmwUWAAzfCbnQz1zoqCU5KtuqIwCg6yywAGD4Ls5XqxOAIfkrx1cAMHzuBgPAKByZy/3bv9BBl+SJmaqOAIDucykNAKNwWw7OsdURwMCdmeuqEwCgDyywAGA0Hpkl2bM6Ahio7+YZ1QkA0A8WWAAwGnfkoXlidQQwQFN5eW6qjgCAfrDAAoBReWjGs291BDAwn83p1QkA0BcWWAAwKhuzV06tjgAGZHtOz8rqCADoCwssABidfbMsD6uOAAbiQ/kf1QkA0B8WWAAwOhOZytOrI4AB2JxFWVsdAQD9Mb86AAB65b25oToBGIB/9P/LADBKFlgAMErbsi7Pr44A5uiOjGVTdQQA9IkFFgCM1r/mquoEYI7enlXVCQDQLxZYADBaU1mRRdURwBzclpdmojoCAPrFAgsARu3zuag6AZiDN2ZddQIA9M286gAA6KGn5bvVCcAsXZ8jsqU6AgD6xgILAEbve/l+dQIwS69zfAUAo2eBBQAVjs9FfgpDC12RYzNZHQEA/eMh7gBQ4eYcm9+rjgBm7FVZUp0AAH3k3i8A1Dg8V2RhdQQwIxfnxExVRwBAH1lgAUCNVXl0HlsdAczIK3JddQIA9JMFFgBU+d1ckz2rI4Bp+2aeU50AAH1lgQUAVe7IQ3JidQQwTVM5I7dWRwBAX1lgAUCdAzKe/aojgGn5VF5anQAA/WWBBQB1Nub+eXJ1BDANW3Nabq+OAID+ml8dAAC99vasqE4ApuGcLKtOAIA+s8ACgEoT2Z5nVEcAu7EpY1lbHQEAfWaBBQC13pvrqhOA3Xh3bqxOAIB+s8ACgFrbszYvqI4AdmFNTs+m6ggA6DcLLACo9tH8ojoB2IW/9/h2AKhmgQUA1aZya06vjgB24pa8LFurIwCg7yywAKDeF3NhdQKwE2/KxuoEAGBedQAAkOTU/KA6AdiB63JEJqojAAALLABognPzveoEYAf+2vEVADSBBRYANMPjc4mfy9AwP89xmayOAAA8xB0AmuKWHJXfr44A7uFPc011AgCQWGABQHMcliuzsDoC+I0LcnJ1AgBwJwssAGiKVXlkHlcdAfzGS3NDdQIAcCcLLABojoOyNHtVRwBJkq/l+dUJAMCvWWABQHOsy/75g+oIIMlkFufW6ggA4NcssACgSR6Sa7NfdQSQj+XM6gQA4C4WWADQJJuyR55SHQG9tzWLsro6AgC4y/zqAADgHt6R5dUJ0HsfyHh1AgBwdxZYANAsE5nIs6ojoNc2ZFHWV0cAAHdngQUATfP+XFudAL32To9vB4CmscACgKbZnjvywuoI6K3VWZzN1REAwD1ZYAFA83wsl1cnQG+91ePbAaB55lUHAAA78IJ8uToBeunmHJqN1REAwL1ZYAFAE30lP6xOgF56g+MrAGgiCywAaKaTc151AvTO0vx+tlVHAAD3ZYEFAM10fr5TnQC98xrHVwDQTBZYANBUx+anbjXBCF2ex2WyOgIA2JEF1QEAwE4sz+/nqOoI6JGzsqw6AQDYMQssAGiuQ3Nl7lcdAT1xXk6tTgAAdsYCCwCa6/b8dh5fHQE9sTg3VicAADtjgQUATfaILM3e1RHQA1/Ki6sTAICds8ACgCZblwflD6sjoPO2Zyy3VUcAADtngQUAzbZ/xrN/dQR03EfyJ9UJAMCuWGABQLNtzsL8UXUEdNpExrK6OgIA2JX51QEAwG68K7dWJ0CnvS/XVicAALtmgQUATbc1W/Ls6gjorPUZy4bqCABg1yywAKD5PpDx6gTorH/I8uoEAGB3LLAAoPkmc3teXB0BnbQyi7OlOgIA2B0LLABog0/msuoE6KS3ZG11AgCwe/OqAwCAaXlevlqdAJ1zUw7NpuoIAGD3LLAAoB2+lnOrE6BzXuf4CgDawQILANripJxfnQCdsiRHZVt1BAAwHRZYANAWF+Sb1QnQKa92fAUAbWGBBQDtcXQuc/MJBuTHOSFT1REAwPQsqA4AAKZtRY7I0dUR0BFn5trqBABguiywAKBNHp2rs0d1BHTA9/L06gQAYPossACgTdbkETm+OgJabyovy03VEQDA9FlgAUC7HJhl2bs6Alru81lUnQAAzIQFFgC0y/rsm5OqI6DVtmcsK6sjAICZsMACgLZ5UMbz4OoIaLFz8ufVCQDAzFhgAUDbbM78PLU6Alprc07L2uoIAGBm5lcHAAAz9u7cWJ0ArfXe3FCdAADMlAUWALTPtmzOc6ojoJXW5fRsqI4AAGbKAgsA2uicLKtOgFY6OyuqEwCAmbPAAoA2msyqvKQ6Alrntrw0E9URAMDMWWABQDt9KpdWJ0DrvCnrqhMAgNmYVx0AAMzSs/ON6gRolV/m8GypjgAAZsMCCwDa6pv5QXUCtMrrHF8BQFtZYAFAez0xP/KzHKbpyhyb7dURAMDsWGABQHtdlK9XJ0Br/LXjKwBoL3dtAaDNjsrlbkfBNFycEzNVHQEAzNaC6gAAYA5W5NAcUx0BLfCKXFedAADMngUWALTbo3J19qyOgIb7dp5VnQAAzIUFFgC025r8Vk6ojoBGm8oZuaU6AgCYCwssAGi7h2VZ9q2OgAb7dBZXJwAAc2OBBQBttyEPyCnVEdBY23J6VlZHAABz498tAoD2OzurqhOgsT6cq6sTAIC5ssACgPbbkuRp1RHQSJuzKGurIwCAubLAAoAueE9uqE6ARnp3bqxOAADmzgILALpgWzbkedUR0Dhrcno2VUcAAHNngQUA3eA5P3Bfb8vt1QkAwCBYYAFAN0xlZU6rjoBGuSUvz9bqCABgECywAKArPpufVidAo7w5G6oTAIDBmFcdAAAMzDPzreoEaIzrc3gmqiMAgMGwwAKA7vh2/qM6ARrjNY6vAKA7LLAAoEtOyIV+ukOSn+e4TFZHAACD4iHuANAlN+WxOaI6Ahrgz3JNdQIAMDju0QJAtxyRn2dhdQQU+6+cVJ0AAAySBRYAdMvKHJJjqyOg2Fm5vjoBABgkCywA6JpHZkn2rI6AQl/P86oTAIDBssACgK65Iw/NE6sjoMxkzsit1REAwGBZYAFA9zw049m3OgKKfCIvr04AAAbNAgsAumdj9sqp1RFQYmtOy+rqCABg0OZXBwAAQ3B2VlQnQIkPZrw6AQAYPAssAOiiiUzl6dURMHKbMpZ11REAwOBZYAFAN703N1QnwMi9MzdVJwAAw2CBBQDdtC3r8vzqCBipNTkjm6ojAIBhsMACgK7611xVnQAj9dbcXp0AAAyHBRYAdNVUlmesOgJG5ua8IlurIwCA4bDAAoDu+kIuqk6AkfmbbKxOAACGZV51AAAwRE/Ld6sTYCSW5kj7KwDoLgssAOiy7+X71QkwEq91fAUAXWaBBQDddnwu8vOezvtZHpvJ6ggAYHg8xB0Auu3mHJPfq46AIXtlllYnAADD5I4sAHTd4bkiC6sjYIjOzynVCQDAcFlgAUDXrcqj89jqCBiil+aG6gQAYLgssACg+w7K0uxVHQFD8pW8sDoBABg2CywA6L51OSAnVkfAUExmcZZXRwAAw2aBBQB9cEDGs191BAzBv+WV1QkAwPBZYAFAH2zM/fPk6ggYuImMZXV1BAAwfPOrAwCAkXi7P7Oig96fa6sTAIBRsMACgH6YyLY8szoCBmp9FmVDdQQAMAoWWADQF+/LddUJMFDvsCsEgL6wwAKAvtietXlBdQQMzMqckS3VEQDAaFhgAUB/fDS/qE6AgXlr1lYnAACjYoEFAP0xlVtzenUEDMRNOTPbqiMAgFGxwAKAPvliflSdAAPx+myqTgAARmdedQAAMFKn5NzqBJiza3Kk/RUA9IkFFgD0y3n5XnUCzNmrHV8BQL9YYAFA3zw+l7gCoNV+nBMyVR0BAIySh7gDQN/ckqPy+9URMAdn5drqBABgtNx/BYD+OSxXZmF1BMzSuXlydQIAMGoWWADQP6vyu3lcdQTM0uLcWJ0AAIyaBRYA9NEjsix7VUfALHwhp1UnAACjZ4EFAH20LvvnD6ojYMa2Zyy3VUcAAKNngQUA/fSQjOeB1REwQ/+SP6tOAAAqWGABQD9tyv3ylOoImJHNOS13VEcAABXmVwcAAEXemeXVCTAj78uvqhMAgBoWWADQVxOZyLOqI2Da1mcsG6ojAIAaFlgA0F/vz7XVCTBtZ2dFdQIAUMUCCwD6a3vuyAurI2BaVual2VIdAQBUscACgD77WC6vToBpeXPWVicAAHXmVQcAAKVekC9XJ8Bu/TKH218BQJ9ZYAFAv30lP6xOgN16veMrAOg3CywA6LuTc151AuzSkhyVbdURAEAlCywA6Lvz8+3qBNilv3R8BQB9Z4EFAByTS93UorEuyRMzVR0BANRaUB0AAJRbnt/PUdURsBNn5rrqBACgmgUWAJAcmitzv+oI2IHv5JnVCQBAPQssACC5Pb+dx1dHwH1M5YzcUh0BANSzwAIAkuQRWZq9qyPgXj6b06sTAIAmsMACAJJkXR6YP6yOgHvYntOzsjoCAGgCCywA4E4PyrXZvzoC7uaD+YvqBACgGSywAIA7bc7C/FF1BPzG5izK2uoIAKAZ5lcHAACN8a7cWp0Av/GPuaE6AQBoCgssAODXtmZznl0dAUmSOzKWTdURAEBTWGABAHf5YMarEyBJcnZWVScAAM1hgQUA3GUyt+fF1RGQFXlZJqojAIDmsMACAO7uk7msOgHyxqyrTgAAmmRedQAA0DDPy1erE+i563NEtlRHAABNYoEFANzT13JudQI991rHVwDAPVlgAQD3dlLOr06gx36e4zJZHQEANIsFFgBwbxfkm9UJ9NirHV8BAPdmgQUA3NfRucxtLkpclCdlqjoCAGiaBdUBAEADrcjhObo6gl56Ra6vTgAAmscCCwDYkUfn6uxRHUHvfDPPqU4AAJrIAgsA2JE1eUSOr46gZ6ZyRm6tjgAAmsgCCwDYsQOzNA+ojqBXPpmXVScAAM1kgQUA7Nj67JuTqiPoka1ZlNurIwCAZvLvCwEAO/P3jhMYoXOyrDoBAGgqCywAYGc2Z36eWh1BT2zKWNZWRwAATWWBBQDs3LtzY3UCPfEu/7cGAOycBRYAsHPbsjnPqY6gB9bkjGyqjgAAmssCCwDYFc8lYhT+zvPWAIBdscACAHZlMivzkuoIOu6WvDxbqyMAgCazwAIAdu3TubQ6gY57YzZWJwAAzTavOgAAaLxn5xvVCXTYdTkiE9URAECzWWABALvzzfygOoEOe7XjKwBgdyywAIDde2J+5KqBofhZHpvJ6ggAoOk8xB0A2L2b8vgcXh1BJ/1JllYnAADN514qADAdR+Vyjx5g4C7IydUJAEAbWGABANOxIofmmOoIOueluaE6AQBoAwssAGB6HpWrs2d1BJ3y1bygOgEAaAcLLABgetbk4TmhOoIOmcwZWV4dAQC0gwUWADBdD8149q2OoDM+ljOrEwCAtrDAAgCma2MekFOqI+iIrVmU1dURAEBb+NeEAIDpOzurqhPoiPdnvDoBAGgPCywAYPq2ZCpPq46gAzZkUdZXRwAA7WGBBQDMxD/mhuoEOuCdubU6AQBoEwssAGAmtmVDnlcdQcutzuJsro4AANrEAgsAmJkP5+rqBFruLR7fDgDMjAUWADAzU1mZ06ojaLGbc2a2VkcAAO1igQUAzNRn85PqBFrs9dlYnQAAtM286gAAoIWekW9XJ9BS1+TIbKuOAADaxgILAJi57+Q/qhNoqdc4vgIAZs4CCwCYjRNyoesIZuwnOT5T1REAQPt4iDsAMBs35bE5ojqC1nllxqsTAIA2cucUAJidI/LzLKyOoFXOy6nVCQBAO1lgAQCzszIH57jqCFplcW6sTgAA2skCCwCYrUdmSfasjqA1vpQXVycAAG1lgQUAzNYdeWieWB1BS2zPWG6rjgAA2soCCwCYvYdmPPtWR9AK/5o/rU4AANrLAgsAmL2N2ctjuZmGiYxlTXUEANBe86sDAIBWOzsrqhNogffluuoEAKDNLLAAgLmYyFSeXh1Bw63PWDZURwAAbWaBBQDMzXvzq+oEGu4fsrw6AQBoNwssAGButmVdnl8dQYOtzOJsqY4AANrNAgsAmKuP5KrqBBrsb7O2OgEAaDsLLABgrqayPGPVETTUr3JWtldHAABtZ4EFAMzdF3JRdQIN9QZ/PggAzN286gAAoBOelu9WJ9BAS3JUtlVHAADtZ4EFAAzC9/L96gQa6K8cXwEAg2CBBQAMxhNysSsL7uGSPDFT1REAQBd4iDsAMBg355j8XnUEjXJWrq1OAAC6wX1SAGBQDs8VWVgdQWN8N8+oTgAAusICCwAYlFV5dB5bHUFDTOXluak6AgDoCgssAGBwDsrS7FUdQSN8LmPVCQBAd1hgAQCDsy4PyZOqI2iA7RnLyuoIAKA7LLAAgEE6IOPZrzqCcufkz6sTAIAuscACAAZpY+6fJ1dHUGxzTsva6ggAoEvmVwcAAB3z9iyvTqDYP+WG6gQAoFsssACAwZrItjyzOoJC63JGNlRHAADdYoEFAAza+3JddQKF3pYV1QkAQNdYYAEAg7Y9a/OC6giK3JaXZqI6AgDoGgssAGDwPporqxMo8qasq04AALpnXnUAANBJL8oXqxMocH2OyJbqCACgeyywAIBh+FJ+VJ1Agdc5vgIAhsECCwAYjlNybnUCI3ZFjsv26ggAoIsssACA4Tgv36tOYMT+2vEVADAcFlgAwLA8Ppe41uiRi3NipqojAIBuWlAdAAB01i05MkdWRzAyr8h11QkAQFe5KwoADM9huTILqyMYiW/l2dUJAEB3WWABAMOzKr+bx1VHMAJTOSO3VEcAAN1lgQUADNMjsjR7V0cwdJ/O4uoEAKDLLLAAgGFalwfnD6ojGLJtOT0rqyMAgC6zwAIAhmv/jGf/6giG6v35n9UJAEC3WWABAMO1OXvkKdURDNGmjGVtdQQA0G3zqwMAgM57R5ZXJzBE78mN1QkAQNdZYAEAw7Y1E3lWdQRDsianZ1N1BADQdRZYAMDwvT/XVicwJG/L7dUJAED3WWABAMO3PWvyouoIhuCWvDxbqyMAgO6zwAIARuHjubw6gSF4UzZUJwAAfTCvOgAA6IkX5MvVCQzYdTkiE9URAEAfWGABAKPxlfywOoEBe43jKwBgNCywAIBROTnnVScwQD/PcZmsjgAA+sECCwAYlfPz7eoEBugvHV8BAKNigQUAjM4xudTts464ICdXJwAA/bGgOgAA6JHl+f0cVR3BQJyZX1YnAAD9YYEFAIzSobky96uOYM6+ludXJwAAfWKBBQCM0u05KE+ojmCOJrM4t1ZHAAB9YoEFAIzWgVmWvasjmJOP5xXVCQBAv1hgAQCjtT4PzB9WRzAHW7Moq6sjAIB+8e8AAQCj9tbcXp3AHHww49UJAEDfWGABAKO2OQvzx9URzNKGnJb11REAQN9YYAEAo/fO3FSdwCy9y+PbAYDRs8ACAEZvW7bk2dURzMLqnJHN1REAQP9YYAEAFTxHqZ3e6vHtAEAFCywAoMJkbs+LqyOYoZvzimytjgAA+sgCCwCo8clcVp3ADP1NNlYnAAD9NK86AADorefma9UJzMDSHGl/BQDUsMACAKp8PedWJzADr3F8BQBUscACAOqclPOrE5imy/O4TFZHAAB95SHuAECdX+WEHFodwbS8MsuqEwCA/rLAAgAqHZ3LPNKgBc7LqdUJAECfWWABAJVW5PAcXR3Bbi3OjdUJAECfWWABALUenauzR3UEu/TlvKg6AQDoNwssAKDWmjwix1dHsAvbM5bbqiMAgH6zwAIAqh2YpXlAdQQ79ZH8SXUCANB3FlgAQLX12ScnV0ewExMZy+rqCACg7/yrPwBAvbfl9uoEduKfc211AgCABRYAUG9z5uep1RHswPqMZUN1BACABRYA0ATvzo3VCezAO7K8OgEAwAILAGiGbdmU51ZHcC8rc0a2VEcAAFhgAQBN8eEsq07gXt6atdUJAACJBRYA0BSTWZmXVEdwNzflzGyrjgAASCywAIDm+HQurU7gbl6XTdUJAAB3mlcdAADwG8/ON6oT+G/X5Ej7KwCgKSywAIDm+Gb+szqB//Zqx1cAQHNYYAEATXJCLnR90gA/zgmZqo4AAPg1D3EHAJrkpjw+h1dHkDNzbXUCAMBd3OEEAJrlqFzuIQfFzs2TqxMAAO7OAgsAaJYVOTTHVEf02lQW58bqCACAu7PAAgCa5lG5OntWR/TY57OoOgEA4J4ssACAplmTh+eE6oje2p6xrKyOAAC4JwssAKB5Hprx7Fsd0VMfzquqEwAA7s0CCwBono15QE6pjuilzVmUO6ojAADuzb/xAwA00dlZVZ3QS+/Lr6oTAADuywILAGiiLZnK06ojemd9xrKhOgIA4L4ssACAZvrH3FCd0DtnZ0V1AgDAjlhgAQDNtC0b8rzqiF65LYszUR0BALAjFlgAQFN9OFdVJ/TKm7OuOgEAYMcssACApprKbVlUHdEbv8wrs706AgBgxyywAIDm+lx+Up3QG6/PluoEAICdmVcdAACwC8/It6sTeuHqHJ1t1REAADtjgQUANNl38h/VCb3wl46vAIAms8ACAJrthFzoimXILs6JmaqOAADYOQ9xBwCa7aYclyOqIzruzFxXnQAAsCvuZwIATXd4rsjC6ogO+3aeVZ0AALBrFlgAQNOtysE5rjqis6ZyRm6pjgAA2DULLACg+R6ZJdmzOqKjPpMzqhMAAHbHAgsAaL478tA8sTqik7ZnLCurIwAAdscCCwBog4dmPPtWR3TQB/J/VCcAAOyeBRYA0AYbc/+cWh3ROZuzKGurIwAAdm9+dQAAwLScnRXVCZ3zntxYnQAAMB0WWABAO0xkKk+vjuiUO3J6NlVHAABMhwUWANAW782vqhM65W1ZVZ0AADA9FlgAQFtsy7o8vzqiM1bk5ZmojgAAmB4LLACgPT6Sq6oTOuONWVedAAAwXRZYAEB7TGV5xqojOuH6/Em2V0cAAEyXBRYA0CZfyIXVCZ3wGn8+CAC0ybzqAACAGXlqvled0Ho/z3GZrI4AAJg+CywAoF3+Pd+vTmi9Vzu+AgDaxQILAGibJ+Ri1zBz8F85qToBAGBmPMQdAGibm3NMfq86osXOyvXVCQAAM+PuJQDQPofniiysjmipb+S51QkAADNlgQUAtM+qPCqPrY5opckszq3VEQAAM2WBBQC00UFZmr2qI1roE3l5dQIAwMxZYAEAbbQuD8mTqiNaZ2tOy+rqCACAmZtfHQAAMCtvydrqhNb5UMarEwAAZsMCCwBop43ZM0+ujmiVTRnLuuoIAIDZsMACANrqH7K8OqFV3pmbqhMAAGbHAgsAaKuJbMszqyNaY03OyKbqCACA2bHAAgDa6325rjqhNf4ut1cnAADMlgUWANBe27M2L6iOaIVb8vJsrY4AAJgtCywAoM0+miurE1rhb7KxOgEAYPbmVQcAAMzJi/LF6oTGW5oj7a8AgDazwAIA2u1L+VF1QuO9zvEVANBuFlgAQNudknOrExrtZ3lsJqsjAADmwgILAGi78/Ld6oRG+38dXwEAbWeBBQC03+NziauanTg/p1QnAADM1YLqAACAObslR+bI6oiGemluqE4AAJgr9yoBgC44LFdmYXVEA30lL6xOAACYOwssAKALVuV387jqiMaZzOIsr44AAJg7CywAoBsekaXZuzqiYT6as6oTAAAGwQILAOiGddk/f1Ad0SgTWZTV1REAAIMwvzoAAGBA3uK45h7en2urEwAABsMCCwDois3ZI0+pjmiMDVmUDdURAACDYYEFAHTHO3JrdUJjvMPj2wGA7rDAAgC6Y2sm8qzqiEZYncXZXB0BADAoFlgAQJd8wHOfkiR/63lgAECXWGABAF2yPWvyouqIcjfnzGytjgAAGBwLLACgWz6ey6sTyr0+G6sTAAAGaV51AADAgL0gX65OKHVNjsy26ggAgEGywAIAuuYr+WF1Qqm/dnwFAHSNBRYA0D0n57zqhDI/yfGZqo4AABgsD3EHALrnVzkxh1RHFHllxqsTAAAGzQILAOiiY3JpLx+VcG6eXJ0AADB4FlgAQBctz+/nqOqIAotzY3UCAAAAANNzaCYy1bPXF6o/dACA4bDAAgC66fYclCdUR4zU9ozltuoIAAAAAKbvwGwo30SN8vXh6g8cAGBYLLAAgK5anwfmD6sjRmYiY1lTHQEAAADAzDwoq8p3UaN6vaP6wwYAGB4LLACguzZnYf64OmIk1mcsG6ojAAAAAJi5vXJj+TZqFK/XV3/QAADDZIEFAHTZtmzJs6sjhm5lFmdLdQQAAAAAs3O/LCvfRw379X9Xf8gAAMNlgQUAdNtkVuXF1RFD9cucle3VEQAAAADM3vxcWr6RGubrldUfMAAAAABz9dzyQ6bhva7OwuqPFwAAAIC5+0H5QdOwXi+q/mgBAAAAGISTyg+ahvO6OPOqP1oAAAAABuPr5YdNw3j9UfXHCgAAAMCgHJ3t5cdNg359p/pDBQAYjQXVAQAAI7Eih+fo6oiBmsrLc1N1BAAAAACD8+hsKd9MDfL1meoPFABgVCywAIC+WJNH5PjqiIHZntOzsjoCAAAAgME6MOvLd1ODen2w+sMEABgdCywAoD/WZ5+cXB0xEJuzKGurIwAAAAAYvAdlVfl2ahCvt1V/kAAAo2SBBQD0yebMy1OrI+bsjoxlU3UEAAAAAMOxV24o30/N9fWa6g8RAGC0LLAAgH7Zlk15bnXEnNyWl2aiOgIAAACA4VmYq8s3VHN5/e/qDxAAAACAYVtcfgg1+9d12bP64wMAAABg2OblJ+UHUbN9vaL6wwMAAABgFJ5VfhA1u9fPM7/6owMAAABgNP6j/DBqNq/nVX9sAAAAAIzKCZksP46a6euizKv+2AAAAAAYna+WH0jN9PWU6o8MAAAAgFE6KtvLj6Rm8vpG9QcGAFBlQXUAAECRFTkkx1ZHTNtUzsit1REAAAAAjNajsrl8VzXd1yerPywAgDoWWABAf63Jw3NCdcS0bM1pub06AgAAAIDRe2jWlm+rpvN6X/UHBQBQyQILAOizjXlATqmO2K1NGcva6ggAAAAAajwwK8v3Vbt7vbX6QwIAqGWBBQD025ZM5WnVEbu0JqdnU3UEAAAAAHXun1+Vb6x29frL6g8IAKCaBRYA0HfbsiHPq47YqVvysmytjgAAAACg1oL8onxntbPX/6z+cAAAAABogrHyg6odv67NHtUfDQAAAABNMC8XlR9W7ei1uPqDAQAAAKApnlF+WHXf188yv/pjAQAAAKA5vl9+YHXv17OrPxIAAAAAmuT4TJYfWd39dX71BwIAAABA03yp/NDq7q9Tqz8OAAAAAJrm8GwtP7b69eur1R8GAAAAAE30kfKDqztf23Nc9UcBAAAAQBM9MpvLD6+mMpWPVn8QAABNsqA6AACgQe7IATmxOiJbsyirqyMAAAAAaKYDsrZ8f/WP1R8CAECzWGABANzdxty/+N//25BFWV/9MQAAAADQXPtkeen+6k3VHwAAQNNYYAEA3NNEJvOMsv/11VmczdUfAQAAAADNdv/8smx/9f9Uv3kAAAAA2uDPio6vbsre1W8dAAAAgDZYkF+UHGD9efUbBwAAAKAtTis4vromC6vfNgAAAABtMS8/GvkB1lj1mwYAAACgTZ464uOryzK/+i0DAAAA0C7/PtIDrKdXv10AAAAA2uYJmRzZ8dW51W8WAAAAgDb6/MgOsJ5U/VYBAAAAaKPDsnUkx1dfrH6jAAAAALTVh0dwfLUtR1a/TQAAAADa6qBsHPoB1r9Wv0kAgGZbUB0AANBo6/KQIT+faiJjWV39NgEAAABorwNyx1D3V++sfoMAAE1ngQUAsGsbs2eePLT/9vUZy4bqtwgAAABAu+2TW4e2v3pD9ZsDAAAAoAv+7yEdX92W/arfGgAAAABdsEfGh3KA9f+vfmMAAAAAdMUrh3B8dWP2qn5bAAAAAHTFglwx8AOsP61+UwAAAAB0yYsGfHx1dRZWvyUAAAAAuuWHAz3AenH12wEAAACga04Z4PHVJZlX/XYAAAAA6J7vDOwA64+r3woAAAAAXfT4TA7k+Oq71W8EAAAAgK767ACOrybzxOq3AQAAAEBXHZatcz7A+lz1mwAAAACgyz44x+Orbfm96rcAAAAAQJc9IhvmdID1oeo3AAAAAEDXnT2H46tN+Z3qfAAAAAC6bv/cPusDrLdXxwMAAADQB6+Z5fHV2jysOh0AAACAPnhAbpnVAdZrq8MBAAAA6Iv/cxbHVyuyb3U2AAAAAH1xv4zP+ADr/6qOBgAAAKBPzpzh8dX12bM6GQAAAIA+mZ/LZnSAdWZ1MAAAAAB98/wZHF9dkQXVuQAAAAD0z39N+wDrBdWpAAAAAPTRydM8vroo86pTAQAAAOinb03rAOsp1ZkAAAAA9NUx2b7b46tvVUcCAAAA0Gef2s3x1WQeV50IAAAAQJ8dmoldHmB9qjoQAAAAgL57/y6Or7bliOo8AAAAAPruwGzY6QHW+6vjAAAAACD5+50cX23Kb1enAQAAAEDyoKza4QHW31WHAQAAAMCdXr2D46s1eXB1FgAAAADcaa/ceJ8DrFdXRwEAAADAXf7XvY6vlmff6iQAAAAAuMv9suweB1j/qzoIAAAAAO7pZXc7vroue1TnAAAAAMA9zc+lvznAell1DAAAAADc13P/+/jqZ5lfnQIAAAAAO/KfmcpUnlOdAQAAAAA7dlKmckF1BAAAAADs3Nfz5OoEAAAAANi5A6oD4P9rDw4JAAAAAAT9f+0IKwAAAAAAAAAAAAAAAAAAAAAAAAAAwBOrgxRYjTv8XwAAACV0RVh0ZGF0ZTpjcmVhdGUAMjAxOC0wMi0wNlQwOTozOToxNSswMDowMJjvfsAAAAAldEVYdGRhdGU6bW9kaWZ5ADIwMTgtMDItMDZUMDk6Mzk6MTUrMDA6MDDpssZ8AAAAGXRFWHRTb2Z0d2FyZQB3d3cuaW5rc2NhcGUub3Jnm+48GgAAAABJRU5ErkJggg==;" vertex="1" parent="1">
          <mxGeometry x="540" y="10" width="110" height="103.95" as="geometry" />
        </mxCell>
        <mxCell id="lMKxhEZFdJY4erHnloHR-16" style="edgeStyle=orthogonalEdgeStyle;rounded=0;orthogonalLoop=1;jettySize=auto;html=1;entryX=0;entryY=0.5;entryDx=0;entryDy=0;" edge="1" parent="1" source="lMKxhEZFdJY4erHnloHR-12" target="lMKxhEZFdJY4erHnloHR-1">
          <mxGeometry relative="1" as="geometry" />
        </mxCell>
        <mxCell id="lMKxhEZFdJY4erHnloHR-17" value="&lt;font style=&quot;font-size: 20px;&quot;&gt;2. Deploy&lt;/font&gt;" style="edgeLabel;html=1;align=center;verticalAlign=middle;resizable=0;points=[];labelBorderColor=#66FF66;" vertex="1" connectable="0" parent="lMKxhEZFdJY4erHnloHR-16">
          <mxGeometry x="-0.0889" y="1" relative="1" as="geometry">
            <mxPoint as="offset" />
          </mxGeometry>
        </mxCell>
        <mxCell id="lMKxhEZFdJY4erHnloHR-12" value="" style="shape=image;verticalLabelPosition=bottom;labelBackgroundColor=default;verticalAlign=top;aspect=fixed;imageAspect=0;image=data:image/png,iVBORw0KGgoAAAANSUhEUgAAAZAAAAGQCAYAAACAvzbMAAAABmJLR0QAAAAAAAD5Q7t/AAAACXBIWXMAAAsTAAALEwEAmpwYAAAAB3RJTUUH3wkODS8jetDLVAAAAB1pVFh0Q29tbWVudAAAAAAAQ3JlYXRlZCB3aXRoIEdJTVBkLmUHAAAUMklEQVR42u3df7CcdX3o8c9395yThBwSMPSK453WXqxoi1Z6QUEvU5jSVhvbEdvb8KPltpcp2EulYAJjTk52n2c3JGmqwNSrttJpr2AhlEJHQGLKj6ZahVIFmWHgVsY706ugtIVIJD/Oydnne//w5I7tVAWSs3ue3ddrJuNkMPvsfp/v7vt897vPnggAAAAAAAAAAAAAAAAAAAAAAAAAAAAAAAAAAAAAAAAAAAAAAAAAAAAAAAAAAAAAAAAAAAAAAAAAAAAAAAAAAAAAAAAAAAAAAAAAAAAAAAAAAAAAAAAAAAAAAAAAAAAAAAAAAAAAYMEkQ9B/nU4njY2NRa/Xi6qqnAM4nBexlCLnnFNK0Wq1shERkKHR7XaP6/V6r46IV0fEq1NKx+acV6SUlkfEUTnn5UYJDisgVc752xGxN6X0QkTsyTn/U0rp6znnpxqNxtdardaskRKQWijL8ici4ryc8y9HxHERsWT+z4TRgb6oImJm/s9sSunRiLh52bJl26+66qr9hkdAFo2iKJanlH40In4j5/zbEXGUUYFF60sppWsi4vPj4+Nfn5qa6hkSAem7a665ZnLPnj0bUko/k3P+qYhoGhWojX+KiIcj4iNFUdxlOASkL2699dbG448//j9yzh+M77w1BdTb42NjYxc+++yzX7722mutSARkYRRFcUlKqZ1zfpXRgKFzR0ppa7vdfsBQCMgR0+12X9/r9W6PiBMjomFEYGgdiIg/KYriUkMhIIel3W6PNxqNS3LOHzYaMEIvjil9LaX0S61W68tG499n0/f72Lx588qqqm6NiN81GjByVuacf+3MM8+sdu3a9XnDYQXyom3atOm1c3Nzj0TEpNGAkXfr8ccff8F73/veg4ZCQL6vsizPzjnfERHLjAYw746qqs7vdDp7DYWA/Lu63e7ZvV5vR0SMGQ3g3/iHRqNxWqvV+pah8Gmif6XT6ZzT6/XuEQ/gezgx53z31q1bVxoKAfnueJxSVdUNRgL4fnLOp8/MzLhyPbyFFRERW7ZsedXMzMxTxgN40S+eKd05Ozv77quvvrqyAhlR3W73uJmZmYfEA3iJK5FfnJiYGOmP+I98QHq93u9FxH/0dABeRkSuKcvy1JFdhY3yyS/L8pyc8+2eBsBheD6ldEK73X521B74yF6J3u12X19V1f3hanzg8CyNiFUnn3zyXQ8++OBI/UrdkXwL68EHH0y9Xu/3I2Lc3AeOgItWrVp14qg96JEMyM6dO8+IiHeY88CRMjc395cCMgJyzjeEiwWBI+vEsixbAjLEyrK8MCJ+xFwHFuCH0ws3b958rIAMoXa7vSTn3DLNgQVywsGDB88WkGF8sI3G6oj4YXMcWMBVyMj8kNoYoZOacs5rwievgIV10qZNm942Cg90ZK6BWLVq1dj+/ftvClffAwv/A+sJu3bt+oQVyJDYvXv3ReGiQaA/ATlty5YtrxKQ4TmhhWkN9Mn4zMzMagEZAkVR/KeION6cBvqkmVJ66xNPPDHU3zc4EgFJKZ1tPgN9dsptt922REDq76fNZaCfcs5vXrZs2VIBqbFutzuZc/4x0xnot717954hIPU2GRH/wVQGBrAKGerrQUYhIMsjYpWpDAwgIEP92wpHISDHzK9CAPrtrcP84Ib+K81zzicsxvuVUtqRUrot5/xcztnV8fDyn0uNiHhtznltLL53GyYfe+yxdNJJJw3lbyochYC8YhFO+N9qt9t/7KkPR9SWsizvzzmftZju1F133bUyIr41jAM+9D/55pxXLrJ43CcesGDP900RsX8x3afZ2dljhnW8hz4gKaXFdvJ2eprDAr2gNRpPRMS+RXafVghIfR29yO7Pbk9zWBgTExN7I6K3mO5TVVVHD+t4j0JAFtV30aSUsqc5jNTza2i/D8unfwAQEAAEBAABAUBAAEBAABAQAAQEAAEBQEAAQEAAEBAABAQAAQFAQABAQAAQEAAEBAABAUBAAEBAABAQAAQEAAEBQEAAQEAAEBAABAQAAQFAQABAQAAQEAAEBAABAUBAAEBAABAQAAQEAAEBAAEBQEAAEBAABAQAAQEAAQFAQAAQEAAEBAABAQABAUBAABAQAAQEAAEBAAEBQEAAEBAABAQAAQEAAQFAQAAQEAAEBAABAYAXZ8wQ8G9ddNFF6TWvec2yqqpW55zfEhGvSCnNRsQjKaU7W63WN4wSICD8f+12+7hGo7EmItb0er0zvvu/5ZwP/e8fFUXxaErpDxuNxk0bN27cY+RgNHkLi4iIKMvyPSmlx3PO/zPnfMYP+L//ZM75Y1VVfanT6bzJ6IGAMLrxuDznfFtE/NBL+Xc559dWVfXFbrf7FqMIAsLoxeO9OedrD+Mmxnu93t+UZXmO0QQBYUR0Op3X55w/dgRuamnO+aZOp/NWowoCwpBrtVrNqqpuOII3ubSqqs+XZfkOowsCwhAbGxv7zxFx0hG+2WbO+S86nc7PG2EQEIbXf4mIZQtwu8urqvq0t7NAQBhSVVWdtYA336yqaldZlu8x0iAgDJmU0okLfIilOeebfMQXBIQhk3M+qg+HWdLr9R4oy/KdRhwEhOHxfL/mWM751rIsbayDgDAknuzjsZbnnO/etGmTjXUQEOoupXRvv+fa3NzcrqIobKyDgFDzgPxt9O9trEOWRsRNnU7nVGcABISa6vV6j0bEQwM49JKqqh4oy/IXnAUQEGqoLMs8NjZ24YAO38w539Ltdn/WmQABoYamp6e/2Wg0fiEiqgEcfrLX6+2wsQ4CQk21Wq0dKaXfmP9r7vdKpNfr/bWvggcBoaba7faNKaVfjYjU72PnnJflnLeXZemKdRAQahqRW1NKvx4RvQEcfiIivmBjHQSE+kbkkymlCwZx7JxzM+d8S1EUP+dMgIBQz4jcklI6b0ArkcmI2FGW5enOBAgI9YzI9gFurDdyzvf5KngQEOobkU8OamM9IpblnG92xToICPWNyEA31quqeqAoinc5EyAg1HclcsGADt+MiO1lWbpiHQSEmkbklogY1Mb68pzzZ8qyfJszAQJCDRVFMeiN9XttrIOAUN+VyCcjYk0McGO9LEsb6yAg1HQl8ueD3FjPOT9QlqWNdRAQ6roSGeTG+vx3Z53tTICAUM+IHLpifW4Ah1+ec/4rG+sgINQ3IttTSr85/9d+b6yn+Y11XwUPAkJNIzLojfXtRVHYWAcBoY6KovjziLgwBvObDQ99FfwvOhMgINQzIjemlM4f0OHHcs43F0VhYx0EhDoa9MZ6ROzsdDpvdyZAQKhnRLanlC6a/2vfr1ivquqeoihsrIOAUNOI3DD/dtZANtYj4uayLN/oTICAUM+I3JxSunAAq5CIiCU558+WZXmcMwECQj0jcmOj0fi1AR3+mJzznzkLICDUVKvVumk+IoPYWD+tLMs3OwsgINQ3In/WaDT++/xf+/mW1oqIONMZAAGh3hG5cRAb6znnnzP6ICDUXLvdvjki/lv094r1nzDyICAMgaIoboiI3+zjIX/IqIOAMARardbKiPitPh7ygFGHhTFmCOjrTyyNxt0R0c/f4/F/jToICDW2bt26scnJyUci4qQ+H/oLRh8EhJratm3bUfv379+Rc+53PHJKaaczAAJCTe3bt+8LEfGT/T5uSulrY2Njn3MGQECombIsV+ac7xlEPOZt3bBhw3POBCwMn8JiId0dEQP5dbMppY+22+2POQVgBUKNrF+/fmLJkiWP5Jx/fEB34TNjY2OXOxMgINRIu91ellLaEREDiUdK6TMR8asbNmw46GyAgFAjKaUHYnB7Hp/avXv3f73uuuvEAwSEumi1WisajcZfDTAefx0RF4gH9I9NdI7MRPrOFeZvHdCq5/Zer7e6KIq9zgRYgVAT69atG5+cnHw4+n+F+aF43HPssceee9lll1l5gIBQF5s2bVo2Nze3Y1DxiIgdOec14gECQs3Mzc0NdMN8ZmbmV7Zs2TLnTICAUBPT09Mrx8bGdg4wHvdXVXWBeMBg2UTnpf/UMTb26RjghnnO+V2dTseGOViBUBfr1q2bmJyc/FIMbs/j3omJiXPXr19vzwMEhLrodDpLc86D+Er2QyuPHVVVrREPEBBqpqqqv4uINw3o8Hc888wzv/LRj35UPEBAqIv5K8x3DjAe909MTJwvHrD42ETn+0+QRmNHRJw2oMP/ZUSsnpqasmEOViDUxZVXXjkxOTn5xZzzGwd0F+6NiHOLoph1NkBAqImiKJbGd67yHkg8Ukp3V1V1blmW4gECQs0MdMN8z549v/yhD33IRYIgINRFu91e0Wg0PpNzHkg8Ukr3T0xMnF8UhXiAgFAnKaUdOefTB3T421NKF6xfv/7AYhqT7du3N5588smTqqqqhug8R6PR6E1PTz9h1iMgHJarrrpqyfLly/9+EHseKaWIiHtXrFhx3hVXXLHo9jy++tWvvqLX6z06TOc75xzzQWya/QgIL8vFF1+cTjnllMbTTz995wA/bXXX3NzcoozHodfbIT39+z0DOFyuAxlhH//4x/M3vvGNzRHxswO6C5/KOZ/T7XZfcDbACoQa6XQ6b6qq6qr5n7JTP4+dUrpvfHz8gqmpKRvmYAVC3VRVdd2h1/M+x+MvDhw48C5XmIOAUEPdbvdHIuL1Azj0fePj4xds2bLlgLMAAkI9Vx8nRMQr+7zyuCvnfM7U1JQrzGEI2AMZXa/u8w8Qdx577LHnXHbZZT1DDwJCvR3fx5XHfc1m8zzxgOHiLazR1a+3kW7fv3//u6anp22Yg4AwDFJKT/fhMPellM7funWrDXMQEIZFVVVPRcRCvrB/+uDBg+9ut9szRhuGkz2QETUxMfGV2dnZb0bEaxbg5u98wxvecM6aNWvseYAVCMNmamrqXyLicwtw0/c1m83zxAMEhCGWc/6dI3yTt8/Ozq7euHGjDXMQEIZZWZZ7Go3GLx2plccxxxxz3ubNm+15gIAwClqt1p0Rsfkwb+ZTvV7v3ZdffrkrzEFAGCVFUWxIKV35cv5tSun6008//T2+kr12fIAGk4gjEpDUbrc/WJblQznnTRFxxov4Z4+llP6g3W5fP8xjs2HDhmejz99W3C+XXnpp+shHPpI9A7AC4XACkiMi2u32Z5vN5juazeYbI2IqIh6NiEMri9mI+EpEfDAiTu/1emcMezyGnXhgBcIRtXHjxn0R8dj8ny1GBLACAUBAABAQAAQEAAEBAAEBQEAAEBAABAQAAQEAAQFAQAAQEAAEBAABAQABAUBAABAQAAQEAAExBAAICAACAoCAACAgACAgAAgIAAICgIAAICAAi15KySAIyJGTc55ZZPdnqWkHC2NmZmYiIhZVRVJKM8M63kMfkJTStxbZXfpxT3NYGFVVHR8RSxbZ3XpeQOprUQUk53xxt9sd91SHBfHOiFixyH6IHdqAjI3AhFpsJ2+s1+s9XBTF2kaj8X9yzr2cs6c9HN6L9PKIODPnfPViu28rV64UkBr7x0V4n06KiDurqnohItQDDn9lPxYRKxfjfXvf+953QEDqO7G+GRFVLL636yYi4hWe+jDUHhvmBzcKeyB7I+KfzWOg31JKDwlIjS1btuyFiPgXUxkYQED+XkBq7Pnnn98TEV83lYF+q6rqfgGpsc2bN/eGfRkJLEpPLVmyZKh/eB2VrzK5z1wG+iml9HBVVQcFpOba7fbfmM5An31xw4YNAjIkPmE+A30yk1K6d9gf5MgEpNlsXm1OA33yTKvV+oKADInXve51X42Ih81rYMFfWBuNPxiJxzkqJ3TNmjVVSukWUxtYaK985SuvE5Ah02w2b4mIb5vewALacskll/QEZMhMT0//Y0R8yvwGFsjuRqNxw6g82JH7lbYppcvMcWCBfK7Vav1vARlS7XZ7d0rp/eY5cKQtXbr0t0fp8TZG9Dx/IiL+wXQHjpSU0pUf+MAHnhaQ4V+FPJdS2mrKA0fIlycnJz88ag96VFcg0W63/1dEfNa8Bw7TwZRSsXbt2hkBGSFHH330z6eUnjT/gZcrpfThdrs9kp/uHOmArF279kBEXBoRs54GwMuws91urx3VB98Y9bPfbrfviYjrPA+Al+ipRqNx8SgPQNMciNi1a9e9Z511VjMiftpoAC9CbjabZ7ZarZH+NGfDPJifDTl3IuIOIwH8oJeLlNKpGzdufGTUB0JA5hVFMVdV1ZqU0u1GA/geqpTS+e12+0uGIiIZgn9t27ZtE/v37/9wzvliowF8t2azefrGjRsfNBIC8oNWJDdExK8bCSAinmk0Gu8ZhV8S9VJ4C+t7B+TCiDg/IvYbDRhpf9toNN4mHlYgL1m32/2xXq/3QESsMhowUnoppT858cQTLzn33HOz4RCQl2Xbtm2T+/bt2xIRv2M0YAReGFP6Ss55U1EUNxoNATlsq1evTm9/+9t/dHZ29raIeLMRgaGNx7VHH3106/3vf/8LRkNAjriiKK6KiIsi4nVGA4bCvoh4IKV0ebvdfsxwCMhCR2RlSumdOedSSKDWK44/rqrqj5YsWfLI1NRUz4gISF91Op2Tq6raGt/5KpTx8Ok2WMzmImJPRPzp8uXLiyuvvNJbVQKyKELyw1VVvTMi3hQRPxURbxETWBS+lVJ6OOf8UER8buXKlTuuuOIKn6wSkMWnLMvU6/WWjo+PH1VV1ckRcWrO+bSIODUiXmWEYEHliHg0Iv4uIh5qNpsPVlX1dEppf6vVmjE8AlJr119//fhzzz234uDBg+NGAw7f2NhYzM3N7Z2env620QAAAAAAAAAAAAAAAAAAAAAAAAAAAAAAAAAAAAAAAAAAAAAAAAAAAAAAAAAAAAAAAAAAAAAAAAAAAAAAAAAAAAAAAAAAAAAAAAAAAAAAAAAAAAAAAAAAAAAAAAAAAAAAAODF+X9dIPRc0L7M4gAAAABJRU5ErkJggg==;" vertex="1" parent="1">
          <mxGeometry x="180" y="305" width="60" height="60" as="geometry" />
        </mxCell>
        <mxCell id="lMKxhEZFdJY4erHnloHR-15" value="Application" style="shape=image;verticalLabelPosition=bottom;labelBackgroundColor=default;verticalAlign=top;aspect=fixed;imageAspect=0;image=data:image/png,iVBORw0KGgoAAAANSUhEUgAAAZAAAAGQCAYAAACAvzbMAAAACXBIWXMAAA7EAAAOxAGVKw4bAAAgAElEQVR4nOzdeVhN2/848HXG0nAapHnWrAkhSpQmlBKVDCGZM1Mu90aGzGOSTEmGZOgaQ6ZUSFwSJUUlTSokzZ2zfn98Pn7f+7nXdWmvvc8+p/V6nvV8nuc+n5b3e5999jprr4kBMEzEtbS0MLOysiyzs7PNSkpKBl+7dg3Y2NgE19XVsT9//gwghMIOEUhJSYHu3buDpqamu927d8/T09O7b2Fh8WzYsGHPFRUVO4QdH4ZhWJdSX19vGRERscLd3T3L3NwcSklJQQCASBQulwuNjIygg4ND9vLly8Pfv3/fh6zrhGEYhv3X2bNnrRcuXHi2V69e7SwWS+iNAdHCYrGgkZFR+8KFCy/+/vvv/dFfMQzDsC7uzJkzvLCwsIRevXq1Axo8+MkovXr14m/evPlUUVGRIsprh2EY1iU1NTVxIyMjnR0cHOrYbLbQH/JkFy6XC728vOoTEhJc0V1FDMOwLubChQvM1atXH9DV1RX6g53qoqGh0bBr165dlZWVbDRXE8MwrIuorq428vf3PyUpKSn0h7mwipycHAwPD49/+PAhF8U1xTAME3ulpaVGISEhpRwOR+gPcWEXaWlpuHDhwoQHDx7gRgTDMOx7Vq9ezQwJCckRhxlWqIqMjAzcvHlzQmtrK36dhWEY9i0ZGRncgICAQ7jn8feipKQEIyMj5xC7whiGYWJqw4YN8+Xk5IT+sKZrMTMza7h//747kWuMYRgmdq5du+bcs2fPZkCDBzWdi6ur6+Pm5ma8TgTDMAwAAGpqangTJ058AWjwgKZ7kZCQgHv27Fnf6YuNYRgmTsLCwgJlZWWF/nAWlWJhYVF+4sQJ9c5ebwxDgSXsADAMAADa29vPFBcX49cyP6iurk6Wx+N9evLkyV1hx4JhGCY0kZGRQVwuV+i/6kWt2NnZNdfW1sp07qpjGHF4TjkmVE1NTbwxY8Ysa2trQ1ovk8kEWlpaQFVVFXC5wlt/ByEELS0toKSkBNTW1iKt+969e5LHjh2bCADYh7RiDPtBuAHBhCo6OtokNzfXBFV90tLSwMLC4uGYMWNOv379OtHHxwcoKCgAAABgMBgAQvj///fP/+3PGAwGAAD8z3//p//f1/r+iUAgAO/evQPl5eXKz58/H52dnb306dOnkgKBgHCuEEKQlpY2CeAGBMOwrmjRokUxANErHTMzMxgVFRXO5/NpO5by8uXLPoGBgTclJCSQ5Kytrf3x6tWrRpQngmEYJmzjxo2rBwgepL179+anpqYupTyBTigpKeEtWLAgHcVWLdLS0nDnzp2zqM8CwzBMiPh8vqqenh7hh2iPHj34ycnJ86nPoPPOnz/Pc3Z2RrLuJTg4OJ7yBDAMw4Tpjz/+mMVgMAg/QFesWJFFffTEXbhwYYaioiLh/IcOHZqFN1nEhIEp7ACwris6OvpvA9M/y9TUFGhqak5AFBKlRo0atd/Ozu4l0Xo4HE7/u3fv4q3eMcrhBgQTmoaGBmOidRgZGT2aPn36OxTxCIOJickZonWUlJSApKQkFOFg2E/BDQgmNKqqqk5E/p7JZAIVFZUrHA6nBVVMVLOxscmUkpIiVMf79+/BvXv3EEWEYT8ONyCY0NTX1xP6ey6XCyCEOYjCEYqbN28+69GjB6E6Ghsbwdu3bxFFhGE/DjcgmNAQXX3OZDKBmpoaomiEQ1VVFUhISBCqo6OjAzQ0NCCKCMN+HG5AMEyIvreKHcPoDjcgmNAQnYGFYZhw4QYEExoUv77xL3gMEx7cgGAYhmGdghsQTGjwKywME224AcFEGm6EMEx4cAOCCQ0eA8Ew0YYbEExocO8Bw0QbbkAwkYYbIQwTHtyAYEKDX2FhmGjDDQgmNLj3gGGiDTcgGIZhWKfgBgQTGhSvn3AvBsOEBx+DiZhAIOCWlpY6nDp1CqSlpYE3b96Ajo4O0KNHD6CjowMGDhwIRo8e3aKjo5Mh7FgxTFwIBAJ2YWHh0ISEBJCXl6dkZWXlW1VVBRobGwGXywWKioqgsbEx+8OHD48mTJgAXF1dn3O53Cphxy3qcANC0PXr17l1dXXmmZmZo798+TLO0NCQzefzdRsaGkBzczNob28HAADw7t078Pz5c3Dz5k2wffv2jp49e5bY2dm1MJnMuGnTpj2Tl5fPsLCwENmDkToDRe8BD6L/x6hRo7gXLlxoEnYcVGlpaWGeO3dOis1mB965c2e0nZ2dflVVlf6nT59AQ0MDOHfu3N/+hsFg+EhLS4M7d+4AGRmZ95MmTfqsoqIS4+Li8ruVldU7VVVVYucLYNiPSkxMNFiyZMkOW1vbAjk5OQgA6HSRl5eHHh4eNatXr05ITU21FkI6QuHr65sDCFw3aWlpuGHDBh8hhI7Mhg0b1E1NTQndPwAAWFpaupj66IVj586dljNmzDg9ePBgyGazCV87HR0d6O3t/Xjp0qV+Hz9+1KQ+I6xLePToETh37py2r69vrI6OzkcWi0X45v1zYTKZ0NjYuDk4OPh0UVGRdWtrK8UZUmv48OGEGhAZGRm4d+9ekW5AYmJi1C0tLQnfO1lZWWLdgBQXF4PU1FTzmTNn5qirqzcChN+7r4XH40EXF5fq6OjokOTkZDw+jKFz+vRp+WXLlsUYGhoiv3G/VczMzGBYWFjUy5cvVSlLkmIWFhaEGhAejwevXLki0g3I1atX1W1tbQnfL1FRUWLbgDx69Eh9xYoV57W1tSn57klISMCRI0c+SUxMHEFZkpj4OnPmzFAnJ6cCDodDyQ38tXC5XOjh4VFw7949Z4pSpcz79++VNTQ0ygCB66OoqAjfvXsn0g1IVVWVupubG+F7xc3NTSwbkPT09IkuLi6lqHv7P1I0NDTqt2zZcoCaTDGxU1lZyT158uSBnj17tgOKb94/FysrK/6+fftmUZAyZWJiYgZpaGgQui4KCgo1DQ0NIv2qoaWlBWhpaV0EBO+RadOm5VMfPblCQ0MDDQ0N+UCI3z0OhwOnTp167c2bN5YUpIyJk8jIyAMqKipCu3n/XDQ0NNrDw8NnkJ40RaKiojYQ7dHZ2NjUCCF05EaMGHEeELw/LCwsKtvb28XidSefz5cKDQ0N7d69eyugwXePzWbDadOmVdbU1JiQnjwm+rKzs7nh4eGx0tLSQr95/1yUlZXbFy5cOIfk9En3/v17pru7+1lA8Hr4+fm9pj569H799dfjgOC1UFJSgkeOHPGmPnq0BAKB1JEjR651795d6N+3PxcGgwEnTZpU/uzZM9wTwf7ZgwcPmGFhYYeITs0lqygrK/MXL14s0j2RzZs3S/Xt25fwtbC1tV1LffToBQQEuEtJSRF+wIWEhJwVQvjICAQCmSNHjqTQrfH4WphMJgwICCgvLCw0I/VCYKIpLS2NGxoaGkv0y0x2UVJSap05c+acffv2kXg1yLNx48aFDAaD8HWIiYlZTn306D1//txJQ0OD8Lt+W1vb5oyMDJFcxyAQCCSPHDmS2qNHD6F/v75XGAwG9Pf3L3/27Jk5iZcDEzU3b95kz58//5CMjIzQb9IfKd27d4czZswQuYH1xsZGRU9Pz3JAMH9NTU04ceJEdeozIIetrW0xIHhNWCwW3L9/fyz10RMjEAh48fHxKfLy8kL/Xv1IYTAY0NfXt/yPP/7Ar7MwAK5cucJesGDBAbqNefxbUVRUbA0MDJy1ZcsWkq4Mevv371+M4vVg3759C58+fcqjPgNyzJw5k/BAOgAADh48uP7Dhw8GlCfQSS0tLZLx8fG073n8tTCZTOjj41Oel5eHX2d1ZefPn+fOmDHjULdu3YR+U3amKCgowICAAJEYWD937hzPycmpFCDIe+7cuecpT4BEiYmJU1CsM+JwOHDBggW7qM/g5/2353GNx+MJ/XvUmcJgMKC3t3dlRkZGl9l+CPuTU6dOgZkzZx6g+5jHvxV5eflWX1/fWStXriThKqGzevXqGBR7F8nJycGYmJjx1GdAnqSkJHl7e3sk94OWllZDSkoKrReftrW1ScbHx18TtZ7HXwuDwYBeXl6VxcXFeIpvV5KYmCgZGBgYx+VyhX4ToihycnLQy8srBPmFQiQqKspZTU0NyR5GAwYMqOPz+SI5WPw9kyZNOgkQ3Q82NjZZaWlpilTn8CP4fD4vLi7upqj2PL5VPD09q7vSRqhd3qRJk+JEvefx1yIrK9u+aNGitQKBgFZjA4mJiarOzs4fAaI8J02atIPqHKhw4sSJscrKykiuEYvFgkuWLElvbW2VpzyR7xAIBFJxcXEi3/P4a2EwGHD48OHVJSUluCcizvbu3Svp7+8fh+JVyrcKm82GxsbGDdOnT8+ZN2/e/OvXr89//Pjx/OTk5Pn+/v7zPTw8bhobG/OZTCYp/z6Px4MxMTH3Ozo6aNGIxMXF8QYPHpwOEOWnra0NHzx4YE91HlR4/fo1c+TIkfkA0bWSkpKCO3bsyKY6j+85ePBgKpmzrXr06AH79euXP3ny5OSAgID5CxYsmO/p6Tl/8uTJ18zNzQsUFRVJbUiGDx9effXqVdwTEVejR4+Ol5SUJOXm0dPTg2FhYcezs7O/O73vwYMH9pMnTz5O1s3M4/FgdHT07Y6ODqH++jx9+jTPy8vrJsrG0t/f/2ZpaanYHoR2/vz5DSh/3EhLS/NnzJgR0dHRIfTXWf7+/kHy8vKkbE8iJSUFfX19M2NjY0f907+fk5PD3bt373gvL68nZL26ZjAY0M3NrfLhw4d4nYg42bBhA9fLyyuOrF09jYyMis+cOeNXUFDwQ5v71dTUsBMSEhJUVVVJiUdWVhZu3rz5fllZmUznrhgxRUVFQ+3t7TNRXm8VFZXWTZs2OVCdC5Xevn0r4+Pj0wAQ3gsyMjJw5cqV2U+fPhXKD4qamhqZqKiom3JycqRsSqqmpta8cePG8CdPnnB/JJ5Xr17JrFq1ageZe225uLhUXrlyBfdExEFERATbzc0tXkJCgpSbxcTEpCw0NPSn5963tbVx4+PjE9TV1UmJi8vlwsmTJ6ft3buX0l+fO3fudHZxcalHnY+3t/dlKvMQlsOHD/+KeisdFosFhw8fnnnp0iUbKnOJjY3lzZw58xpZ443q6urNCxYsGNuZ2ObPnz9DSUmJlLgAAHDYsGGV165dw4sNRdnKlSu5Li4upI15mJmZFS9atKjTA2dtbW3cEydOJJC16y+TyYRDhw6t2bZtm/v79+9/6BdaZ50/f563fv36WGVlZeQnxuno6MCbN28OIjN+urh69Sp3xIgR9wHia8hgMKClpWXz5s2bQ588eUJqb6S8vJy9c+fOoY6OjjVk9frV1dWbFy5cSOg8mHnz5s1RVlYm7bgGR0fHykuXLuGeiChavHgxd8iQIfFkHQRlZmZWtm7dOn2icXZ0dLCPHTuWQPR8jO8VFRUVuHTp0vQbN24gXznb3t6ulJCQEOrk5FRGxrVms9lw/vz58U1NTSJ99sfPuH37trumpiYpZ2FISkrCcePGlW/YsIGUE/fu3bs3dPbs2bfJ6lmD/zQejfPnz0dymFhYWNgMZWVl0s4dcXBwqDxz5kwfFLFiFPn06ZPJvHnzXpDVeJibmxcvXboU2ZS91tZWyVOnTiWQ2aVmMplQX1+/burUqdFPnjxxLisr6/RgdEtLCzMhIUEmLi4u1Nvbu1JBQYG0uB0cHCpv374tdus+/s3ChQsPkNVzBgBABQUFvp2dXdqRI0cWHjt2TKa9vb3TDXR+fr7kpUuXhoaEhKQaGRm1o9gs85+Kurp6++LFi5FuXb9kyZI5KioqpPVEBg8eXJ2SkoJfZ4mCsrIy80WLFpWT1XW2sLAo3b59O+Gex7ecOHHiuKamJmlfvq9FS0sLuru7py9btiz0/Pnz9k1NTT802J6Tk2MfGRkZNGXKlPP29vaQ7KNGlZWV+devX1/40xdSDJw/f57n4uKCbFrvPxUmkwnt7e1hYGDg5dWrV8+4e/eu/Y/09srKyvTDwsLsf/nll0MeHh7lZE+RBQBADQ2NxkWLFpFy7smvv/4arKqqSlojYmdnV3306FGx6okwhB0Aas3NzUa//PLL7T179qh3dHQgr9/S0vKth4eHW2Rk5EvklYP/9ETOnTt3YN68eRNra2vJ+Cf+B5vNBhoaGkBSUvKNtbV1E4/HK8rPz0/V1NQEbDYbVFdXA2Vl5d4MBsM2NzcXNDc3m7979w40NTWRHhuHwwELFiw4tnXr1kmk/2M0denSJdd58+adLy4ulqTi35OUlATq6upAIBDkmZubC/T09JpOnz4d36NHD9Dc3AzMzMwslJSU7PPz80FlZaX6ly9fFOvq6gCEkPTY1NXVBePHjx+9devWC2T9GytXrpx1+PDhmMrKSlLqHzhwYO3atWuHODs755HyD2CdV1xcbBkSElJJ1iI9Kyur13v27NGlIpekpKR4LS0t0n/R0bUwGAw4atSozPz8fFqtpBaGbdu2LSbz1aYoFHV19YYlS5b84xoPlNatWxesoaFB2hTf/v371+zbt4/S2XDYv2htbTWaM2dOJVnvjK2trUvDw8ONqMqno6ND8uTJk6TNzqJ7cXZ2bn327Fl/JBdTxJWWlnLnzZt3SFz2bfvZoq6u3r5gwQJKj+uNjIycQear5H79+tVcuHABLzakg5cvX1rOmDGjkqyBu969e7/etm0bKWMe39PW1sY8c+ZMHBVjInQqVlZWDdevXydlhpCoOnLkCNPf3/80mYPqdCz/HfOgpOfxZ6mpqWDLli3B2trapPVEevfuXbN7927cExGmDx8+mEydOrWSrMHcvn37lm7dulVoB/S0tbVxExIS4tXU1IT+ZaaiGBoaNkdFRXkgu4Bi5N27dyazZ88uI3viAl3KfxcJUtrz+KutW7cGaWtrk5Zjnz59qg8ePIjXiQhDXl6e5ZQpU8rJ6nn069fv9fbt24V+ultrayv72LFjh8T9dZahoWHjli1bcM/jO8rKyoxmzpxZLO6NiIaGRuPs2bMp73n8VWZmJti5c2ewrq4uaT0RKysr3BOhWnV1tfm0adNIGzDv169f6YEDB3SpzOl7Ghsb2UePHo3T0dER+pebjNK3b9+Gffv24Z7HD6ipqTGYOnVqOllb8wi7GBoaNq5cuVKoPY+/io6ODtLT0yNtsWGfPn2qk5KSxGqKL23dvXuXO2bMmGSyGg9bW1ta9Dz+qr29nRsfH7+4Z8+ezYAGX3QUhclkQjc3t7q0tDR31NdLnK1atYo7d+7cWFlZWaF/hqgKg8GAdnZ2zQkJCbT8IbF79+5gfX190noi7u7uNfiMdZJ1dHRIRkZGHifrDHNbW9vixMREXSpz+llHjx51HTZsGPLNCqkuEhIScOLEiek7duwQ+lbjomrv3r07tLW1kR3WJazCZDKho6Pj/Vu3btF65l1sbGxQz549SVlsyGQyoaur69n79+9LUZpUV3L06NFRZL3GGTRo0Otdu3bRrufxLUlJSZp+fn6ZZDWkZBdtbW3+2rVrD1VWVtLi4CtRlpCQMNTT0/OjqI6LKCgo8NeuXZuVlpYmEmt+9u3bF2xgYEBKIyItLQ3XrFmzntKEuoq3b98qeXp6kvJry87O7vW5c+d0qcyHqIaGBt6qVavCe/XqRdr2C6iLhIQEdHNzKz537pwrWdelK7p7965MaGjoSU1NTZG5F1gsFuzbt2/52bNnRW6rmiNHjkwxMjIi5XWWiYlJ+6NHj8Ty1E2hCg0NDSdj4NDe3r547969ItHz+Ja4uLj+M2bMeE333oipqSl/zZo1B54+fapK4uXo0i5evDjRx8enkO4D7CoqKvzly5en3Lt3T2Tf+cfFxQUZGxsjH1hnMBgwICDgcm5uLrUJibPY2FhlY2PjcoD4wxoyZEjhxYsXtanNhhz79+8PGjx4cAFZh/d0tujp6bVOnTr1bGFhIZ5lQpHIyMhAGxsb2t0LKioq0MvL6/apU6fEYtrqyZMnA01NTZFPalFXV4dRUVHO1GYjxkJCQkJRv+MdMmRIcVxcHOUrzMmUkZHBW7JkSbC9vb3Qf4WamprCmTNnXj5y5IhYPCxEzbVr12QWL14c5ODgUCDs3mmPHj2gm5tbytmzZ2d1dHSIxFjHjzp58uQUMzMz5Nds8uTJt6nNRIy5uroiPSfaycmpIDk5WZfaLKhz4sQJ9qlTp8ZPmTLlha6ubiNVW2AoKSlBJyen8rlz566tqKjoU1dX12UOgaKr33//nX3hwoVxrq6up0xMTBolJSUpuRdkZGSgqalp5fz585Nv375tk5qaKpb3QmlpKTh9+nSgubk50p6IpqYmrKurw2MhRJ07d85VSkoK2btGJyen4jNnzuhSnIbQ3Llzx3rBggXLXVxc0i0sLCDq9TPq6uqwX79+LxYuXHgyNjZ2FJ/Px2McNPXs2TPLyMjIpX5+fml2dnYQdWMiIyMDhwwZ0j5q1KiTISEhPmVlZeoUpyg0v//++0Rzc3Ok13Pz5s3bKE7jp4jEeSBjx46NPnPmzBwUdbm4uLyaPn26m5+fXwmK+kTJhw8f2FFRUTI9e/Z0PXnypJGiouK0x48fg9raWiUIoUxLSwtoa2sDHR0dQCAQAAghYDKZgM1mAy6XCyQkJACHw2njcDgVffr0Aa2trZe8vLzKevXqdZXD4bwaOHBgi7BzxH4Mn89nnzlzRkZJSck5KSlJv7q6elhtba1RXl4eV0JCQr25uRm0traC9vZ2IBAIgEAgAAwGA7BYLMDhcACXywVSUlKgo6OjytjYuEVbW7tESUkpxcbG5rqysvIbd3f3z8LOURjOnTs3JSIiIiYnJwfJ+S1OTk7Pbt26ZYWiLjLQvgHp6Ojg2dnZZWVlZRE+PtbR0bEkPDx8iKOj41sUsYmLyspK8/T0dM3bt2+DnJwcUFJSAj5+/Aj4fD6Ql5cHWlpawNzcHAwcOBC4urp+1tfXvyfsmDFy1NbW8oqKigalpKSAP/74AxQUFID379+Dz58/A1lZWdC9e3dgamoKevfuDUaOHAl69er1kMfjfRB23HRy6dKlwBUrVhx69uxZp4+M/kpbW/vz0aNHBwwdOpSUA+zE3pkzZyyNjY0JdwWNjY3LIiMjxWrAHMMwejpw4MAUNTU1wutEpKWlob+/vxP1GYiJFStWeBCdQSIpKQkPHToULoTwMQzroubOnRuHYuboL7/8Ek999GJi+/btMYDgB+Di4lLf1NQkQ330GIZ1VQUFBeaGhoaNgODzy8HBgbYNCO2n1WVmZhKuQ11d/aCUlNQXBOFgGIb9EGNj4+d6enoXiNYjIyNj39LSwkURE2q0b0DKysoI/T2LxQIDBgzAewJgGEY5BweHIqJ1SEpK6ldXVxMekCcD7RuQmpoaQn8vIyMDjh8/noEoHAzDsB9mZ2dHuI7Gxkbw9i09J47SvgHh8/mE/l4gEICWFrw8AcMw6gkEAlrVgxrtGxAlJSVCf//lyxcwZswYvB0AhmGUQzGGKy0tDXR0dBBEgx7tGxA1NTVCfw8hBBUVFaMRhYNhGPbD0tPTCR8T0dzcXKKiotKBIh7UaN+A2NraEq7jwYMHzg8ePMDTeDEMo0xhYaF5aWnpKKL1fP78+W63bt3aUMSEGu0bkJqamstcLrEZbE+ePJG6e/fuIUQhYRiG/auoqKglr1+/Jny+OYqB+C4rKirKUk9Pj/BqTm1t7daTJ0/Ooj4DDMO6moMHDwaqq6sj2cpkzJgxeCuTzvrw4QPP3Nw8HxD8IAAA0MrKCt64cSOY8iQwDOsyLl26NNHKygrJ2fQmJibw8ePHgyhPQpzMmjUrDSD4MAAA0NrauvX8+fMzamtrqU4DwzAxl5ycHGhlZYXsYClnZ+d8gUCAZGv4Luv48eOBKA++MTc3h8nJyTOozgPDMPGVnJw80cLCAtlzCgAA169fT+sDpURCW1ub/IABAwhvSvbn0qtXr9Zz587NKC8vpzgbDMPESUlJCTh16hTyI23V1dXh+/fvab2GjZb7q/wVl8v9NGPGjH0PHz5cDCFEUueLFy+4K1asiA0PD2cDAPYiqRQTaTU1NeqfPn1S//z5M/j06ROor68H9fX1oK2tDcjJyQEulwt69OgBVFVVgYqKShWPx3sn7Jgx4cvIyAiMjIyMz8vLQ1rvsGHD7igrK9N6Gyban0j4VVpa2qD58+dn5uTkIK3XxMSkLSIiYp6/v/9+pBVjtPLhwwfuu3fvJl6+fBmcP38e9OnTx/fTp09KVVVVoLq6GlRXVwMJCQl1BQUFdT6fD/5cIISAxWIBBoMB2Gw24HA4oKGhoaqlpeWdiorK1wYFKCsrf8rJyTk5atQoMHLkSKClpZXI5XKbhJ07Rp74+PjAyMjI2IKCAqTjFOrq6iA0NNRl4cKFN1DW22U1NTWB33777TSKA1r+WgwNDfkHDx4MoTYjjAwXLlwws7GxMduyZcsOV1fXqIkTJ9bb2Ni083i8dhaLBZlMJmQwGMjvoa+FwWBAJpMJ2Ww27N69e7udnV37sGHDsocNGxa1a9euKFdXV7M7d+6Yffz4kfZrsLDv279/f5ChoSEfkHAPBQQEXEb9Y7nLS0lJUbK1tf0ISPjiGxgYtB85cgSvExExDx8+tA8KCgoMCQlJMzAwSDMzM4MyMjKkNRBEi4KCArS0tIRmZmaZCxcuTFu2bFlQSUnJUBIvEUaCmJiYKT179iS8zuNbxcTEpP3Ro0e0HvsQWaGhod5KSkqkfLn19PTa9+zZg3siNFVRUcGNjY3VDw8PHzdu3LhTDg4O9TIyMu0cDkfoDUNnC4fDgYqKiu3Ozs41Dg4Om6KioiZeunRJv6Ojg5YHCGEA7Ny5M0hPTw/JOo+/Fmlpabhu3br1lCbUlVRVVUkGBwefJOuhoaOjw4+OjsY9ERpJT0/vExISstzW1jbTzMwMstlsoT/4ySoSEhKwb9++cOTIkffDw8N/ff78uQ3Ka4kRs3379ik6OjqkNB5MJjoDjKgAACAASURBVBOOGDHi7OPHjwlvf4J9R2VlpcGUKVPKyXqXramp2b5u3bqQa9euUZoX9h8fP37krl+/XnvevHkRbm5u+YqKio3i3Gj8U+FwOFBDQ6M5ICCgcNOmTRGnT5/WRXKBsU6JiIgI1tLSIuW1FQAAenh41BQUFJhRmVOX9fTpU3N3d/dKshoRNTU1uHXr1jmUJtXFVVRUqO7fv/9XLy+v+z179hT6A5xOhcFgQFNT01Zvb+/kdevW+bW3t6sTvNzYT1izZs0UdXV15APmX8vAgQOrr1y5gnubVLp48aLlsGHDygFJH6qOjk7r4cOHQ+rr66lMq0vJzc1lpqWl2SxbtizZwsKiWlpaWugPa7oXHo8HBw8eXBMSErKpqKjItqmpSSTWc4mikpISEB0dHaStrU1az8PW1rYmPj4eNx7C8ODBAxMXFxfSeiKWlpbwypUrPpQm1QW0tLTwIiIiHHx8fFJ0dHSE/lAW1WJubg6Dg4Ov7dixg/jBOdjf3L17N8jU1JS0z8/Ozq760qVL1lTmhP3F+fPnLYcNG1YJSPqQ+/Tp8zojI0OfypzE1YULF9ixsbFBnp6excrKykJ/AItLUVFRaZ0wYcKLtLS0OS9evMA9EgT279+vaWtrS9pzZejQoTVJSUm450EHeXl5Rs7OzqT0RBgMBpw9e3ZpXl6ePLVZiY+SkhL5iIiIGc7OzsUSEhJCf+CKa5GVlYVBQUFlZ8+eDREIBIo/8xlh/+fmzZtSkyZNeg1I+IwYDAZ0dnauefTokTmlSWHfd+7cOdJ6It26dYM7duyIoTQhMXHq1Kk5bm5uhbKyskJ/wHaVoqKiAkeNGpW5b98+/GqrE5YsWbKFy+WS8tkMHz685urVq7jnQUd//PGHiYuLCykD69ra2s3nz5/Hp4P9oB07dgyaNWtWqZSUlNAfqF21yMvL82fOnJl648aNoe3t7T/ysXV5Z86cGUfGuByDwYCenp41RUVFuOdBZxcvXjR3c3MjpRHx9/fPffPmjQylCYmYV69e2c6dO/esjo4OadMecfm5B5eFhQUMDg7elJubq/yvH2AX9uzZMyV/f/86QMJnMHr06Op79+7hnocouH37tpmLi0sZ6jERaWlpGB4ejteHfMP58+cl169fv8LS0rKVyWQK/cGJy/8WFosFHRwcGn/55ZdxL1++xKudv2Ht2rVbUO9ywWQyoZ+fX3VRUZElxelgRKSmppq5uroiX7Hu4uLS3NTUpE1xOrSWmZk5auTIkdl4HQf9i5ycHJw8efLjGzdu4F/Df3L//n11CwuLeoDwWjOZTDhhwoTK3NzcPhSng6GQkpJi5uLiUgYQ3hRsNhtu2bIliuJUaOnZs2fKq1atijMwMBC511VcLhfKyspCRUVFKC8v38zj8Sr19fUrLSwsKm1sbCrt7OwqnZycKh0dHSsHDRpU2bdv30pzc/NKXV3dSllZ2WplZWWooKAAZWRkoKht6MhgMKCJiUnD9u3bNxQWFvJ+4iMXW35+fptQHhfBZDLhlClTql+/fo3XeYiyu3fvmri5uSHtiTg4ONTl5eXpUpwKrdy6dcvP3d29gO77VHG5XKinpwf79+9fZ21tnTJ58uSUWbNm7XB1dfXetm2b9507d7yrqqr6/0zubW1t7KqqKu/U1FTvdevWedvb23uvWbPm8rhx41JMTU1TrK2ta/T09GjfsEhLS8OZM2fmx8bGdumtUXbs2KFqYGBQAxBdVxaLBYODgyvLyspw4yEOrl27Zj5ixAhkPRFJSUm4YMGCKRSnQQv37t3jrl69eq2+vj7SM6BRFC6XC+Xk5FoHDx780d7ePuGXX37Z9Ouvvw4NCwvTLSoqUiX3yvyf3Nxc5bCwMN3jx4/PmDdv3iY/P7+sfv36fZSXl6ddo8JgMKC1tXXN9u3bpzQ3N3fJbeTnzZu3HtW43X/XjVUWFxfj11bi5MGDBwZWVlbIZmd5eHgUUp2DsOXm5tpOnTr1Pp0WA6qqqkJTU9P82bNnp82fP3/cq1evaLv2obCwcJy/v/+4gICAmzY2Nh8VFRWFfv2+Fnl5eRgWFpYSHx/fpV5p8fl8ZUdHRyQ/hhgMBvT396+uq6vDU3XF0dWrV2eZmpoieV8vJycH79271yVulNbWVubBgwetHR0dPwp7hhWDwYBKSkr8CRMm1P/222+7Nm3aZPvq1SuR2yWgsLBQe86cOTZz5szZ5eHhUScrK8sn87jdHykcDgd6eHgUZ2Rk0LYRRu3w4cNTJCUlkVw/Kyurmt9//x33PMTZmjVrFktKSiJpRH755ZdTlCdAsbt37zKjo6O3GRsbC/XhpqmpCYcNG5YfERER9fbtW2cKUqdUVlbW0NmzZ+/o3bv3C7JO3fzRYmxsXH/s2LEV9fX1Yr+v1tSpUzMBgmumoKAAU1NTV1CeAEa9sWPHZgMEN421tXUO5cFTqK2tTT0wMDBaQUFBaA+zQYMGwblz5yavX7/epqmpSewXcebl5UkdO3ZsvI+Pz2lzc3OhXXcNDQ0YERGxi4qchSUnJ8fIysqqASC4XhMnTjxLeQKYcNy8eXOElpYW4RtHU1MTHjp0SCy7+6mpqdrBwcGFwhj0VVRUhJ6enmX79u1bsXPnTnZLSws1SdNIYWEh+PDhg0lYWNjyQYMGlQpjLzFJSUk4e/bsi2/fvjWgJmtqHTp0aA6KtUvW1taNFy9eNKE+A0xoRo4cGUP0nTOLxYJbtmzZJITwSbVz505NFxeXF1S/k1dWVobDhw9PW7ZsmXt7e7sSRenSXklJieLOnTvn+/r6lvJ4PEo/Ey6XC4OCgl4XFhbqUpMtdQICAmIAwevDZDJhaGhoPPXRY0L1+PFjd01NTcJjIUOGDBGrm+f69evBgwcPpnSKbo8ePdo9PT1TExMTh+bn54v9e/fOys/Pl7x27dqcgICAcipncDEYDOjo6Ph6w4YNYtUTGT9+POGTBvX19VtLSkrwWeZdkY+PTxYg3oCUP378WJL66NFLSkoKsrKyagcUPZgUFBTg8OHD07Zt2zaUohTFQktLi/zJkycXenl5vaZyt2Nzc/Pi3377TZeiNElnZGRE+Jq4u7uL/UQa7B/s3bt3OdFpqcbGxnDu3LkivzldVFRUsKGhIWlnP/+5SEpKQnd395rExMQ5d+7cwT2OTnry5Alvw4YNMwYNGvSRqrGq/v3712dmZs4X9e3hi4qKAol+9yUlJeH69evHCSF8jA4iIyPViZ55zOFwYF5enkifm7579+4gXV1dSvaz6t+/P3/RokVL8R5M6JSVlZkvX778gLGxMSU/APr16wdv3Lgh0rtS//bbb7MAwevQu3dvePXqVbF6rYf9hE+fPvGGDh1aCAjeSMePH19MffTEZWVlga1btwZra2uT/uCRk5PjL1my5MXFixfxttYkSU9P9/H19X3SrVs30n8MWFtbt16/fj1EVHsiAwYMmA8IXoO+ffumNzY24h50VzZhwoTzgOCNNHPmTJFsQGJiYoLIOH3tz4XJZEJ7e/ua7du3T6QwtS5t69at4YaGhtVkz6Lr378/fPDgQQiFqSGzcOHCHEAw/5CQkFTqI8doZebMmesBwRvJ3t5epBqQ2tpakJiYGGxgYEBqz0NGRgZOmzbt8oULFzQpTA8DAFy5csXG09PzJtm7JdvY2NT99ttv+hSmhoS/vz+hBoTJZMIhQ4YECyF0jE5sbGzcuVwuoS+RmpqaSDUgN27cmGFpaUnqg6V3797NsbGxKzo6OrrkDq908OrVK+bu3bvjdXR0GgGJn7WVlVXp9u3bjShMjTAnJydCDYiEhAT09/cX6bFPDAE/Pz93olMhpaSkRKYB2bBhg2a/fv2Qn/v8tTCZTDh8+PCCEydOdImNJkVBcnKyt6enJ6njIs7OziK12HDQoEGEGpBu3brBZcuW4Qakq5syZYo70e0MOByOSDQgN27c0HV0dHwNSHqI8Hg8+Ouvv96sqKig7OwN7MckJycrBQUFZZG1boTBYMBp06aVPnz4UJnSxDqpX79+hBuQFStW4Aakq/P09HTv1q0boS+PoqIi7RuQlpYW7aCgoAKyBlYNDAzgpk2b1lOaFPZTmpqalMaPHx/eo0cPUu4BDocDfXx8YilNqpOI9kAkJSXh9OnTcQPS1bm4uPgRHWg0MzOjdQNy7do19pIlS26TtdjM2Ni4+vTp0+MbGhqYlCaG/bTU1FRmTExMqKGhISk7DkhKSsI1a9bENjY20nrsy9nZmVADwmazYb9+/XAD0tWtXr2a8DTeMWPG0LoBiYqKipKTk0P+sPjvHkmVu3fvxofoiJgrV64sNDAwQHZC55+LpqYmXLFihTelCf2kgIAAFNN446iPHKMVV1dXwg1IZGQkbRuQjRs3DtLS0kI+XZfJZMKAgIDKx48fW1ObEYbKtm3bzOzs7MoACY2IhYVFc05OjgOlCf2EuXPn3gcEcxwxYgReB9KVvXz5UnHQoEGVgOCNlJ2dTcsG5OnTpw6DBw9GPuOKxWLBoKCgyuLiYryqXMRduHDBxNnZuZyMsTEvL6/XSUlJtDxu2NLSkvBWJv3796958+aNOvXRY7QQGhqqq6GhQegm6tGjBzx27BjtZh3V1tZyx44dm4X6wcBkMuHcuXNLS0pKcM9DTKSkpJh5enoi74lwOBwYFhaWVllZSbvtPlavXk24AVFTU4OhoaF4K/euav369WsBwZto8ODB8MSJE7TbjXflypVrWSwW0gcCm82GY8eOTQsNDaXdAwEjpqyszMDDwwN5T0ROTg5GRUXNojidf1VYWDgKxfcjPDx8G/XRY7Tg7e1dAAjeQKNGjcr//PkzrWacpKamTtTX10d+KFRwcHB1cXEx7nmIqQsXLpg5OTkh74lYWFjUHDlyRJfSZH4AivNAPDw8yqmPHBO6M2fO2MjLyxN+yC5atIhWJxIWFRVpOjg4EN5h+M+FyWTCCRMmVDc3N+Nzn8Vcenq6wcCBA5E3ItOnTy/Ozc2VoTab7xs9enQ1IJiXjIxM+/HjxwdRHz0mVJMmTTpJtLsuKysLQ0NDRwkh/H80f/78Q0QPyvlrcXZ2rr537x7ueXQRa9asMUM9xbdbt25w9+7dURSn8l2+vr6Ez0QHAMCxY8eepzx4THiSkpL6m5iYEL5xzM3Nm+k0mJyQkDBWU1MTaeNhYmJSefbsWdzz6GLS0tIWol5saGho2JiRkTGU2kz+2c6dO8fLyMgQzktHRwcePHhwKOUJYMLh6+t7ESD4QkycODGH8uD/QVZWlryfn18NQNt4wOTk5BkUp4LRxO7du5cqKysju58YDAYMDg7Oef/+PS1eZaWmpmobGBgg+c7Mnj27kvIEMOolJCTMQrEqm8FgwJ07d9LmMJ3FixdvQDnrSl5enh8VFbWiqakJb0/SRV25coUZGRl5EuUGjDweD65Zs4Y2P0rGjh2bAhDkxeVy4Z49e2i5HgxDJCcnx3ngwIEfAYIbxsrKCjY1NdHioKRLly7Zojwcis1mw1mzZsVRnQdGP58/f1YKDAwkvGr7z2XgwIGNz58/p8V3Z8+ePYESEhJI8urVq1fDnTt3PChPAiNfbm6u1JgxYx6jmufu7e1NiwfstWvX2N7e3pdR5cVgMKC3t/fj3NxckdiWGyPf6dOnlT08PJBNC2exWHDy5MnR7e3tQl9PVFtbKzl48GBkB24NHTo059ixY7RcfY910qdPn+SXLVt2G9VDVkNDAyYlJdFi9tWpU6dmodyeu3///s3p6ek2VOeB0VtiYqKHlpZWA0B0n5mYmMArV664U53Ht2zcuPEsygWU48aNy3z58qUS1XlgJHj58qXMqlWr0ogeGvXn4unpeb+srEzoiweLioq43t7eyKZbKigowF9//RVvUY190549ew6hPBJg4sSJ6VTn8C1XrlyxtLCwQDbjjMvlwuDg4PtXrlzBPRFRdv36dfm5c+emET3v48+Fx+PxDx8+7Ep1Lt8SERGxGNX7WzabDWfPnn26pqZG6A0jRk979+5lenp6IuvJy8rK8hMTE8dTnsg3zJ49Ox7l+ikGgwE9PDyysrOz8Yajoujhw4dOPj4+pagPURozZsx9ilP5phs3bij27dsX2YpzZ2fn6ufPnxtQnQcmWs6cOWNpaGhIeAX31+Lv71/a3Nws9PG2hw8fWhobGyMbCwHgPzs4uLi4NBw7dmxEe3s7ns0oCqqqqjQjIiIiTExMkN4MAADYs2dPePnyZVrMsggODp7D5XKR5KWkpATPnj3rR3kSmEjavn37UklJST5AcO/Jy8vD+Pj4pZQn8Q2rVq2KQvm24mvR0tKCYWFhJx88eKBLaULYzzl48KDH6NGjS1HOW/9aWCwWnD59elxbW5sktVl9m42NDZKxDwaDAadPn558/fp1/AsJ+2FjxowhfKLf1zJp0qSa3Nxcoc/IOn78uLydnV0xQJTXnwuHw4GDBg2qPnTo0I7m5mY8wE4XiYmJmrt27YpwdHTM6datG/IP/mvp169faW1trT6Vuf2TJUuWLEX1vtba2rr0xIkTQn+FgImWzMzMUYaGhkhmZUlISMCUlJRwypP4hqSkpBlKSkrIT/D8WlgsFnRxceHPmDFjw86dOy3LysrwDzeqPXnyxHvu3Lmhvr6+mbq6utWoXuX8U1FTU4MHDx6cSGGK/+jp06eKffr0eQ0Q5MXlcmFsbOwKypPAxEJYWNgBVLsfeHp6vqA8gX/w66+/pgISnycA/Kfnr6enB62trbPmzJlzfN26dRNfvXrlTF2WxDFQVvb27Vvt1atXc/v37+/94MEDtYcPHwIdHR0bTU3NPu3t7UAgEHS6bgghaG5uBu/fvwdv3rwBdXV1Um1tbUw+n48wg2+TlJQES5YsSXR0dJzg7Ozc+SQQWbNmTcjGjRujmpqaCNc1efLk2l27dqnJy8t3IAgN62Lq6+tNXF1db2dlZRE+kVNJSUmwYsUKz8WLF19BERsRaWlpijExMaWJiYmU7dnF4XAAm83u6N69e4uqqiqQkpICLBaLcJ2ysrKgW7du79+8efO7r68vAACcHTly5DsjI6O3SAInor6+Xnnt2rV+kydPTh08eHCDuro6JONsZWEWT0/P++/evaPFO8vHjx+zx4wZg2TsQ0NDA27bto0W05Ex0RUeHh6Mao3V5MmT0+lyONulS5dcTU1N6wENnkEoS/fu3aG9vX3j9OnTU/ft20f9mq+2tjZ2dnb2oKCgoC19+/b9SMaANV3K8OHDG/fu3Uub8YE7d+4g+bIyGAw4efLk1OLiYqEPXGKiraioSB7FyZ4AAKirqwuzs7Np8xrn2LFjc9TU1IT+HCKryMjI8EeMGFFz4MCBTU+ePCH/R3JBQYF6YGDgFmtra7Hrafy1WFtbN1y8eJEWU3a/8vLyQrJzqIaGRvutW7ccKE8AE0unTp2ar6CggOR7FxgYGEN5Av+gsbGRGRUVdah79+5Cfx6RWbhcLhwzZkxdQkLCOISX7/80NzdzN23aFOjg4FCDemEeHYuBgUHrwYMHabFPz1fp6en9UR3wM2fOnNuUJ4CJrebmZqnx48eXAgT3prW19Ue6zHYEAICSkhLu6tWrY8mc4UmXoqamBhcvXhz/9u1bXWQX8MCBA7ywsLDLqH5h0L0YGRnVb9iwYQSyC4hISEjIWhQzXoyMjOCNGzecqM8AE2fJyclBioqKhO9PKSkpuHLlyiDqM/i+sLCwA/Ly8kJ/PpFd2Gw29PX1fX3s2DFtwhettLTUxsfHp7gr9DoAALB3796t+/fvp1XPAwAAnj9/zvPy8kIyoDdt2rTbTU1NeOwDQ+rNmzcyo0ePRrK1TkBAQG5LSwstTi386uHDh9zVq1d3iUYEAAD79OmTv2LFis43IufOnXNwdXVFcvgS3ct/Nz6rv337Nu0aDwAASEpK8kYxeK6kpNR69OhRe+ozwLqCPXv2zJGVlSV8n+rp6cHExERr6jP4dwkJCbEGBgZCf2ZRUczNzV+vXLlS96cvUk5OTv+hQ4d2icaDw+HA8ePHZ6Wnp9N2I8Fx48bFAwS5DhkyJJXy4LEuo6ioSMbOzg7JWEhISMhayhP4AQKBgLt7927v/v37I99rj45lyJAhBbm5uT/eE3n48KGZp6en2M1//lbR19dvDw8P3/Tp0yfeD18gihUXF/NMTU0Jr/2QkpKC586dm0N9BlhXEh4evhjFDE1PT89q6qP/cUVFRTYeHh6pKM8ZomNhMBhw9uzZxXl5ef9+tklubq6Uj4/PZZT74tOxsNlsOGrUqNLt27fT/nXOqlWr3OXk5AjnPGDAgNJr167RtqHExMOLFy/0ra2tCd+vSkpK7ffv3x9KeQI/4d27d/K7d++OsbKyEvozjczSrVs3uG3btl3/ekGWL1++DdUBRXQsLBYLWltb10dHR0ddvHiRFrvq/pspU6acBQjyDg8PP0R99FhX8/LlS+Dr63scILhnFy5cuI36DH5OVVUViIuL058zZ859lEdL063o6+s3JiQk/PPhWElJSfa6urqk7UIp7NK7d284d+7c2Pv375v940WgmTt37ij179+/BhDMXV1dvSE5ORmfjIZR4vDhw2NRPEyHDBmS8/nzZ1rNxvqeAwcO+Hl7e2fzeDyhP+9QFwaDAX19fVPa2tr+/nlUV1crBgQEvBB2kKiLlJQU7N27d+XGjRsTbt26ZfK3xGkuOTnZG8XNOH78+CfUR491VU+fPmX369eP8PPE0NAQbt26lbaTW77lxYsXknv37h0VEBCQpampyRen4QA1NTX4zSOIDx8+HCIu85s5HA60sbGBo0ePvhkVFTX/6dOnUn9LWERMmTJlLSB4PRgMBtyzZ89i6qPHurIZM2ZsAATvXRaLBdetWxdCffRoPHr0yHXu3LnRvXv3zheX7VBmzpz59233x48fj+yMYyoLi8WCUlJSUFlZudXNza3Ox8cn7uTJk8vPnj2r3dzcLPKL5UaPHl0MCF4jc3NzeP36ddpsCIl1DTk5Of1R9J4DAwNvUx89Wo8ePeJt3Lix//Tp0zcFBATU6ejoNEpLS0NUZ6lQWVRVVVszMjLMAQCADQAAhw8fdpg3b54i6ovGYrGAlpYWUFJSAmw2sWc5m80GL1++fNrW1vZJTU0N6Orqgl69eoHCwsKTHh4en8aMGfNGSUnpEQAAnDt3Dkn8wlZTU9O/b9++hM9ZMDU1vWtnZ/cBRUwY9qOsrKweDh8+vCIlJUWdSD0FBQX9UcUkLDY2Np8BAA//W8I6Ojr0z549a7N161ZgY2MzLS8vj5ufnw+UlZXNuFyucmtrK+Dz+YTOUAIAgObmZlBdXQ3a2tpQpAEAAKC6upqbkpISBgCYxAYAgIcPH/7S2NiI7Ne6jIxMR79+/e46Ojomd3R0XB81ahRQUFAAEELAYPzvGVY/+t/k5eUBh8N5x+Pxmj5//gwKCgrAtWvXAAAAXLx4EcycORNV+LSxY8cO3ZqaGkIzxbhcLrC0tLwoLS2ND4zCKGdoaHguJSWF0Cuo58+fS2ZnZ3v369fvd1RxCRubzX4DAHgDAADZ2dlJX//7s2fP1N+8eSNTUVEB6uvrQXt7O2AwGP//mQghBACAH/pvEEJQVFQEFBQUrDMyMkY/e/bMr6KigvDxuRBCkJWVZd/a2qoEnj9/rm1hYYHs9dXgwYOL4+PjxxINEgMgLCyM8LGaWlpajRcvXjSnPnoMAyAwMNCS6GwsJpMJ586du1QI4YuV27dvjxo4cCCSZ722tjbctGmTJYiPjx+HYpddBoMB/fz8Xpw+fZoWJ/eJAxMTE8INiJ2dXQ71kWPYfxQXF2taWloSfmgFBwdnUh+9+Dly5Ii1ubk54c+DxWLBvXv3rgXLli2LIVoZAAA6OTllZ2Zm4sYDkZSUFAMUq3nnzZsXRX30GPZ//Pz8LgKC97GBgUFOeXm5SCz8pbtz584tl5aW5gOCn4mzs3MMMz8/34hoQHp6eh0rVqxYZGdnV0u0Luw/ysvLjYqLiwnVwWAwQGBg4N+n3GEYhWRkZE4TnUQDALC8desW4WcVBoCPj89GW1vbZ0TrkZeX92YymUzCBwsFBgbecXZ2ziBaD/Z/3r9/P6y+vp5QHcbGxsDS0vIgopAwrFMiIiI+S0lJEZpOVFZWBr58+TIIVUxd3ahRo86yWCxCddTW1qoyS0pKCFWioaEBjIyM1hOqBPub8+fPE65DX1//jYSEBJ59hQmVlpbW77169WohUkdrayt4+/atFaqYurqmpqZEXV1dQnW8ffsWMGtqaghVIi8v/2bIkCGEu0PY/9LT05tCtA55efnrCELBMMJUVVUfEq0jPT1dZPbEorvJkyd/6Nat2xsidXz69AkwGxsbCQXCZrPfaGpq4kVqiOXn5xMaMGSz2cDBwaEUVTwYRkTPnj3/IFqHhobGRBSxYACoq6t/YDKZhBqQxsZGwOzoIPaGo1u3boT+Hvu7d+/emRcVFREadVRWVgbFxcVXUMWEYUT07NnzMZfLJVTH8+fPEUWDAQCAiooKob9vbW0FhFclYujdunWrT3t7O6Fvm5yc3OcpU6Z8QRUThhFRWVn5UENDg1AdhYWFoLGx0RlRSF0e0UF0AABuQOjo0qVLgM/nE6qDw+E8NzU1JdRFxTBUZsyYAbS0tAjNxGprawNZWVkitbU7nTGZxB//uAGhIRUVFUeiDUj//iK//xwmRjQ1NYvq6+tvEa0HxexE7D9wAyKmmpqaCC+Y6tatWx6KWDAMlV69ehGu4/LlywgiwQDADYjYyssj9uxnsVigoaEhHVE4GIaErq4u4dmaLi4us1HEgoG/7XjeGbgBoaHSUmKzb9lsNvDw8EAUDYahkZWVdYrD4RCqg+h3A/s/uAcihpqamtSlpaV1idTBYrEEzs7OnxGFhGFIjBw5EhCdyvvu3TtE0WC4ARFDxcXFSlJSUoROcJOQkGiRl5cXm8N3MPHQ382/KQAAIABJREFUp08fwieTVlVVIYoGww2IGMrJyQFNTU2E6ujRoweiaDAMHQsLixYmk0loKi+Xy1Vtbm7WRhVTV4YbEDH07Nkzwg2IkhI+lgWjn+7du1/h8/mEBtJlZGSUKyoqNFHF1JXhBkQMlZSUgJYWQhuXgu7duyOKBsPQIvrjpr29Hbx9+xZRNF0bbkDEUFVVFWhvbydUB96fDKMrovdme3s7qK6uRhRN14an8Yqh2tpaQHSDS6IzXTCMLJKSxE6l5fP5oLYWH3yKAu6BiKHm5mbC+2BJSEggigbD0CJ6bwoEAtDc3Iwomq4NNyBiqLW1FUAICdWBeyAYXRFtQCCEhMcIsf/ADYgY4nK5hN9NEm2AMIwsAgGhWbwAADTv7jE0cANCMzwej/A+/W1tbYiiwTC0WltbCf09g8EgPI6CoYMbEJqRl5cnvFqX6JcUw8hC9N5kMplAWloaUTQYUbgBoRk5OTnCPRDcgGB0RfTeZLPZQFlZGVE0GFG4AaEZFD2QL1/wSbYYPTU0NBD6ew6HQ/gsbwwd3IDQjJ6eHuGZKnV1dYiiwTB0+Hy+6ufPnwlNEeRyucDQ0BBVSBhBuAGhGQsLCyAlJUWojpqaGkTRYBg6FRUVg1gsFo9IHVVVVXmKioqPUMWEEYMbEJqxsrIiPEiIV+pidPT06VPCuywoKCh0cDgcPM2QJnADQjPa2tq1zc3NFUTq6OjokCwtLfVGFROGoZCdnU24AcED6PSCGxCa4XK5FU1NTSVE6hAIBMyUlBRCrwowDLULFy4QnoWlqqqKKBoMBdyA0JCenh6hv+fz+eDSpUuIosEwNBwcHPyJ7vOmo6ODKBoMBdyA0JCZmRmhv+fz+UBJSWkwonAwDInS0lJFonWkp6fHoIgFQwM3IDT08uXLZKJ1tLS0EGuFMAyx3NxcwnWMGDECQSQYKrgBoSE9Pb33RBcTPn36VKqlpQVvGoTRwuPHjw26d+/uRLQeLy8vFOFgiOAGhIY8PT0Jb2fC4XCsnz17ZoQoJAwjJDo6GpSXlxN63khLSwNTU9MLqGLCiCPcgOCtw9FzcnL6o1u3boTmuldWVoJdu3ahCgnDCHFzc5taVVVFqA4TExMgLS1NaIo79n9QbK3P5HA4hCrA22agJycn99zIyIjQhPm6ujpgamqKXxhjtHD58mVJog8sZWXlEjTRYAAQX3DM5XIBU1ZWllAlcnJy9tnZ2bqEKsH+xtTUlNCxaxBCcP/+fWNU8WAYEUwmcyLROhoaGq6iiAUD4PPnz8ySkhJC+5JJS0sDJtGFOQUFBZLPnz/Hv3QRKy8vP0K0DklJySmEA8EwBLKysmSI1jFy5EgUoWAAgNu3b+uzWCwHInXweDzA1NbWJvSq5MuXL+DevXu/NTY2Eps2hP0PT09PYns+AADu378PXr9+jT8XTKgyMzO9S0pKCM0IlJGRAUVFRSdRxdTVFRUVTc7LyyNUh46ODmC+fv36INFgjh8/rnrgwIGFROvB/s/du3cPEN33p6KiAjx69CgYUUgY1imHDx82aG1tJTRhR1tbGwQEBHxCFVNX9vjxY+XLly8vbW9vJ1SPkpJSFXPChAmEA2pqagIxMTERZ8+e9SFcGQYAAGDt2rXAwMCAcD2PHj3yRRAOhnWKQCAAtbW1Y4gOoHO53Gf29vavEIXVZdXW1iodPXr08p07dwivEfvw4cPvYNmyZZbq6uoQAEC49OrVC+7YsWN8R0cHsQMtMAAAAIMHD04FBD8TKyurgg8fPuDPAxOK3Nxcy759+xJ+tgQFBV2kPnrxEhERYTJ27NgXLBaL8OfBYrHgnj171rInTJhQdPny5ecVFRXmRAN88eIF2Lx58/E//vjj96ysrJUDBgwg9pKtizMzM3uVkZHhTGStzYcPH4ySk5OtAQD30EWGYT/m6tWrJgUFBYTqYLFYAEJ4GlFItFZRUTG0oKBAt7CwEHz69Anw+XzAYDD+5/8DIfyf//b1+fDX/59AIACVlZWAyWRaFRYW2u7fv9+yvLwcyY9JTU1N0NzcfJptbW3dNHXq1Kv5+fnmKBYFVlZWgmPHjnnfuHHDw8fH55WGhsb1QYMGgejo6OMZGRmfO1svm80GcnJyQFNTE/Tq1QsMHDgQjBgxAujo6JSw2WyxPGDG2Nj4ppSU1JzGxsZO11FeXg4+fvw4HeAGBBOC/Pz80V++fCFUh6ysrGDVqlWf4+LiEEUlXCUlJZK///67dkNDg312drbF58+fbdva2qxfv34NdHR0uAwGgwkhRLJIG0IIBAIB8gXfJiYmJQsWLPjPos6cnBwHVVXVdoDgNRZZhcFgQDabDaWlpaGKigo0NDSEtra20NTUNCsgIOD2ihUrYhITE/0+ffokNifOVFVVKevo6HwEBK/dwIED07Kzs/FsLIxyrq6uhL/7Li4unf8FRRMCgYCblpbmt3LlyrNWVlbZBgYGEMWrJGEUJpMJx40bt/x/Epw4ceJtYQdGNClpaWmor69fP3Xq1NLIyMj1hw4dMmlpaRHp9/+BgYHFgOC10dDQgPn5+UMpDx7r0jIyMqZwOBzC3203N7do6qNH4/r160YRERHrnZ2dSxUUFCCDwRD6s5Jo0dXVbc3Pz//fIY+jR4866ejoCD04lMXQ0BB6e3s/Xrhw4cSmpibNb33AdLds2bK1AMG12LBhQxTlwWNdWkhIyEVA8L7lcrlw//79IdRHT8zly5fNgoKCYnv37t3KZDKF/ixEWQICAv4+HlVRUcFeunRpqqh2q75XpKSkoL29fd3q1at3JCQkyP8teRpbtGiRQY8ePQhfgxEjRrz+/Pkzoa0LMOxHvXnzRtPKyqoSELxvLS0tYVJSEvH57BS5f/++SWhoaIKurm6DuDUcAACor6/funnz5m9PuMrOzta0tbWtF3aQZJYBAwZ8XL58+fq6ujrtb14Emnn58qWSk5NTDSCYt6qqKjx06JAz9RlgXdG8efPGysjIEP6+jh49OkcgEBDeBoVsHz58kA8PD5/v4OAgFq+pvlVYLBacM2dO/HcvxK5du4KUlZWFHiyZRUJCArq6utYkJSWFVFdX0/5X+ZIlS84SvSkZDAacOHFifFNTkxAywLqS9+/fs/38/LIBwe8ph8OBGzdu3EZ9Bj/n8ePHtiNHjrwpKysr9GcbmcXR0bH+zZs3lt+9GAKBQGrTpk2XJSUlhR4w2UVRUREuXbo08+nTp7Q+/jUuLs5dSUmJcL6DBg2CSUlJStRngHUlSUlJ+pqamoTvVy0trfa3b98OpTr+H1VSUsKOjY2NMDU1Feu3NgAAqKOjAyMjI4f+0IV58uQJLyAg4Jqwg6aisFgs6O7uXn/s2DFXFAeskKGpqYk3YMCAcoAg199++20O9RlgXUloaOghgOC7GRgYWE158D8oJSWFGRwcHN29e3ehP8PILrKysnDDhg1Rnz59+vGlAHFxcVxXV9cUNpst9ASoKDo6OvDIkSMJxcXFtDxHfMGCBfEAQZ5ubm41X7584VGeANYl5Ofnm1hYWBD+Rc5kMuHmzZvXUp/Bv8vMzDSaOXNmqThOOPprkZKSgkFBQZ17jbhmzRremDFjUsR1UOivRVFRES5ZsiShUxeLZOnp6d4oXmPxeDx48uTJpdRngHUF27Zti5aQkCB8n1pYWMCMjAxr6jP4vtTUVP2RI0cWi+MMq78WGRkZOHny5Kjo6OjOL0K+cuUKd8mSJSmKiopCT4iKwmaz4dixYxM2b95Mq55IXl4ed9iwYY8BghydnJzS0tLS8Mp0DKmTJ0/K9OnTpxAguEfHjh178d27d5Tn8D3R0dEmdnZ2pYAGzymyi7a2Nty4ceO2ixcvEtqGHwAAQHNzM2/lypWzzMzM+MJOjIoiISEB3d3dE9auXUv84iG0fv36tSh+3fXo0QNGRkY6UZ8BJs7CwsKCuFwu4ftTTk4OHjp0KIj6DP5ZRkaGfldpPBwcHOr27Nnj19LSgvb5l5mZ6eHv739fVlZW7BsSFosF/fz8Es6fP0+bnsjt27e1dXV1qwGC/BwdHdMEAoFIb/OC0cfdu3elbG1tkTxgBwwYUPr8+XPa9JAzMzNNRo4cWQxo8FwiqzAYDKipqdm8bNmyi7GxseSOkR4+fPhXT0/PaikpKaEnTmbp1q0bXLx4cUJxcTFtbuZZs2alAAS5ycnJwatXry7/2z+AYZ2wcOHC+aim/oeHh8dQnsA/uHHjBnv27Nll4jzmYWJiAqdOnXr55MmTtiiv3Xfl5eUpJiQkLHdycspSVlbmi+sFlpOTg0eOHPn+6ksK3bx5cxCKwXQAAPT19S2uqKjA60IwQq5fv65qYWFRABDck6amps1Hjx5VpzyJb6ipqeHOnj07VtxmokpISEA1NTW+l5dXzbJly7akp6cPqq2t7dSP5E7/sjYzM/sAANgIANj48OFD19OnT3vdunXLSCAQOL958wbU19d3tmpaqa+vBytWrBgbExNzevbs2ZeEHY+0tPQDGxubW1evXiU8hpGSkqJrZWU1EQCwE0FoWBeVlZW1JS8vz4hoPQwGAwwYMOD3wMDAChRxEXXp0qVVZ86cmdHR0UHZvyklJQWUlZUBj8cDXC4XMJnEhiFYLBb4+PHj20+fPr0yMzMDvXr1+lBfX39q3bp1X7S1ta8DAMCWLVs6XT/j3/8vP+fq1asGERERYMKECdOysrK4+fn5oLq6GhD9EBobG8GIESM8Ojo61AsKCkBxcTG3tbWVS/Rg+B/l7OzcNGvWLMOxY8cK/eY+cuRIyKJFi6I+fvxIuC5bW9va/9fevYdTlf2PA1/n6rgfJ7nmrnI95JJDIVFkKEWhzKFSZHRxSVFTI5XpG026zdeo0SQ1TSpqGopqJJmSD6lUE5kSkpBEbsf6/THj95vffJoZ2ZdzsV7P836eeeZ57NZ77X322mvvdYmNjVX38/Mj71eCSIyrV68ahYWFVT558gTzt0ItLa2hQ4cOeXt7e/+ER9mwqKqqmv7pp5/m37t3j9B1uKSlpQGXy+1RVFT80cXF5YWUlNSlV69ePZ06dSpQU1MDTCa2lZbk5eUBh8N5M378+Nc4FVkyvHz50mzjxo1BoaGhF6ytrVvIWIcmLCyslLwM/15nZyfH3d29DuCQE4VCgV988UU26UkgYu/du3cy8+bNO4XXPLEFCxZcIT2JD+jr62P7+PgUA4LuIxQKBRobG0M/P7+Lx48fD+rq6hL59fgk2sOHDyckJycvWrJkyV0i56vIy8sPfPPNN+vIzO3vfPvtt7F4bNYDAICGhobdN27cWER6EohYO3DgwCI1NTVcrkE2mw2///57kRhavnfv3lhFRUVC7iHa2tpw48aNV65evTqzr6+P1LyQEbhx44bXkiVLKpSUlAi5ACwsLBpv3bolEosvent7Y14fazj8/Pwe5ufni8xoM0S0PXnyRNnT0xO3bbADAgJKHj9+LPR5V7/88ouhsbFxPcApr+GQlZWFnp6epVeuXHEgNyPko92/f5+ZmZmZOG3atG6A84VAo9FgUlLSRXIz+rDdu3dH4LHnAgC/j8xITU3dQnoSiFjauXPnRbxGXmpoaMD09HRP0pP4gJ07d57Ce0SplpYWXLVq1cbOzk4OyekgWDx58sTB29v7mrS0NK4XhK6u7kB5ebkNyen8lxcvXnDmzJmDy9IRAABoaGjY9sMPPwg9L0S0/fjjj5Ha2tq4TSb28/O7UltbK/Tex/3797mTJ0/G9aGTy+W2XrlyZV11dTXJ2SC4+O2339jbtm0rxrMRoVAoMDQ09AzZuXzIDz/8EK2goIBbXnPmzClNT09HH/WQD2prazNycnLCvFXtcKipqQkuX748g+Q0Pmj9+vXf4bnCLpfLbVi/fr0R2XkgOGtra5M7cOBAMZvNxu3iMDIyGigoKCBv5ubfGBgYYHp6euK2dwuDwYApKSmnyM4DEX1tbW0sPp+P26grCoUCo6Ki8klP5AOKi4v17e3tcfumY2RkVL97927Mc2MQETE4OMjetWvXNbxmlVIoFBgZGSkSSy5kZWVN19fXx61xVFdXf3/s2DE/svNARFtMTAwfzw2UjIyMWg8cODCB7Dw+JCYmZg1e9wZTU1OYm5u7gPQkEGK9fv1aJiQkpASvj2Q8Hq+7p6dH6Istvnr1ih4VFXURz+63q6vr++PHj+uSnAoiogoLCz0nTZr0HuB0fTGZTLh161aR2e/cz8+vFeCQF4fDgbt27dr49u1boX/TQQhw7do1fXd39w6Aw8VCpVJhdnZ2OOlJfMDZs2c1LC0t2wBOP3AAAPT19a3s6OhQITkVRMQcO3ZMedasWbisAj0cDg4Oj9+/fy8SvY/r16/PUFBQwOX1VUxMTMnQ0BAabSXJCgoKwvFakJDP5xeTnsDfOHz4cDKeKyRLSUnBzz//PO/YsWPoaWqMamhoYIeGhpbh2btVU1ODGRkZAWTn8nciIiJS8fiuY2trO3D+/Hm0XfRYEB4efgGPi2by5MkdNTU1huRn8N+qq6tZgYGBt/DcgpjNZsOtW7ei+SFj1O7du0vx2MRsOGg0GoyKiro0NDRE6BpTI9XX1yczbdq0ewBjXjIyMjA5ORn9TsaKoqKiqRYWFph/EIqKinDRokUiM7s0NzfXQUdHB5dXdMOhqakpyMvL2ygQCEjOBhGWe/fugYSEhHV4vdoZDjs7u6779+9zSU7nb50+fZo7efJkzHk5OTk1P3nyRCReySEkiYyMPInHB/WIiAiR2S8EAACSk5OT8XxqBABACwsLuG/fPpFYqwghXmZm5kZNTU1cryEOhwMPHTokEt8Mh+3evXsN1jXl6HQ6TEtLSxZC8RFh+vnnn23Gjx+PeWTJtGnTSpubm0VmHamSkhJmSEgIbjPUh8PY2Ljl+PHjaGKUhCssLIyeNGkSrttW02g0GBkZeeWXX34Rmd8JAAAsWrToa4AxNxMTk/ctLS1oY7axKDAwEPNOajY2NnDPnj0itb94YWGhFY/Hw23Y5XBYWVm1pKenW5KbDUKWoqKijVwuF9fGAwAA7ezsHtfU1OiSmswIuLm5Yf7+ERoaeon8kiMiYd++fUkA4wUkLy8Pb968KTLvdYd9+eWXfFlZWVxvBAAAOH369OZLly6ZkZsNQrTKyspoGxsb3K8XTU1NmJ2dPZfcbEbG3t4eU25SUlLwyJEjIvVaDiHRtm3bdHV0dDD/SE6dOhVNfun/XXR0dCERezrb29s3Hzp0CPVEJEBvby/10qVLG62trXHvecjIyMAtW7ZkFBYWkpvUCPT398th3faBy+XCnJwckRiFiQjBs2fPOM7OzpgXh1u2bJlINiBff/21wpw5cx4CnG8MAABoYWHRnJycLHI9L+TjXLhwIdbc3Bz36wMAAP39/a+8ePGCTWpCI/T06dNwgDE/BweHysHBQZF6fY2QzMvLKw9gvJAMDAxEsgEBAIDS0lIHc3PzTkDADWLSpEnNOTk5Ie/fv0eTDcVMaWkpNSMjI27ixIm4DtUdDnd39/ei9m3wz7799lvMDUhwcLDoda0Qcm3fvh1zAxIUFCTSH9KysrLWTZgwgZCnTCMjI5iRkZFEakIIZqtWrdqI15a0fw0dHZ2OI0eOuJGa0Edau3YtpgaEQqFAHx+fWCEUHRElHh4ei7B+J1i+fPkTIRR9xNra2uiff/55moyMDO7vuQEAUEVFRRATE7Pl119/Ffriksg/e/r0qXJiYuI1OTk5QnoeSkpK8MSJE/tJTWoUvL29MTUgTCYTzp07F626O9b5+Ph4YN1wasmSJSLdgAwLCws7yWQyCXnqlJWVhfHx8Q+qq6vVSE0KGbGysjIzf3//CiIGVgAAoJycHExMTEwnNalRmj59OqYGRFpaGkZHR6MGZKwLCQnxwDrc1d/fXywakMbGRt0VK1bU4b3v83DQaDTo4uJSeevWrZnNzc2k5ob8s7Nnz/rMmjWrG8+10v4cdDod+vj4ZOTm5orFjpY8Hg9TAyIjIwM3bdqEGpCxzs/PzwPrKrZ8Pl8sGhAAAKipqZkwa9YsQkZmDceUKVPgl19+GdLf3y8Si+aNZffu3ZNJTk7eoaWlRcjrSwB+39pg5cqVdYODg7okpoaJu7s7pgaExWLBiIgI1ICMdRYWFh5Y18MJDw8XmwYEAABSU1N1uVxuHSCwEVFRUYGrV6++cPjwYbF4IpVEz549M1u5cuUDeXl5ws4zAAB6e3s/KysrE6stXPl8PqYGhMFgQCcnJ9SAjHXJycnnAMYf0Lx58zLJLzk2p0+fnurk5NQHCLyxUCgU6OHh0bZ///7ZnZ2dIrUOkiQrKSmhpqenR1pYWOCy094/hbOzc92VK1f0ycsOHykpKXgM4/2K/JIjImXBggWYh/Ha29uL7DyQf3Lz5s1lPB6P0BsMAADq6urCTz/99GBDQwNa8ppgP/74o0ZoaGg+Xpum/VNMnTr1WUZGhljOxC4uLsbcgMybNw/NAxnLGhsbFezt7TGvXJuYmCiWDUhvby8oKioKnTp1KqE9EQB+/8Du7u7efeTIkfDe3l70bQRn9+/flzl8+PBuKyurLqIGSfw5bGxs6lJTU8Wy8QAAgJ6eHksWi4WpDqZMmVLf0NCAVuIdq2JiYjQMDAwwXUQUCgWWl5eLZQMyrKysbJmjoyNhH1n/HMrKyjAgIKAwKysLLYOCk0uXLi328fGplJOTI/z8AQDg9OnTn3377be6ZOVHFBMTE0z1oKWlBdeuXSu2jSiC0c6dOzdiHdaora0NT548KfZPIcXFxX7GxsaEjs4aDgqFAjU0NLq/+OKLU/fu3eMODQ2Rlqckyc3NNeHz+dmampqkNP4UCgW6u7vXHTt2TCJumvPnz+8GGOtjw4YNaBWGsWr27Nm3AMYflaenJywrKxPZNX8+RlJS0gRra2vMe6SMNKhUKnR0dIS7d+/Oys/P55CVp7i7efOm2erVqzO4XC4p5wn8ca7mz59fX1VVpUtSmoSbOnUq5g2lnJ2d75FfckToSkpK5qqqqmJ+cvPw8DjX19cnMYsJ7t+/X9vb2/sxjUYj7ebEZDKhqalp4+rVq6OPHj0qNzg4KDH1iZempiZqZWWl0bZt27JMTEy6yDw/DAYDrlq1qq6srEwieh7D0tLS9mN9A6GgoCC4cuXKIiEUHxEWgUDAioqKKsd68dBoNJicnLxLCCkQqqGhYcK6deseYP3I+LEx3CPZtGnTqfz8fPSN5A8pKSkmwcHB31lYWJB6PsDvN0gYGBiYLhAIdElJlkQJCQlcPPZ+DwsLuzcwMIAGhowVhYWFPlg/ngPw+/eP48eP88jPgHgNDQ0q/v7+qURPQvtQUKlUaGho2D1v3ryTxcXFi86fPz/meiQFBQX0vLy8BcuXL69QU1PrImoJkn+KcePGwW3btn1dUFAgkZNB29vbNezt7THvBzRhwgR47ty5xeRngJBuaGiI4+PjUwFw+IFNnTr1LukJkGz//v3JEydOJP3mNRyysrLQ0dHx8fbt23cXFxdbDQ0NSeyExLa2Nur3339vFRERkfzJJ58IiFr4ciShp6fXkZubm0pG3sK0evVqzPPAAABwzpw5D4eGhsR+MA3yL9LS0pKxrn01HHw+fwvpCZCsv7+feuDAAa9p06a1ASHdzAD4fbE+MzMz6O/vX3Ho0KHEO3fuSMTABQAAePnyJTchIWGzu7t7uYGBASRjHsc/hYeHR2dGRoYTCakL3eXLl/l43A8YDAbcs2dPGvkZIKTZv3+/k4mJCS5DHlVUVGBtba0Z6UkISVNTE3fZsmV1ZH8X+VBQqVSor6/fFxISUrdjx47U+Ph4k/b2drFZRv7p06cqwcHBJlFRUbvmz5//WENDY0DYjQYAAMrLy8PAwMBLr169siG+FkRDX18f1dHRsQHgUH8GBgaCtLQ0D9KTQIhXU1NjyOPxGgFOPzZxWoEXLz///LPcrl27zuHx4RHP0NLSgtOmTWsMDg4+ExQUFFBXV+dFcFV8tIqKCo+wsLDI5cuXF1taWjaoqqoKvd7+HAYGBjAlJWV/S0uLAsFVIXLi4+NT8frGZGVl1VJcXDxmHizHhPLycjNfX19cnjIAAFBRURHu2bMnhOQ0RIJAIGB+//33i1xdXVvIHEo60mAwGJDNZgumTp3a4ebmVjh//vxdR48eTfL19dX96aefdDs6OggbLfPmzRu106dP67q5uekeOXJks5+f366QkJBnXC63Q05OTkDURk5Y68vZ2fnexYsXRa7RJUtubu4kc3Pz9wCnOp09e3bzlStXrMjOg2wUYReADNXV1UZJSUlXzpw5o4HXjGdnZ+dHhw4dsjM1NX2LywHFUHFxsdqxY8e+Pnv2rE9HR4ewi/OPKBQKUFFRARMmTADd3d33paWlX1hYWABZWdnay5cvX7GwsACWlpbAzMwMqKmpATabDdhsNmAwGFVMJlO7q6uL8+bNG/DmzRvQ1NQE7t69C6qqqsCjR4+ofD5/xcOHD8Hdu3cBm82e2t3dzWloaABtbW3CTvtfqaurg2XLlhVERkYuV1dXbxJ2eYSJz+dnHD9+PBSPewSFQgFubm4vo6Oj58yZM6cKh+IhwlBcXGwyd+7cBjyHQLJYLLhjxw4+2bmIohMnTlBTU1NDbG1tm0WxNzKSoNFokMViQTk5Ochms+G4ceOgsrIyVFFRgdLS0p0cDqdPRUUFKisrQw6HA9lsNpSTk4NSUlJQXHOm0+nQ1dW19dSpU6E1NTUSO6rtY1y9etXEwMAA09Imfw1HR8eWnJwcS5JTQfBw6dIlEw8Pj0a8x8/PmTPnMcmpiLwXL15M+uyzz05qa2sL/eaI4p9DS0vr/erVq9NbWlpM/v6Mjk2bNm3Kwnswg729fXNmZqbEv86SKAUFBSZubm64ffMYDjU1NXj06NEgcrMRD/39/awTJ074+Pv7d4vCSC0U/3/IyMhADw+Pu+fPn5/7z2dy7CovL5+Iy3FHAAAgAElEQVQ0a9asAYBz3dva2rYcP34crawgDrKyssycnZ1xG201HFQqFX722WeFQ0NDaMmCf/Du3TvOvn37kszMzBrF9RWPJAWDwYA8Hq85MzMzWSAQqPz7GRzb9u/fv4bD4eB+HqZMmdKSkpIyZoZHi6W8vDyjadOm4d54AACgvb199/3799H7zBE6duyY2vr1648YGBiQstQ4iv+OiRMnDixbtmxLUVGRxkjOGQJAb2+v3KeffnoJEHA+zMzMWr/55hs0xFcU7dmzh2tra4t5XZsPhYqKCszOzo4kNSEJUVFRYbN06dJzhoaGhO96iOL3MDQ0HFi7du2F2tpaiVynjWjPnj2zcXR0JGTlBWNj49YNGzagnogoOXbs2KQpU6YQ0ngwmUwYGhqa/ttvv0nkgnJkycnJ4a1atSpfR0dH6DdYSQ09PT0YERFReObMmTGxDAmRMjIy/PT19Qk5TxMnTmzdvn076omIgs8//5xrbm5OSONBoVDg0qVL63p6enTJzElSPX/+nHrr1i2bsLCwc+bm5u/RNxLsQafToYWFRV90dPSF+/fv8968eTPmVi4mwuDgIDU9PX2XoqIiIedNX1+/NTg4GPVEhGn79u1GxsbGhDQeAADo4ODw7OrVqxK1iY6oqK6utgoMDEzg8XitqCH5+KDRaNDV1bUjPDw8saqqCt2ICFBcXEwNCQlJk5aWJuQc6ujotJw8edKP1KSQ361Zs4Y7ceJEQj6YAwCgtbV1y+bNm/XJzGksys7Oltu3b1+0i4tLiaampkAUFhUU1aBSqVBbW1vg5eVVlpmZGXf58mU0IpBgO3fupCYkJBQTtbS+mZmZoKCgYDOpSY116enpZkT2POzs7GB5eXkEmTkhAOTn588MCQn5ys3NrZuopz5xDFlZWWhhYfFw9erV+69fv+6GtZ6RjyMQCCZs3br1CVHzm3R0dFo2bdqEepFkqK6u5rq4uBDW85g2bdrA9evXIwcGBshMC/mT8vJy5R9++CEoPDz8jKWlZZuCgoLQb+Jkh6KiIrS1tW1btWpV3tmzZ0POnz+PehtC9ODBAwVvb+/dLBaLkGHpU6ZMab1+/TqasU6koqIiFp/PLyPqNYejo6Pg7t274aQmhfyjt2/fsg8ePOjz2Wef5ZuYmNzV0tIS+s2dqNDU1IQWFhb3YmJiLh07dmzBwMAA2uFOxPj4+OyWlZXF/dxTKBTo5eVVmZmZKTEbpYmcpKSkBCJOHgAAOjg4dJeVlaG5HiKstrZWbt++fdzdu3fv+uSTT65Mnjy5U1ZWViCOH+FpNBqUlZUVmJmZdc6bN6/4yy+/3HXo0CGr+vp61NMQYSkpKfSFCxfulpaWxr0nwmQyYUpKyjlyMxoj7ty5M5XL5eK2Zv+fY9KkSXVRUVG6ZOaD4KOsrMwrIiJi3YoVK4r19fUrJk+eDOXk5ITeQPw15OXlobGxMTQ0NKwMDg4uXr16dezNmzd9iK0dhCh8Pn8XEdeZtrb2QEFBwXRysxkdsdkPpL6+HiQlJZ0+evSoH157egybPHnyb46OjrMOHz5ci+uBEdLV1tayysrK9G/cuME2MTEJvHDhAmCxWB4dHR269fX1oLW1lT40NASGhoYAhBDXf5tCoQAqlQqoVOqQqqrqkJ6eHlBWVn7R3t7+o7e3N2hubj7N4/FeOzs7/6aiotKD6z+OkC49PZ1eWlq6KycnJ7qnB9/T6eXl9dOGDRs+cXR0xPW4eBObBuTEiRMOn3/+eWldXR2uxzU1Na1dsGCBa1JS0nNcD4yIpFevXi24fPky++LFi6C4uBh88skn8wYGBjRaWlpAS0sLaG9vB93d3aC7uxsIBALQ19cHAACAxWIBGo0GZGVlgZycHFBUVATKyspg/PjxQFNTE1RUVJzR1tZ+5enpCezs7O7o6OhUCzlVhCTh4eHJ2dnZG7u6unA7pqqqKli3bt2s+Pj4ItwOOpbFxMRcBDh3FU1NTeujoqLQPA8EQUYtOzubGhYWliovL4/r/WnJkiXXSE5FMr169YptZmaG67cPLpf7eNu2bdokp4IgiATKycmhrl+/fgeew801NTVhS0uLWHwLEWm7du3i4zkL1NLSsn7z5s26JKeBIIiEW7du3W42m43bvSopKSmV7BwkzuLFi4sBTifE2tr68bZt23RJTgFBkDHg0qVL1E2bNu1gs9m4DPGdPXv2XdKTkCRPnjxRMDAweAhwOBmmpqb1+/fvn0B6EgiCjCnR0dG78PgmYmho2PXgwQO0d/1obdmyhTthwgTMJ0JPT6/v4sWLfPIzQBBkrDl8+DA9ODj4EtYVM9hsNly3bt1MIaQgGTIyMuLodDqmk0ClUmFsbOwpIRQfQZAx6tGjR9NNTEww78K5d+/e78gv/ciI/MYz9fX1eoODg5iOoaamNrhixYpdOBUJQRDkXxkZGd1wc3O7jvU4ZWVleBSHECLfgNy5cwfzMWxtbX+bPHnyf3AoDoIgyIi5uLicYTKx7YRdUVGBU2nwJ/INyKtXrzAfo7u7+zwORUEQBPkoN27cOK+lpYXpGG1tbVS8l2/Ci8g3IG1tbZiPMWnSJBxKgiAI8nFsbGwAm83GdAxPT8+gvr4+kVziXeQbECkpKczH6O7uxqEkCIIgH6ezsxNg3Ziuubm5lkKhYPsQTBCRb0DGjx+P+RiPHj3i4FAUBEGQj/L27VtOU1MTpmPcvXv3JovF6sepSLgS+QZET08P8zEYDMYiHIqCIAjyUQYGBvxfv36N6RhYv6EQSeQbEGtr67dYj1FeXi5z+PDhlXiUB0EQZCTevXsnU15eHor1ODweD4/ijE2Ojo5cPJYEmDFjxuO8vDwF8jNAEGQsSktLi8W6YyGVSoU7d+5MFELxJcOVK1dMjIyMMM/mZDAYcMOGDSVdXV0iOZoBQRDJUVZWFmJtbY35vqWmpgaTkpIcyM9gZMRiR0Jra+vSiooKzJUoJSUFEhMTr3722We+8vLyb/Aom7jr7u6mNjY2zs7NzQUFBQVAR0fH0NjY2LWnpwf09/cDGRkZ0NjYWH358uUyGxsb4O3tDRwdHZvQjnuSqbOz06S0tFT7woULoLS0FDg5Odmoq6tb9/b2AgAAkJGRATU1NcUPHjx4NGPGDODj4wOmTp36K4vFeirkoouM6upqfnR09JGioiI61mPp6ur+9vPPP1vr6uq241E2vIlFAxIZGXnw4MGDEXjsYS0vLw82btx4fdmyZXPU1dXH1L7UnZ2d9Bs3bqhQqdSg1NRUppKS0vI7d+6A/v5+3Z6eHvD+/XvQ398PPjRpiU6nAyaTCWRkZACNRnunpqb22tbWFgwNDWUuWrTo15aWloKgoKAeGo0mkqNFkP92/fp1hcePH0/49ddfvZ49e+ba2Ng46fnz55z+/n6Fnp4e0Nvb+8EhqBQKBTAYDMBisYCMjAyQkpJqnzRp0tvx48f/x8HB4RaTyfze3d29XUdH550Q0hKqioqKkA0bNnxdVFTEwuN4ISEhd44ePWqLx7HGrMrKytlKSkq4rK8PAIBSUlJw+/bt1968eYNtho+YuH37tuWGDRs2enh4lJibm0OsK4T+NaSkpCCPx4OLFy8uTUlJSaivr7ciOUVkhNrb21USEhI8g4KCTs6cObNbUVER12sBAAA1NDTgvHnzWhMSEk6eOHHCSSAQjIlvj9XV1UEzZ87ErR4pFAo8duxYONl5SKSAgIAugONFLicnB5OSkq61tLTIkZwKKX7++Wd6YWHh4tmzZ582NDTsZjAYuN8oPhQsFgtyudz3/v7+Z8rLy4MqKysxd+MRbB4+fEh98uQJd+vWradsbW0b8Nwx75+CQqFALS0tOHfu3Pq9e/dGt7W16WOdVCeKBAIBqKys5Lu6uuK67baNjY2gt7d3TDzkEm7Pnj1xLBYL1wtcSkoKJiYmlkhST+TZs2cKu3btCvX09HwiIyNDyo3i70JRURH6+vrWHTp0aOWrV68kpo7FSUpKCnfx4sV5BgYGQr0WqFQqdHFxgUlJSRnl5eUStbZQeXl5yIwZM3BvfFesWPE1yalIrl9++UXF0dGxEeB8YcvKysLExMRrHR0dYt8T+fHHH5d5eXk9JuK1BJZQUlKC8+bNe1JYWIjm4pDk119/5QYGBp7S0tLC9akYa9DpdMjj8ToPHDhwkOAqIEVlZSXfxcUF9zo2MzODN27ccCM3Gwn37bffbsFjTshfQ0pKCm7ZsqW0ra1NLJ+SCwsLpy5evPgCWa8mRhuKioowICDgYkFBAZoZRZB79+6pbN26Nc3Y2Bi3b4ZEBI1Gg+7u7g3Z2dli+1BRVla2zMnJCfd6plKpMDg4eLckvu4TqsHBQeW5c+eWAwIuaGlpabhly5Zr7e3tYvPBb2hoSOHw4cNbeDzeABCBm8JIw9raWrB3797EwcFBsWywRdX58+dnzpkz57GUlJTQz/FIQ1VVVRATE3Pm5s2bYrVe3Z07d0KcnJwwz/P4UDg6Or6vqKhQITWhsaK0tHS2qalpNyCoEUlISChta2sT+Ubkl19+mRAVFVWqoKAg9JvAaEJWVhYGBQWV5+XlTSCkgsaQ169fy+3Zs+egvr6+WD1IDAeNRoNeXl7dubm5XoRUEM5KS0tDHR0dCalrVVVVuHPnzsWkJjTWxMfHh44bN46Qi1lKSgpu3rz52uvXr0X26fj69euz/f39OykUitB//Fhj1qxZXd9++60n/rU0NmRlZSmEhoYWysrKCv1cYg09Pb2uzMzMg93d3SI7cu/27dvLpk+fTkjjwWAwYExMzJmenh60WgaR3r59y9y0aVM2UV11aWlpGB8fX9rQ0CByH9YPHDjgZm1t/V4SGo/h0NbWfn/w4MG4np4ebHt/jjH37993WrhwYRuNRhP6OcQrlJSUYEJCwsmLFy/iMhEPTyUlJaGOjo6EvLb6Y9TVs1OnTolc3hIpNzeXHhgYSFgjwmAw4MaNG4tfvXolMu9mIyIiPPT09HCdDyMqoaqqCr/66quspqYm1IiMQF5enpurq2snEIFzh3ewWCzo5+d3cs+ePSJzM71169YyBwcHQgYmUCgU6Ovr2/L48WM0AZdM6enprIULF2bR6XRCLmQZGRkYFxdX8vjxY6F/E4mKinLT0NAg5NuPqASbzYY7d+7MevHihci+whAFFy9enGFjYyORDxLDwWAwoIuLy8m4uDihPlD09fWBkpKSUAcHB0J6HgAAOG/evNbbt2/bkJkX8ocjR45QFy5cmI33JMPhoNPpcP369SVNTU1C64nExsZ6aGlpSXTjMRyKiorwf/7nf7I7OjpE5ulTlJw/f362nZ2dRDcew0Gj0eCMGTNObdiwQWjXws2bN5fZ29sTkh+FQoE+Pj4tDx48sCQ1KeT/d+TIEVZAQEA2Ue+CpaWlYWxsbEltbS3pPZHNmzfP1tHRGRM3jOEYP348PHnyZBZOVSgxHj165DRr1iyJfG31d8FgMKCzs/OpzZs3k7r5XW9vL7hx40aovb09YT2P+fPnt5aVlaGeh6hYsmRJtrS0NCEnm06nw+jo6LIXL16Q1hOJi4vz0NbWFqmZxGSFmppa3+7du8ViWCcZioqK2HZ2diVABM4N2UGhUKCzs/PpmJgY0kYnFRcXr7SzsyMkHyqVCufPn9/64sULM7LyQUbg5MmTrCVLlmQT9U2ExWLB2NjY4qamJsJ7IvHx8bN1dHTG1NPmX8POzq6rqqpqzA/x7enpkYuNjb1G1HUtDvFHT+Q0HvX5b0pLS0N5PB5hPQ9fX1+J6XmIxX4gH+Po0aPUoqKizJycHP7wJjh4YjAYIDIy8nZ0dLS7lpYWIZtSxcXFeZw8eTKvoaGB8A+IdDodaGhoACaT+ZTL5fbIysrWVlRUFKqpqQEIIXj58iXQ0tKawmAweNXV1YBCoZg1Nzd/cJ8IInh6eladOHHClc1mi+SGOmTYtGnTmn379qV1dXUR/m8xGAygrq4OKBRKjbm5+RCE8E59fX25qqoqAACAlpYWYG5u7tLX12dUWVnJEggEhs3NzUAgEBBeNgAAcHZ2zrG1tQ1OSUkhZC+fwsLC8ISEhK/Ly8txPzaVSgW+vr6vDxw44KyqqlqD+z+A4OP48eOswMDALCaTScgTBJPJhNHR0SUNDQ24TzZcv369h7a2NuE9Dz09Pejl5VWycePGuHPnzk1/9+7diOa8nD17dvqqVauWzZ49O8/U1BQSPR/lj8lVuz66IiVEVVWVG5fLJXyGuampKZwzZ87FqKiolefOnZve3Nz8r98cWlpaZLKysqaHh4dHOzo6XtPQ0CC0jAD8/ip5+vTpp6Ojo3EfqVdcXBxqa2tLSF1TKBS4cOHCljt37qChuuIgOzub/umnn2YSNTqLyWTCtWvXlj9//hy311nx8fGztbS0COs602g0aGRk1BYZGXnwq6++0mhtbR31j/DJkyfUX3/9lfvFF19scXBwaCZy6XhDQ0NBRkbGjNGWVVydPn2a6ePjUwoIqlcZGRk4bdq05i1btmyJj4+Xe/78+ag/VFdVVdHLyspmxMfHF5qamg4Q+WBBpVKhp6dn4YsXL3C7GV+6dCnCxsaGkMaDSqVCf3//lvr6ei5e5UVIcPLkSeaSJUu+I6oRodFocN26dSXPnz/H/GE9JibGU1tbm7DRVnp6ejAsLOy7n3/+WR9rWf/qt99+U/7iiy/ijI2NG4i6cQQHBzfevn17TM0PSUtLiyNirTMKhQJNTU0bt27dmvDy5UvcF+2rqqqasWbNGkJ7JHQ6Ha5evbrl1atXmIfAXrt2baW1tTVhkwT9/f2b7969i3oe4ujUqVPMkJCQTKJmrEtJScHIyMhb1dXVo36dtWHDBg+i9m2g0+nQy8ur9cyZMx79/f2EflMpLy83Wrt27WllZWVC6vngwYNriCy/KKmoqJBxcnLC/VUmh8OBkZGReVVVVYSOAGpqaqKnpaXNmDFjRitRw+tpNBqMjIxsaWxsHPXNOT8/P8LKyoqw11aBgYHNjx49QvM8xNnp06fpwcHB3xE1xPePC7m0vr5e+WPLFhUV5UVUz4PFYsGoqKji/Px80oYe9/T0UPfu3RvK5XJxv/nZ29s/q6ysFJmlZYgUFxeXiPfe9ebm5l07duwI7+rqIq0nl56ersDn8y8R+RYgIiKipaGh4aNHNV27dm3llClTCCkXlUqFgYGBzY8fP0avrSRBTk4OMzQ0NJOovcGlpKRgWFhY2blz50bUEykqKqLv2LEjjqjlSRQVFWFaWlpZZ2enUBaEvHLlyozZs2fjuuijtLQ0jI6OlvheSH5+vpqpqWkDwKneKBQKdHV17SssLPQgOxcAAHj69KlcWlraNQ6HQ1gjsnTp0tbbt2+P6Em/tbWVlZaWFm5ubk7YwohLlixpvn//Pup5SJrly5d/R9QHXwqFAq2tre/FxcXxGxsbP/itobe3V2X79u1en3zySQlRS3DLycnBr7/++ppAIBDqkvSPHj2auXDhwg48GxFHR8dnFy5ckOjlrmNiYjbiOYJw3rx5XQ8ePBDqfBqBQCAXFRWVwGazCRskMnHixJbg4OCEysrKD77SevHiBTMnJ2dxWFhYJVG7d1KpVBgUFNTc2NiIJglKotzcXNaKFSsyiRriC/64gRsZGbUFBQU95PF4ic7Ozmu4XO6aVatWPbC2tm4k6kls+N9OTU0tGxgYEPoCkAAAcO/evZnu7u649bKkpKTgd999J7bboP6bq1ev0r28vDoATvXl4uIyUF1dLZSex4csWrQoVElJibDtdul0OjQwMHjv6en50NfXN2P69OlrpkyZsmbx4sWXLC0tH6uoqBD22wMAQD6f33Lv3j3U85B04eHhmZKwCc+fQ0FBAe7bt++aqDQewwoLC2cYGxvjdlN0dXW9RHYOZDl27NhsvAZ8GBoadubl5YlM4zHs008/DRk3bhxhPRFhxB89j5bu7m4jnKsLEUX5+fmssLAwwkZnkR1ycnJw//79pQMDAyK5k+L333+filfPS0dHp6+ystKB9CRIEBkZWQxwuh6ysrK+Jj2BEVq8ePEyJSUlof9u8AgKhQKDg4NbqqurUc9jLLl48SKIjIzMEPeeCIfDgenp6df6+vpEbgfFYZ2dnSA4OPgUHt9D6HQ6jI+P30F+FsRqamoyNDMzawM4XBMLFy680N4uuqu/bN26FSxdujSEw+GI9WKhNBoNhoSENHd2dqKex1iUn5/PDA8PP0LUEF+iQ0FBAaanpxcPDQ2JZM/jz27evGk2ffp0XPL29vauEAgEEvUxPTQ01AmPj7tWVlbw8uXLPPIz+Hh8Pj9EXHsiVCoVLl26tPnhw4eo5zGWFRQU0FevXp1B5HIcRISCgkLf3Llzw1tbW8ViG9ihoSEQHh4eh8drQwsLC/jNN99okJ8FcVatWpUFMNYLnU6H27ZtOz04OEjq/hmjtXXrVhAcHBwybtw4seqJ0Gg0uGzZssbm5mYTgqoGESeXL1+mR0ZGHhGX11lsNhv6+vqGE1YhBMnPz+eYm5s3Aoz5MxgMePr0aYkZjfX06VPmlClTMO/3YW5u/r62tlbslgoPDg7mczgcwkZn4RnDjUddXR2aJIj8P4WFhcyYmJh0UX+dxWaz+/z9/SMSExMJrA3ibNmyJRvgUA9+fn5JpBeeIMnJyWwLCwvMdRIZGZlHfunxwefzRX50FpVKhcuXL2+sr69H8zyQ/1ZUVERds2bNEXl5eaFfrB8KDocjCA4OFusn74sXL5qoq6tjrgsfHx/8N20Qktu3bwdgXe6Dw+HAvXv3il3v48/4fD6fw+EQvnz9aIJGo8HQ0NDGxsZG9NoK+XtXr14VyZ7IuHHjBpYtWxZBcPqEq6mpYTo7O98DGOvDzs6ulfzSEyMlJWUjwFgflpaWD2/cuCH2AwuCgoJCRK0RoVKpMCwsrLG2tha9tkJGJi4uLkNURohoamoOxMTEiHXP48+ioqK+A9gb1I73799/9AKWosjR0RFzA8Ln88+QX3JihIaG8tXV1UXidRaTyYSrV69ufvv2LRqqi4xcZWUlMy0tLQOP1y1YwsrKSpCeni52H8z/yZo1azyxviZUUlKCVVVVC4RQfNxFRERUAgx1ISUlBQMCAvyEUHTCpKSk8LlcrlA/rEtLS8OlS5dmVVdXq5GQMiKJzp07t9LJyakD7+W1/y1YLBb09fV9/J///MeNpFRJc/nyZQd9fX1M9fPH7HuJaEACAwPrAYa6UFVVhdnZ2RJ3nRQXF8/w8PC4R+TadX8XEydO7Dx69GgGOZkiEq2goMAwNja2ePz48aRcvMbGxp2RkZFxz549k8gnn56eHv2JEydimnXNYrHgihUrJKIBmTVrFtYGpLO5uVkiX7HU1taqREdH7+ZyuaT89mRlZWFQUFDl1atXhbqCMSJhWlpaqIWFhR6BgYGlEyZMgHhv30qj0aCFhcX76Ojo0y9fvpT42a36+vp3AYb6YjAY0MPDQyIaEB6Ph6kBGT9+/BMhFJs0fX194Pnz52ZBQUEnDQ0Nu4l4G8DhcKCbm9uDM2fORN6+fVssJmIiYqitrY164cKFBaGhoVmurq4Q68xqNpsNvb29W5csWbKxqqpK4huOYVwuF1MDQqfTob29vUQ0IFZWVpgaED09PYluQP7s/Pnz3LVr12byeLxmrEOfKRQKNDIygnw+vyI1NXVRRUUFabs1SgJUWaMwbty4IQDAWQDA2YsXL66Kjo72+d///d/JVCo1oLS0lC4lJaX77t078P79ezA4OAiGhoYAlUoFTCYTSEtLA2lp6UEKhfKbk5NTL41Gy1y5cmX1uHHjbpiamvZmZ2cLOz3S0OnYL7/+/n4cSiJ8AoEA09/TaDScSiL65s6dWw0AWJqTk8Nqa2vjXb16df6bN288a2pq1Hp7e+W6urpAb2/vf/0djUYD8vLyQE5ObkheXv6pgYFBzYwZM4qdnZ1zTUxMXsjKykrGxUQiirALIGlevnzJrK2tdTp16hS4fv06ePbsGXj79i1gs9lg8uTJYObMmWDhwoW9lpaWN4RdVmGztra+W1FRMepx9XQ6HVhYWPhWVFScxbNcwmBhYVF/9+5d3dH+vaGhYW1tbe1EHIskdp4/f26Wn5+v9t133wEPDw/fnp4eld7eXkCj0cC4ceNAXl7ed9OmTesJCAgYmjp16lVhlxdBEAysra0xv8KytraWiFdYFhYWmF5hGRoajplXWIjoQB+KEARBkFFBDQiCIAgyKqgBQYQGQijsIiAIggFqQBChoVDQGA4EEWeoAUEQBEFGBTUgCIIgyKigBgRBEAQZFdSAIAiCIKOCGhAEQRBkVFADgiAIgowKakAQoUHzQBBEvKEGBBFrqBFCEOFBDQgiNHhMJJSUBkRS8kDGFtSAIELDYDAw/b1AIAAaGhoTcCqOUHV2dmL6eykpKZxKgiAjhxoQRGgUFRUx/T2EEGhqanrjVByhefTokVN/fz+mhhBrXSLIaKAGBBGaCROwdx7u379vUldXp4JDcYRm165d+u3t7Zi2Z9TQ0MCrOAgyYqgBQYTm4cOHp7Eeo6amRiMnJ4eHR3mEoa6uTubly5dRfX19mI7DZDJrcCoSgowYakAQoZkzZ85rrMd48+YNyMvL+7yjo4ONR5nI9sMPP4Rcv3591Nv6DpOXly/GozwIgiBi4fnz5zNZLNaot3EdDiaTCVeuXLmD/Ayw+eKLL7S5XG4nwJg/g8GAly5d8iI/AwRBECGaOXMm5gYEAACVlJQEy5cvjxUIBAqkJzEKBw4csJoyZUodwCF3Ozs7eOjQIRnSk0AQBBGmxYsXXwA43EQBAFBeXh6uX7++9MmTJ1PJzmOkuru72Xv27EmwsrISAJzy9vb2Lnz79i16HY2QDtPIDwTBisfjnTl//rzXu3fvMB+rq6sLpKamOhQUFBTHxMQUOTg4nPvll18u6+npASqVCigUCoAQ/t8JjMP/jU2onIAAAALYSURBVOX//Z3hiYEUCgW0t7cDKSkplfb29vn+/v6RV69eZff09GDOFwAAZGRkgL29fZ6CgsIQLgdEkI+A9hRFhKq+vl6Xz+dXlpSU4P4RnMViAU1NTSAjI9y3OwMDA6ClpQV0dHTgfmwbG5u3p06dsjMwMHiE+8ERBEFE3datWw/SaDRcXueMtYiNjc0cVaUjCIJIgtevX+taWlr2ARG4IYtTmJubw4aGBv3R1TqCYIc+vCFCp6ys/Juvr+9RrGtjjSUMBgMsXLjwuJaW1lNhlwUZu1ADgogEIyOj9ba2tmg29QjxeLxaBweHtcIuB4IgiEj44YcfVqqrqwv91ZCox7hx4wbS0tI8R1/TCIIgEmZoaAhs3bo1g8lkCv0mLarBYrFgcnJyNpZ6RhC8oFdYiMigUqnA29t7/cqVK19QqejS/CsqlQr8/f3vqKioLBd2WRAEQUTS06dPDefPn18PROCJX1SCQqHAxYsXN7a2tppgrF4EQRDJlp+fP8nb2/sZhUIR+s1b2EGlUmFAQEDj7du3zbDXLIIgyBhw586dSXw+v55Opwv9Ji6sYDAYcMWKFY/r6upQzwNBEORjdHZ26gYEBGRwOByh38zJDlVVVbhu3bqsvXv3ojXrEARBRuPhw4fMlJSUNebm5t1UKlXoN3aig0ajQR6P17l+/XrPjo4OJn41iSAIMkbdunXLcsGCBVmampoDQARu9ESEvr6+IDo6+tSFCxc4eNYdgiAIAgDIz89f7O3tfUZdXX1AEnokVCoV6uvrD6xcufJCRkaGyO5lgiAIIjHu3r3LTUxMzOZyubf09PSgOH1sZzKZcNKkSdDR0bF8/fr1W5qamqyIqicEIQraDwQRe9XV1dTr169zGQzGwp9++onT1tY2SUlJaWZrayvo7u4Gg4ODQi0fg8EA8vLyQEVFBfT09FxXVlauMTAwKLOwsKh2cXG5z+FwhFtABBml/wPlJDW6W+VuLAAAAABJRU5ErkJggg==;" vertex="1" parent="1">
          <mxGeometry x="650" y="322.5" width="70" height="70" as="geometry" />
        </mxCell>
        <mxCell id="lMKxhEZFdJY4erHnloHR-23" style="edgeStyle=orthogonalEdgeStyle;rounded=0;orthogonalLoop=1;jettySize=auto;html=1;exitX=0.5;exitY=1;exitDx=0;exitDy=0;entryX=0.5;entryY=0;entryDx=0;entryDy=0;" edge="1" parent="1" source="lMKxhEZFdJY4erHnloHR-22" target="lMKxhEZFdJY4erHnloHR-9">
          <mxGeometry relative="1" as="geometry" />
        </mxCell>
        <mxCell id="lMKxhEZFdJY4erHnloHR-24" value="&lt;b&gt;1.&lt;/b&gt; Checkout Code &lt;br&gt;and Build App" style="edgeLabel;html=1;align=center;verticalAlign=middle;resizable=0;points=[];labelBorderColor=#66FF66;fontSize=20;" vertex="1" connectable="0" parent="lMKxhEZFdJY4erHnloHR-23">
          <mxGeometry x="-0.0954" y="-2" relative="1" as="geometry">
            <mxPoint as="offset" />
          </mxGeometry>
        </mxCell>
        <mxCell id="lMKxhEZFdJY4erHnloHR-22" value="" style="shape=image;verticalLabelPosition=bottom;labelBackgroundColor=default;verticalAlign=top;aspect=fixed;imageAspect=0;image=data:image/png,iVBORw0KGgoAAAANSUhEUgAAAOEAAADhCAMAAAAJbSJIAAAAilBMVEX////eTDbdQSfeSjPcPiPwtKz32NT0yMLmgHL31tLmfnDeSDDdPSD42tbdRCvcPyTlemvuq6P88e/++vnpkof0zsn76ujldWbng3bpj4PvsarcORvuqaDhYlDfUjzgV0LrnpXjbl7xurTyvrjqmI354d7hX0zdUj7ialvtopn1y8bbMg3oin777et5gDegAAAJvElEQVR4nO1da3ebOBA1iDjxgsGxYzsJ8Su2022b/f9/b/0IMQKJ0UgagWjvp570gLhn7tWMpAEPBu6weP9crYPNcjufORzVHebLPIxZEAQsTYLttO3HsY7pcxIH32BhsG/7iSzjuE4DDix5afuZrGKYsKCKbNL2U1nEKK0TDILwn7afyxqGsYjgieJD209mCcNMTPBEsR9CHQs82CuKI4lEeyNUmQd7Q1GUJnol1GEIEfQ8aUAS9V6oQ2Gi71EUYQ9+U/TTi+JSrUdRVPPgN0X/vDiMMAQ9FKq6Bz2l2FyqSSj6JFTVNOEtRbxEvyj6IlS9CF4o+pE0FshZlKPoh1AfE22GvkTRiKIfXjSi6IlQ8/5T/CvUP53iHyDUv0mjBSwEf+tVFIfZneCvPfLiKGO5dYpdEupluZT0mOLXij7qrVC/d9WSd8H/9oBiaUUv9qJJjdoFoXKHL0KhvvntxcquWv+8WNuTya17sd3UL9hV61fSEB6+2Bdqe1GUHL4Ik4bRdNOWF0eybcO+FHANO9vSpMHi9AT8oUYrFBsPX8RezPP18ulweJqsc4UOBp6ie6ECW/fCpHF/LP61eP0ot5uqUHQ93YCHL0IvljHfSdvdxBTdClWhT0YoVA7vuBMcp1FUOqMXJg0Oxw1KqQ69qNLpFEi8yGG6wlF0FUXlA1A4itNNF72I6JOJYKHiFo9Ooojqk4Gj+BjhKNJ7cYQ7oweTxmDVsb4bbCMQnDTucUGkpojvk2EB8I7T7KNLBZxGl0V6gG56SOG78BTpphudPplkDt11lGHvSSZUTDvlN+L/oNtOcSX4hSJNFHHtlF9gH/Crhj860gOnWKpVEO/gOyPzxZWifaFq9qrFS/jWO602P9sUddopSRna9qKWBy8M/4Vvjk2IFBSRpVoJbAO/8Bto3tyiUPUmma/HEB3wczhiM759iroevCAD32jeozP+jaKdpKHfEHtG/Azd/2fbG/66Lc0FIrCoeWp3N1yrVCsj3YJjPCEXUBxF0yhqp4kbEng2NYqimRdHuF1bIWIFIRlF0USoph68IntVoNiOF43SRPkR7hUotuFFszRRAot+dZKifqlWR/6oQNG1UEcGpVod0eQIjuh4urHlwQJx+kKb+rFCNU70deTwlOowinbSROUR+L3he9EEaxRFhcX2NwgiWGf4W7TP6GhGtVCqiR6gwjDJRiKKLrxoM02Ux68wjJhwt9iBF9GHL6rDVxkGLG2Fou00cRu9xlBGkVao1kq1+uB1hgFLhF6knG6IPHgZW8DwVLJaj2KzUEnSRDG0iKFrL5J58DKykGHAQodetFts1wYWMwwcJg2KUq08roShPIosTsMT8M6RUKT04GVYGUOZF3+zyeHx7u7taRdGyFNUoVBpSrXyqFKGpxlVlDTG34er0/tlbtysSZgmikHlDCVeLOM4QTZrVlcaNrYNoTEbGEqEyl/AcG1+vBdJ00QxZBNDFYoLZLNmWajUk8x1xEaGkgKOg36z5pHcg5cBmxkGLAOjqNusOV27IAgyVBHqGFfqZJ/Xy561D2FRABmeUj8o1J8hasxr9+fcoATEAGaokDSQ7UWMnbcwl/iuKy0oMDxFEdr/v8OdiYeH0xxs8BIrbjAFhkEKLWCnuM4NxmaDd5yy9aHEMAIbG55xkkt+Ya/QhxLDGGxOQbZupFutvjktKPlwBRHEtt+w3WBt5/lhqDBUOBFHGjHYDOw8vgJUGKYKPyeAbUcdbKw8vgKUGIJd4YMBrnIL1oNll3yYPtlmeHL21k3NpuhDuDlmhqui409nRZsaQ7gddYHczngfzHTbO7FQyhZrsIFqjttmzE8JduuoqFGracDVBe4FlEsXNjbB6EKtLoUm0xmuQrkuVvZunKjEEHxNCjdtpF/drS/6XboIKDEEm+BQa72brScurKjGkKWNQUSFkCW3NqV/HFBUYxiknw0EURM/S8elSx/oKSoybHx5+AExkbJ4yF1LL1RVhg1bbgfEQ7JwXLmanKIqQ/lmzQExI7JkWLueWqjKDE+FyJuA33SJIRhXI+iAIoJhkO1qD7iv/jZdE6oeLEArVAzDIA4fyvXbbL/C9DGxRBTBM0iTBorhmeP6ZT+ezmaL0d2EZahEH4ojSC1UJMPzpJol+QlJiDv7k0mUPIpohppgaRNBSi86Yij3IHkU3TDkSzUxqLzohGGzB4mF6oIhi+AI0lF0wJBFKhE8g0So9AzFpZo7iuQM1TxYgECo1AzhNMHDftIgZqiSJnhYFyotQ5xEaaJY2UWzyxAq1cSw6kUWVlqe7n9b3IgWrehVYFGocVxdts/eYmsdBJg0QUQx3Ak6EBY7S7fX8WABS0KNJHugJu3qN2DTBAHFTHo6j9k9k4Fl+hE8w4JQ04aDXfOuQROJWqLINk0nEaadn3ppgoepUPPGfsORWVudbprgYZb6oW9hGenURgTPMBIqNNGNDW5u7sECBlGEuyt22om/aV8UC30vhqIjCA6vuve248EC2kItHcNKcNS8tX6pZpWiQoOMZkOPPQ8W0BOqQsOo3jf3zEo1MbSmG6rvJtqcZG7QEaoKQ42XBexL9AqNKNLE0FairwPvRUbx7Uu7aYIHWqgUcyldBLUowvkQW7ZRebAAVqgh+A0sZE1juuC1TpGBn0rG1aXqhy/6QAo1h9YWqI0M26WaDYrQSyKo9SG1BwvghJo3NjYPce2UbggiU7+9fRraNMEDJdS04UO7GI26kugVqChm0vb0LaYZz2EEz0B5MZK87PNk2E5JC5RQw53go4lTzLmFmzRhQDGOXyvzzewVc/bk1oMFUEJl2cdj6fxp8fiB+daIap9MqxRPy/J0ddjPx+P5/rCKUR9soq9FZcCuNFiaRUkSZcgPjbQjUT2KWnCdJng4eNvGfZrgQf62TbsRPINYqG16sABpFGn2RbEg9GLbHixAJtQ2SjUxiCh2wYMFSIRKcfiiD4LpphuTzA3WhdoliV5hOYrtJ/o67DZrdiRN8LAo1C5G8AxrFLvnwQKWvNjegheGFS9204MFLAi1O6WaGObNmp31YAFDoXarVBPDaLrpaprgYSBUxrofwTO0o4h/d6ktaHqx22mCh1YUu54meGh4sftpggdaqG0dvugD23fT4VpUBpRQ/fJgAcR045sHCygL1YdSTQzFKPpRqomh5EXG/CWoFEWfI3gG6EWfSjUxAKH6mSZ4NFL0NU3waBCqv2mCh3S6qX/b0FdIhNoPiV4hjKLvaYLHpN5n6X+a4PFS/cWldA3/Urdf2AflZr04eQZfF/IO022QXFr2WBzmS/BHgbzEbL5dboIfq8938LdWLOJ/+1SsZJnuW2AAAAAASUVORK5CYII=;" vertex="1" parent="1">
          <mxGeometry x="64.5" y="10" width="105" height="105" as="geometry" />
        </mxCell>
      </root>
    </mxGraphModel>
  </diagram>
</mxfile>
